<svg xmlns="http://www.w3.org/2000/svg" xmlns:xlink="http://www.w3.org/1999/xlink" width="500" zoomAndPan="magnify" viewBox="0 0 375 374.999991" height="500" preserveAspectRatio="xMidYMid meet" version="1.0"><defs><clipPath id="a8e38d133b"><path d="M 129.089844 107.296875 L 195 107.296875 L 195 172 L 129.089844 172 Z M 129.089844 107.296875 " clip-rule="nonzero"/></clipPath><clipPath id="bc00bbba48"><path d="M 143 169 L 178 169 L 178 199.546875 L 143 199.546875 Z M 143 169 " clip-rule="nonzero"/></clipPath><clipPath id="4dd4e906d8"><path d="M 180 113 L 246.089844 113 L 246.089844 185 L 180 185 Z M 180 113 " clip-rule="nonzero"/></clipPath></defs><g clip-path="url(#a8e38d133b)"><path fill="#26ace2" d="M 192.109375 150.976562 C 187.363281 157.109375 178.648438 159.847656 176.882812 168.34375 C 176.625 168.417969 176.371094 168.488281 176.113281 168.554688 C 173.457031 169.449219 170.640625 169.542969 167.992188 168.886719 C 166.597656 168.542969 165.25 167.988281 163.992188 167.230469 C 163.421875 165.769531 162.277344 164.628906 160.558594 163.8125 C 144.707031 177.042969 128.921875 172.695312 129.097656 158.117188 C 129.179688 150.976562 134.449219 147.78125 140.347656 144.347656 C 143.65625 142.425781 141.355469 138.84375 138.796875 140.292969 C 135.777344 141.996094 132.871094 143.980469 130.285156 146.304688 C 130.21875 145.949219 130.15625 145.585938 130.097656 145.21875 C 129.910156 144.039062 129.777344 142.828125 129.710938 141.570312 C 129.699219 137.769531 130.898438 134.027344 133.199219 130.910156 C 136.035156 127.066406 140.28125 124.511719 144.988281 123.808594 C 146.421875 120.59375 150.605469 117.507812 157.535156 114.550781 C 161.605469 112.546875 166.34375 112.367188 170.546875 114.058594 C 183.695312 130.25 171.003906 133.886719 158.15625 139.492188 C 152.195312 142.089844 146.570312 145.746094 144.542969 154.082031 C 143.566406 158.101562 147.910156 158.554688 148.683594 155.242188 C 150.089844 149.191406 153.777344 146.078125 159.878906 143.417969 C 166.414062 140.574219 176.402344 137.269531 179.4375 130.28125 C 182.367188 123.53125 178.054688 116.484375 173.898438 111.363281 L 173.476562 110.851562 C 176.847656 107.902344 181.449219 106.730469 185.84375 107.742188 C 189.035156 108.472656 191.824219 110.28125 193.777344 112.789062 C 188.730469 117.011719 184.140625 122.183594 185.472656 129.289062 C 186.195312 133.125 188.453125 136.234375 190.660156 139.355469 C 191.847656 141.042969 193.433594 143.246094 193.894531 145.273438 C 194.398438 147.453125 193.433594 149.292969 192.117188 150.984375 Z M 192.109375 150.976562 " fill-opacity="1" fill-rule="evenodd"/></g><g clip-path="url(#bc00bbba48)"><path fill="#26ace2" d="M 159.363281 169.871094 C 164.835938 172.875 171.230469 173.753906 177.308594 172.335938 C 177.792969 174.617188 175.664062 175.757812 173.007812 177.226562 C 163.777344 182.320312 169.332031 181.078125 164.066406 189.515625 C 159.496094 196.667969 146.109375 199.882812 143.523438 199.421875 C 141.386719 199.035156 149.652344 196.46875 149.558594 188.558594 C 149.484375 181.433594 149.203125 179.890625 145.226562 176.214844 C 150.628906 176.203125 155.769531 173.898438 159.363281 169.871094 Z M 159.363281 169.871094 " fill-opacity="1" fill-rule="evenodd"/></g><g clip-path="url(#4dd4e906d8)"><path fill="#a6a6a6" d="M 184.859375 177.46875 C 178.730469 172.335938 179.808594 166.644531 188.085938 160.402344 C 214.847656 141.058594 179.132812 135.191406 192.773438 119.621094 C 194.691406 117.433594 196.9375 115.507812 199.6875 114.46875 C 203.167969 113.160156 207.09375 113.246094 210.582031 114.851562 C 215.421875 117.074219 218.597656 121.824219 218.777344 127.132812 C 222.960938 125.519531 227.714844 126.492188 230.925781 129.617188 C 234.132812 132.746094 235.214844 137.457031 233.6875 141.664062 C 238.058594 142.128906 241.953125 144.628906 244.179688 148.40625 C 246.265625 151.941406 246.667969 156.203125 245.296875 160.042969 L 245.277344 160.035156 C 245.132812 160.410156 244.964844 160.785156 244.78125 161.144531 C 242.785156 159.441406 240.148438 158.257812 237.066406 157.574219 L 236.460938 157.4375 L 236.324219 156.945312 L 236.308594 156.921875 C 233.242188 146.441406 226.699219 141.695312 217.996094 142.140625 C 216.398438 142.277344 214.277344 142.65625 211.628906 143.269531 C 210.953125 143.464844 210.269531 143.6875 209.582031 143.929688 C 208.902344 144.175781 208.222656 144.4375 207.527344 144.722656 C 204.289062 146.066406 205.972656 150.023438 209.179688 148.679688 C 210.542969 148.113281 211.847656 147.652344 213.09375 147.289062 C 213.917969 147.050781 214.726562 146.859375 215.503906 146.707031 C 224.632812 144.992188 230.386719 149.574219 232.777344 160.445312 C 237.53125 162 242.714844 162.40625 244.457031 167.527344 C 245.039062 169.234375 245.09375 171.128906 244.542969 172.941406 C 243.460938 176.527344 240.242188 179.046875 236.492188 179.246094 C 235.410156 181.777344 233.136719 183.605469 230.425781 184.117188 C 228.546875 184.476562 226.625 184.171875 224.976562 183.296875 C 223.726562 182.210938 222.359375 181.417969 220.882812 180.921875 C 218.566406 182.988281 215.429688 183.933594 212.316406 183.449219 C 209.4375 183 206.902344 181.382812 205.296875 179.023438 C 208.589844 173.792969 210.050781 169.929688 211.289062 163.917969 C 211.921875 160.851562 207.777344 159.574219 207.082031 163.042969 C 206.023438 168.363281 204.394531 174.671875 199.6875 177.769531 C 196.21875 180.054688 191.765625 180.601562 187.734375 179.015625 C 186.695312 178.609375 185.738281 178.085938 184.859375 177.457031 Z M 184.859375 177.46875 " fill-opacity="1" fill-rule="evenodd"/></g></svg>