<svg xmlns="http://www.w3.org/2000/svg" xmlns:xlink="http://www.w3.org/1999/xlink" width="500" zoomAndPan="magnify" viewBox="0 0 375 374.999991" height="500" preserveAspectRatio="xMidYMid meet" version="1.0"><defs><clipPath id="6449c5da90"><path d="M 7.695312 9.269531 L 366.945312 9.269531 L 366.945312 370 L 7.695312 370 Z M 7.695312 9.269531 " clip-rule="nonzero"/></clipPath></defs><g clip-path="url(#6449c5da90)"><path fill="#f366ba" d="M 7.75 189.320312 C 7.75 288.644531 88.171875 369.15625 187.375 369.15625 C 286.582031 369.15625 367 288.644531 367 189.320312 C 367 89.992188 286.582031 9.480469 187.375 9.480469 C 88.167969 9.476562 7.75 89.992188 7.75 189.320312 " fill-opacity="1" fill-rule="nonzero"/></g><path fill="#23255d" d="M 266.261719 142.390625 L 266.261719 314.980469 L 113.492188 314.980469 L 113.492188 149.515625 L 266.261719 142.390625 " fill-opacity="1" fill-rule="nonzero"/><path fill="#23255d" d="M 262.636719 174.84375 C 262.636719 174.84375 257.707031 217.214844 285.15625 216.640625 C 285.15625 216.640625 273.171875 231.527344 262.292969 225.230469 C 251.417969 218.929688 256.6875 181.714844 256.6875 181.714844 L 262.855469 171.980469 " fill-opacity="1" fill-rule="nonzero"/><path fill="#ffffff" d="M 292.167969 369.648438 C 283.292969 376.289062 273.753906 382.109375 263.675781 386.972656 C 262.144531 387.71875 260.601562 388.429688 259.058594 389.128906 C 237.164062 398.953125 212.917969 404.414062 187.378906 404.414062 C 161.839844 404.414062 137.589844 398.953125 115.710938 389.128906 C 114.144531 388.429688 112.601562 387.71875 111.078125 386.972656 C 101.003906 382.097656 91.464844 376.289062 82.589844 369.648438 C 84.144531 334.882812 102.59375 304.515625 129.917969 286.582031 C 146.421875 275.738281 166.160156 269.441406 187.378906 269.441406 C 190.617188 269.441406 193.816406 269.589844 196.964844 269.875 C 214.542969 271.46875 230.851562 277.386719 244.839844 286.582031 C 257.421875 294.839844 268.117188 305.730469 276.144531 318.464844 C 285.570312 333.40625 291.320312 350.890625 292.167969 369.648438 " fill-opacity="1" fill-rule="nonzero"/><path fill="#fbd5c0" d="M 244.839844 286.582031 C 243.238281 298.710938 237.898438 309.667969 229.996094 318.234375 C 219.402344 329.71875 204.238281 336.921875 187.378906 336.921875 C 160.375 336.921875 137.683594 318.429688 131.242188 293.398438 C 130.671875 291.175781 130.226562 288.898438 129.917969 286.582031 C 146.421875 275.738281 166.160156 269.441406 187.378906 269.441406 C 190.617188 269.441406 193.816406 269.578125 196.972656 269.875 C 197.523438 269.921875 198.074219 269.980469 198.609375 270.035156 C 198.953125 270.070312 199.296875 270.105469 199.628906 270.152344 C 200.003906 270.1875 200.382812 270.242188 200.75 270.289062 C 200.976562 270.3125 201.21875 270.347656 201.445312 270.378906 C 201.777344 270.414062 202.121094 270.472656 202.464844 270.519531 C 202.726562 270.550781 202.992188 270.597656 203.265625 270.632812 C 203.492188 270.667969 203.722656 270.699219 203.953125 270.746094 C 204.339844 270.804688 204.71875 270.871094 205.105469 270.929688 C 206.777344 271.214844 208.433594 271.535156 210.070312 271.902344 L 211.167969 272.144531 C 211.375 272.199219 211.589844 272.246094 211.796875 272.304688 C 212.1875 272.394531 212.585938 272.488281 212.964844 272.589844 C 213.03125 272.601562 213.089844 272.613281 213.136719 272.625 C 213.628906 272.75 214.121094 272.875 214.601562 273.015625 C 215.125 273.140625 215.640625 273.289062 216.144531 273.4375 C 216.726562 273.597656 217.300781 273.769531 217.882812 273.941406 C 218.328125 274.078125 218.773438 274.214844 219.21875 274.367188 C 219.507812 274.457031 219.804688 274.546875 220.078125 274.640625 C 220.546875 274.789062 221.015625 274.949219 221.472656 275.109375 C 222.046875 275.304688 222.605469 275.5 223.167969 275.703125 C 223.210938 275.726562 223.246094 275.738281 223.28125 275.75 C 223.863281 275.957031 224.4375 276.175781 225.007812 276.390625 C 225.429688 276.5625 225.867188 276.722656 226.300781 276.90625 C 227.433594 277.355469 228.542969 277.824219 229.640625 278.304688 L 231.082031 278.957031 C 231.515625 279.152344 231.949219 279.359375 232.386719 279.5625 C 232.785156 279.757812 233.175781 279.941406 233.5625 280.136719 C 233.929688 280.308594 234.285156 280.492188 234.636719 280.675781 C 234.867188 280.789062 235.105469 280.902344 235.335938 281.03125 C 236.285156 281.511719 237.210938 282.015625 238.125 282.519531 C 238.457031 282.703125 238.800781 282.894531 239.121094 283.078125 C 239.339844 283.207031 239.542969 283.320312 239.75 283.433594 L 240.527344 283.890625 L 241.316406 284.375 L 241.832031 284.683594 C 242.324219 284.96875 242.804688 285.265625 243.285156 285.574219 C 243.8125 285.90625 244.324219 286.238281 244.839844 286.582031 " fill-opacity="1" fill-rule="nonzero"/><path fill="#fbd5c0" d="M 207.578125 245.910156 L 207.578125 285.691406 C 207.578125 295.753906 199.355469 304 189.3125 304 L 185.445312 304 C 175.402344 304 167.191406 295.753906 167.191406 285.691406 L 167.191406 245.910156 C 167.191406 235.84375 175.402344 227.609375 185.445312 227.609375 L 189.3125 227.609375 C 199.355469 227.609375 207.578125 235.84375 207.578125 245.910156 " fill-opacity="1" fill-rule="nonzero"/><path fill="#f8a29e" d="M 207.578125 245.910156 L 207.578125 266.957031 C 201.574219 270.300781 195.203125 272.246094 188.738281 272.246094 C 181.109375 272.246094 173.835938 270.117188 167.191406 266.417969 L 167.191406 245.910156 C 167.191406 235.84375 175.402344 227.609375 185.445312 227.609375 L 189.3125 227.609375 C 199.355469 227.609375 207.578125 235.84375 207.578125 245.910156 " fill-opacity="1" fill-rule="nonzero"/><path fill="#fbd5c0" d="M 249.65625 221.242188 C 249.65625 221.242188 261.617188 217.167969 269.257812 203.816406 C 277.5625 189.320312 272.347656 180.285156 270.699219 178.324219 C 266.207031 172.976562 259.261719 176.414062 258.117188 178.324219 C 256.976562 180.238281 240.414062 210.355469 249.65625 221.242188 " fill-opacity="1" fill-rule="nonzero"/><path fill="#f8a29e" d="M 261.378906 183.078125 C 261.378906 183.078125 268.972656 184.050781 266.308594 194.734375 C 263.632812 205.429688 256.621094 209.65625 247.082031 215.117188 C 237.554688 220.578125 251.851562 185.253906 261.378906 183.078125 " fill-opacity="1" fill-rule="nonzero"/><path fill="#fbd5c0" d="M 128.210938 221.242188 C 128.210938 221.242188 116.25 217.167969 108.609375 203.816406 C 100.292969 189.320312 105.507812 180.285156 107.15625 178.324219 C 111.652344 172.976562 118.59375 176.414062 119.738281 178.324219 C 120.882812 180.238281 137.453125 210.355469 128.210938 221.242188 " fill-opacity="1" fill-rule="nonzero"/><path fill="#f8a29e" d="M 116.476562 183.078125 C 116.476562 183.078125 108.894531 184.050781 111.558594 194.734375 C 114.226562 205.429688 121.246094 209.65625 130.773438 215.117188 C 140.3125 220.578125 126.015625 185.253906 116.476562 183.078125 " fill-opacity="1" fill-rule="nonzero"/><path fill="#fbd5c0" d="M 261.378906 176.023438 C 261.378906 132.132812 229.023438 96.542969 189.09375 96.542969 C 149.175781 96.542969 116.796875 132.132812 116.796875 176.023438 C 116.796875 219.914062 149.175781 265.800781 189.09375 265.800781 C 226.609375 265.800781 261.378906 219.550781 261.378906 176.023438 " fill-opacity="1" fill-rule="nonzero"/><path fill="#23255d" d="M 195.601562 143.972656 C 195.601562 143.972656 209.199219 187.773438 260.347656 183.433594 C 260.347656 183.433594 269.28125 170.503906 266.261719 142.390625 C 262.855469 110.707031 234.820312 84.050781 189.09375 93.589844 C 189.09375 93.589844 184.917969 116.113281 195.601562 143.972656 " fill-opacity="1" fill-rule="nonzero"/><path fill="#23255d" d="M 197.890625 96.542969 C 197.890625 96.542969 199.789062 88.253906 192.925781 81.757812 C 186.0625 75.265625 95.191406 88.59375 116.796875 176.023438 C 116.796875 176.023438 137.980469 123.738281 194.070312 119.160156 L 197.890625 96.542969 " fill-opacity="1" fill-rule="nonzero"/></svg>