<svg xmlns="http://www.w3.org/2000/svg" xmlns:xlink="http://www.w3.org/1999/xlink" width="500" zoomAndPan="magnify" viewBox="0 0 375 374.999991" height="500" preserveAspectRatio="xMidYMid meet" version="1.0"><defs><clipPath id="4e217de3d6"><path d="M 7.695312 12.679688 L 366.945312 12.679688 L 366.945312 373 L 7.695312 373 Z M 7.695312 12.679688 " clip-rule="nonzero"/></clipPath></defs><g clip-path="url(#4e217de3d6)"><path fill="#eec124" d="M 367.003906 192.726562 C 367.003906 292.054688 286.585938 372.566406 187.378906 372.566406 C 88.171875 372.566406 7.753906 292.054688 7.753906 192.726562 C 7.75 93.402344 88.171875 12.890625 187.378906 12.890625 C 286.585938 12.886719 367.003906 93.402344 367.003906 192.726562 " fill-opacity="1" fill-rule="nonzero"/></g><path fill="#3f2463" d="M 266.867188 158.441406 C 266.867188 158.441406 257.753906 248.539062 288.632812 249.683594 C 288.632812 249.683594 260.347656 300.070312 189.09375 290.335938 L 189.09375 148.914062 L 266.867188 158.441406 " fill-opacity="1" fill-rule="nonzero"/><path fill="#3f2463" d="M 113.640625 158.441406 C 113.640625 158.441406 122.757812 248.539062 91.875 249.683594 C 91.875 249.683594 120.160156 300.070312 191.414062 290.335938 L 191.414062 148.914062 L 113.640625 158.441406 " fill-opacity="1" fill-rule="nonzero"/><path fill="#ffffff" d="M 292.167969 373.058594 C 283.292969 379.699219 273.753906 385.515625 263.675781 390.382812 C 262.144531 391.128906 260.601562 391.835938 259.058594 392.535156 C 237.164062 402.359375 212.917969 407.824219 187.378906 407.824219 C 161.839844 407.824219 137.589844 402.359375 115.710938 392.535156 C 114.144531 391.835938 112.601562 391.128906 111.078125 390.382812 C 101.003906 385.503906 91.464844 379.699219 82.589844 373.058594 C 84.144531 338.292969 102.59375 307.925781 129.917969 289.992188 C 146.421875 279.148438 166.160156 272.851562 187.378906 272.851562 C 190.617188 272.851562 193.816406 273 196.964844 273.285156 C 214.542969 274.875 230.851562 280.796875 244.839844 289.992188 C 257.421875 298.246094 268.117188 309.136719 276.144531 321.871094 C 285.570312 336.816406 291.320312 354.300781 292.167969 373.058594 " fill-opacity="1" fill-rule="nonzero"/><path fill="#f79b68" d="M 244.839844 289.992188 C 243.238281 302.117188 237.898438 313.078125 229.996094 321.640625 C 219.402344 333.128906 204.238281 340.332031 187.378906 340.332031 C 160.375 340.332031 137.683594 321.835938 131.242188 296.804688 C 130.671875 294.582031 130.226562 292.304688 129.917969 289.992188 C 146.421875 279.148438 166.160156 272.851562 187.378906 272.851562 C 190.617188 272.851562 193.816406 272.988281 196.972656 273.285156 C 197.523438 273.332031 198.074219 273.386719 198.609375 273.445312 C 198.953125 273.480469 199.296875 273.515625 199.628906 273.558594 C 200.003906 273.59375 200.382812 273.652344 200.75 273.695312 C 200.976562 273.71875 201.21875 273.753906 201.445312 273.789062 C 201.777344 273.824219 202.121094 273.878906 202.464844 273.925781 C 202.726562 273.960938 202.992188 274.007812 203.265625 274.039062 C 203.492188 274.074219 203.722656 274.109375 203.953125 274.15625 C 204.339844 274.210938 204.71875 274.28125 205.105469 274.339844 C 206.777344 274.625 208.433594 274.945312 210.070312 275.3125 L 211.167969 275.550781 C 211.375 275.609375 211.589844 275.65625 211.796875 275.710938 C 212.1875 275.804688 212.585938 275.894531 212.964844 276 C 213.03125 276.011719 213.089844 276.023438 213.136719 276.03125 C 213.628906 276.160156 214.121094 276.285156 214.601562 276.421875 C 215.125 276.546875 215.640625 276.695312 216.144531 276.847656 C 216.726562 277.007812 217.300781 277.179688 217.882812 277.351562 C 218.328125 277.488281 218.773438 277.625 219.21875 277.773438 C 219.507812 277.863281 219.804688 277.957031 220.078125 278.046875 C 220.546875 278.199219 221.015625 278.359375 221.472656 278.519531 C 222.046875 278.710938 222.605469 278.90625 223.167969 279.113281 C 223.210938 279.136719 223.246094 279.148438 223.28125 279.160156 C 223.863281 279.367188 224.4375 279.582031 225.007812 279.800781 C 225.429688 279.972656 225.867188 280.132812 226.300781 280.316406 C 227.433594 280.761719 228.542969 281.230469 229.640625 281.710938 L 231.082031 282.367188 C 231.515625 282.558594 231.949219 282.765625 232.386719 282.972656 C 232.785156 283.167969 233.175781 283.351562 233.5625 283.546875 C 233.929688 283.714844 234.285156 283.898438 234.636719 284.082031 C 234.867188 284.199219 235.105469 284.3125 235.335938 284.4375 C 236.285156 284.917969 237.210938 285.421875 238.125 285.925781 C 238.457031 286.109375 238.800781 286.304688 239.121094 286.488281 C 239.339844 286.613281 239.542969 286.726562 239.75 286.84375 L 240.527344 287.300781 L 241.316406 287.78125 L 241.832031 288.089844 C 242.324219 288.378906 242.804688 288.675781 243.285156 288.984375 C 243.8125 289.316406 244.324219 289.648438 244.839844 289.992188 " fill-opacity="1" fill-rule="nonzero"/><path fill="#f79b68" d="M 207.578125 249.316406 L 207.578125 289.097656 C 207.578125 299.164062 199.355469 307.410156 189.3125 307.410156 L 185.445312 307.410156 C 175.402344 307.410156 167.191406 299.164062 167.191406 289.097656 L 167.191406 249.316406 C 167.191406 239.253906 175.402344 231.019531 185.445312 231.019531 L 189.3125 231.019531 C 199.355469 231.019531 207.578125 239.253906 207.578125 249.316406 " fill-opacity="1" fill-rule="nonzero"/><path fill="#f4716d" d="M 207.578125 249.316406 L 207.578125 270.363281 C 201.574219 273.707031 195.203125 275.65625 188.738281 275.65625 C 181.109375 275.65625 173.835938 273.523438 167.191406 269.828125 L 167.191406 249.316406 C 167.191406 239.253906 175.402344 231.019531 185.445312 231.019531 L 189.3125 231.019531 C 199.355469 231.019531 207.578125 239.253906 207.578125 249.316406 " fill-opacity="1" fill-rule="nonzero"/><path fill="#f79b68" d="M 249.65625 224.652344 C 249.65625 224.652344 261.617188 220.574219 269.257812 207.222656 C 277.5625 192.726562 272.347656 183.691406 270.699219 181.734375 C 266.207031 176.386719 259.261719 179.820312 258.117188 181.734375 C 256.976562 183.644531 240.414062 213.761719 249.65625 224.652344 " fill-opacity="1" fill-rule="nonzero"/><path fill="#f4716d" d="M 261.378906 186.484375 C 261.378906 186.484375 268.972656 187.460938 266.308594 198.144531 C 263.632812 208.839844 256.621094 213.0625 247.082031 218.527344 C 237.554688 223.988281 251.851562 188.660156 261.378906 186.484375 " fill-opacity="1" fill-rule="nonzero"/><path fill="#f79b68" d="M 128.210938 224.652344 C 128.210938 224.652344 116.25 220.574219 108.609375 207.222656 C 100.292969 192.726562 105.507812 183.691406 107.15625 181.734375 C 111.652344 176.386719 118.59375 179.820312 119.738281 181.734375 C 120.882812 183.644531 137.453125 213.761719 128.210938 224.652344 " fill-opacity="1" fill-rule="nonzero"/><path fill="#f4716d" d="M 116.476562 186.484375 C 116.476562 186.484375 108.894531 187.460938 111.558594 198.144531 C 114.226562 208.839844 121.246094 213.0625 130.773438 218.527344 C 140.3125 223.988281 126.015625 188.660156 116.476562 186.484375 " fill-opacity="1" fill-rule="nonzero"/><path fill="#f79b68" d="M 261.378906 179.433594 C 261.378906 135.539062 229.023438 99.949219 189.09375 99.949219 C 149.175781 99.949219 116.796875 135.539062 116.796875 179.433594 C 116.796875 223.324219 149.175781 269.207031 189.09375 269.207031 C 226.609375 269.207031 261.378906 222.957031 261.378906 179.433594 " fill-opacity="1" fill-rule="nonzero"/><path fill="#3f2463" d="M 195.601562 147.382812 C 195.601562 147.382812 209.199219 191.179688 260.347656 186.839844 C 260.347656 186.839844 269.28125 173.914062 266.261719 145.800781 C 262.855469 114.117188 234.820312 87.457031 189.09375 96.996094 C 189.09375 96.996094 184.917969 119.519531 195.601562 147.382812 " fill-opacity="1" fill-rule="nonzero"/><path fill="#3f2463" d="M 197.890625 99.949219 C 197.890625 99.949219 199.789062 91.660156 192.925781 85.167969 C 186.0625 78.675781 95.191406 92.003906 116.796875 179.433594 C 116.796875 179.433594 137.980469 127.148438 194.070312 122.566406 L 197.890625 99.949219 " fill-opacity="1" fill-rule="nonzero"/></svg>