<svg xmlns="http://www.w3.org/2000/svg" xmlns:xlink="http://www.w3.org/1999/xlink" width="500" zoomAndPan="magnify" viewBox="0 0 375 374.999991" height="500" preserveAspectRatio="xMidYMid meet" version="1.0"><defs><filter x="0%" y="0%" width="100%" height="100%" id="bff8b38b29"><feColorMatrix values="0 0 0 0 1 0 0 0 0 1 0 0 0 0 1 0 0 0 1 0" color-interpolation-filters="sRGB"/></filter><clipPath id="6cefc96199"><path d="M 15 297 L 372 297 L 372 359.4375 L 15 359.4375 Z M 15 297 " clip-rule="nonzero"/></clipPath><clipPath id="587beac534"><path d="M 15 310 L 372 310 L 372 359.4375 L 15 359.4375 Z M 15 310 " clip-rule="nonzero"/></clipPath><clipPath id="116f857fc8"><path d="M 184 15.9375 L 282 15.9375 L 282 63 L 184 63 Z M 184 15.9375 " clip-rule="nonzero"/></clipPath><mask id="24fd580cfb"><g filter="url(#bff8b38b29)"><rect x="-37.5" width="450" fill="#000000" y="-37.499999" height="449.999989" fill-opacity="0.898"/></g></mask><clipPath id="ebced16939"><rect x="0" width="80" y="0" height="97"/></clipPath></defs><path fill="#b1dce9" d="M 314.519531 316.203125 C 352.824219 280.667969 374.246094 230.699219 372.375 181.097656 C 371.804688 165.824219 366.753906 147.859375 350.878906 142.703125 C 340.996094 139.492188 329.949219 142.480469 319.621094 140.726562 C 305.546875 138.359375 294.949219 127.5 288.613281 115.878906 C 282.277344 104.253906 279.097656 91.398438 273.15625 79.628906 C 264.800781 63.046875 250.601562 48.609375 232.484375 40.640625 C 214.367188 32.667969 192.257812 31.65625 174.015625 39.40625 C 146.730469 51.003906 131.125 79.726562 102.628906 88.636719 C 90.230469 92.507812 76.796875 92.140625 63.808594 93.742188 C 50.816406 95.347656 37.0625 99.738281 30.210938 109.855469 C 22.050781 121.898438 26.5625 137.839844 34.597656 149.957031 C 42.632812 162.074219 53.898438 172.460938 60.183594 185.390625 C 66.46875 198.324219 66.074219 215.71875 53.554688 224.183594 C 43.496094 230.96875 29.148438 229.8125 18.378906 235.609375 C 5.214844 242.691406 0.828125 258.609375 3.441406 272.253906 C 8.542969 298.855469 34.941406 318.796875 63.4375 326.789062 C 91.933594 334.785156 122.5 333.132812 152.277344 331.378906 C 206.011719 328.195312 314.519531 316.203125 314.519531 316.203125 Z M 314.519531 316.203125 " fill-opacity="1" fill-rule="nonzero"/><g clip-path="url(#6cefc96199)"><path fill="#d6daee" d="M 371.191406 328.371094 C 371.191406 328.878906 371.117188 329.386719 370.976562 329.894531 C 370.832031 330.402344 370.621094 330.910156 370.335938 331.417969 C 370.050781 331.921875 369.695312 332.429688 369.265625 332.933594 C 368.839844 333.433594 368.34375 333.9375 367.777344 334.433594 C 367.210938 334.933594 366.574219 335.429688 365.867188 335.925781 C 365.160156 336.417969 364.382812 336.910156 363.539062 337.394531 C 362.695312 337.882812 361.785156 338.363281 360.804688 338.84375 C 359.824219 339.324219 358.78125 339.796875 357.667969 340.269531 C 356.554688 340.738281 355.375 341.203125 354.132812 341.664062 C 352.890625 342.125 351.582031 342.578125 350.214844 343.027344 C 348.84375 343.476562 347.410156 343.917969 345.914062 344.355469 C 344.421875 344.789062 342.867188 345.21875 341.25 345.644531 C 339.636719 346.066406 337.960938 346.484375 336.230469 346.890625 C 334.496094 347.300781 332.710938 347.699219 330.867188 348.09375 C 329.019531 348.488281 327.121094 348.871094 325.167969 349.25 C 323.21875 349.628906 321.214844 349.996094 319.15625 350.355469 C 317.101562 350.714844 314.996094 351.066406 312.84375 351.40625 C 310.6875 351.75 308.488281 352.082031 306.238281 352.40625 C 303.992188 352.726562 301.699219 353.039062 299.367188 353.34375 C 297.03125 353.648438 294.652344 353.9375 292.238281 354.222656 C 289.820312 354.503906 287.363281 354.777344 284.871094 355.039062 C 282.375 355.300781 279.847656 355.550781 277.285156 355.789062 C 274.71875 356.03125 272.121094 356.257812 269.496094 356.476562 C 266.867188 356.695312 264.210938 356.902344 261.523438 357.09375 C 258.835938 357.289062 256.125 357.472656 253.386719 357.644531 C 250.652344 357.816406 247.890625 357.976562 245.109375 358.125 C 242.328125 358.269531 239.523438 358.40625 236.703125 358.53125 C 233.882812 358.652344 231.046875 358.765625 228.195312 358.863281 C 225.34375 358.964844 222.480469 359.050781 219.605469 359.125 C 216.730469 359.199219 213.84375 359.261719 210.953125 359.3125 C 208.058594 359.363281 205.160156 359.398438 202.257812 359.425781 C 199.351562 359.449219 196.445312 359.460938 193.539062 359.460938 C 190.632812 359.460938 187.726562 359.449219 184.824219 359.425781 C 181.917969 359.398438 179.019531 359.363281 176.125 359.3125 C 173.234375 359.261719 170.347656 359.199219 167.472656 359.125 C 164.597656 359.050781 161.734375 358.964844 158.882812 358.863281 C 156.03125 358.765625 153.195312 358.652344 150.375 358.53125 C 147.554688 358.40625 144.753906 358.269531 141.96875 358.125 C 139.1875 357.976562 136.429688 357.816406 133.691406 357.644531 C 130.953125 357.472656 128.242188 357.289062 125.554688 357.09375 C 122.867188 356.902344 120.210938 356.695312 117.582031 356.476562 C 114.957031 356.257812 112.359375 356.03125 109.796875 355.789062 C 107.230469 355.550781 104.703125 355.300781 102.207031 355.039062 C 99.714844 354.777344 97.257812 354.503906 94.839844 354.222656 C 92.425781 353.9375 90.046875 353.648438 87.710938 353.34375 C 85.378906 353.039062 83.085938 352.726562 80.839844 352.40625 C 78.589844 352.082031 76.390625 351.75 74.234375 351.40625 C 72.082031 351.066406 69.976562 350.714844 67.921875 350.355469 C 65.863281 349.996094 63.859375 349.628906 61.910156 349.25 C 59.957031 348.871094 58.058594 348.488281 56.214844 348.09375 C 54.367188 347.699219 52.582031 347.300781 50.847656 346.890625 C 49.117188 346.484375 47.441406 346.066406 45.828125 345.644531 C 44.210938 345.21875 42.65625 344.789062 41.164062 344.355469 C 39.667969 343.917969 38.234375 343.476562 36.863281 343.027344 C 35.496094 342.578125 34.1875 342.125 32.945312 341.664062 C 31.703125 341.203125 30.523438 340.738281 29.410156 340.269531 C 28.296875 339.796875 27.253906 339.324219 26.273438 338.84375 C 25.292969 338.363281 24.382812 337.882812 23.539062 337.394531 C 22.695312 336.910156 21.917969 336.417969 21.210938 335.925781 C 20.503906 335.429688 19.867188 334.933594 19.300781 334.433594 C 18.734375 333.9375 18.238281 333.433594 17.8125 332.933594 C 17.382812 332.429688 17.027344 331.921875 16.742188 331.417969 C 16.457031 330.910156 16.246094 330.402344 16.101562 329.894531 C 15.960938 329.386719 15.886719 328.878906 15.886719 328.371094 C 15.886719 327.859375 15.960938 327.351562 16.101562 326.84375 C 16.246094 326.335938 16.457031 325.828125 16.742188 325.320312 C 17.027344 324.816406 17.382812 324.3125 17.8125 323.808594 C 18.238281 323.304688 18.734375 322.800781 19.300781 322.304688 C 19.867188 321.804688 20.503906 321.308594 21.210938 320.816406 C 21.917969 320.320312 22.695312 319.832031 23.539062 319.34375 C 24.382812 318.855469 25.292969 318.375 26.273438 317.894531 C 27.253906 317.414062 28.296875 316.941406 29.410156 316.472656 C 30.523438 316 31.703125 315.535156 32.945312 315.074219 C 34.1875 314.617188 35.496094 314.160156 36.863281 313.710938 C 38.234375 313.265625 39.667969 312.820312 41.164062 312.382812 C 42.65625 311.949219 44.210938 311.519531 45.828125 311.09375 C 47.441406 310.671875 49.117188 310.257812 50.847656 309.847656 C 52.582031 309.4375 54.367188 309.039062 56.214844 308.644531 C 58.058594 308.25 59.957031 307.867188 61.910156 307.488281 C 63.859375 307.113281 65.863281 306.742188 67.921875 306.382812 C 69.976562 306.023438 72.082031 305.671875 74.234375 305.332031 C 76.390625 304.988281 78.589844 304.65625 80.839844 304.335938 C 83.085938 304.011719 85.378906 303.699219 87.710938 303.394531 C 90.046875 303.09375 92.425781 302.800781 94.839844 302.515625 C 97.257812 302.234375 99.714844 301.960938 102.207031 301.699219 C 104.703125 301.4375 107.230469 301.1875 109.796875 300.949219 C 112.359375 300.707031 114.957031 300.480469 117.582031 300.261719 C 120.210938 300.042969 122.867188 299.839844 125.554688 299.644531 C 128.242188 299.449219 130.953125 299.265625 133.691406 299.09375 C 136.429688 298.921875 139.1875 298.761719 141.96875 298.617188 C 144.753906 298.46875 147.554688 298.332031 150.375 298.207031 C 153.195312 298.085938 156.03125 297.972656 158.882812 297.875 C 161.734375 297.773438 164.597656 297.6875 167.472656 297.613281 C 170.347656 297.539062 173.234375 297.476562 176.125 297.425781 C 179.019531 297.375 181.917969 297.339844 184.824219 297.3125 C 187.726562 297.289062 190.632812 297.277344 193.539062 297.277344 C 196.445312 297.277344 199.351562 297.289062 202.257812 297.3125 C 205.160156 297.339844 208.058594 297.375 210.953125 297.425781 C 213.84375 297.476562 216.730469 297.539062 219.605469 297.613281 C 222.480469 297.6875 225.34375 297.773438 228.195312 297.875 C 231.046875 297.972656 233.882812 298.085938 236.703125 298.207031 C 239.523438 298.332031 242.328125 298.46875 245.109375 298.617188 C 247.890625 298.761719 250.652344 298.921875 253.386719 299.09375 C 256.125 299.265625 258.835938 299.449219 261.523438 299.644531 C 264.210938 299.839844 266.867188 300.042969 269.496094 300.261719 C 272.121094 300.480469 274.71875 300.707031 277.285156 300.949219 C 279.847656 301.1875 282.375 301.4375 284.871094 301.699219 C 287.363281 301.960938 289.820312 302.234375 292.238281 302.515625 C 294.652344 302.800781 297.03125 303.09375 299.367188 303.394531 C 301.699219 303.699219 303.992188 304.011719 306.238281 304.335938 C 308.488281 304.65625 310.6875 304.988281 312.84375 305.332031 C 314.996094 305.671875 317.101562 306.023438 319.15625 306.382812 C 321.214844 306.742188 323.21875 307.113281 325.167969 307.488281 C 327.121094 307.867188 329.019531 308.25 330.867188 308.644531 C 332.710938 309.039062 334.496094 309.4375 336.230469 309.847656 C 337.960938 310.257812 339.636719 310.671875 341.25 311.09375 C 342.867188 311.519531 344.421875 311.949219 345.914062 312.382812 C 347.410156 312.820312 348.84375 313.265625 350.214844 313.710938 C 351.582031 314.160156 352.890625 314.617188 354.132812 315.074219 C 355.375 315.535156 356.554688 316 357.667969 316.472656 C 358.78125 316.941406 359.824219 317.414062 360.804688 317.894531 C 361.785156 318.375 362.695312 318.855469 363.539062 319.34375 C 364.382812 319.832031 365.160156 320.320312 365.867188 320.816406 C 366.574219 321.308594 367.210938 321.804688 367.777344 322.304688 C 368.34375 322.800781 368.839844 323.304688 369.265625 323.808594 C 369.695312 324.3125 370.050781 324.816406 370.335938 325.320312 C 370.621094 325.828125 370.832031 326.335938 370.976562 326.84375 C 371.117188 327.351562 371.191406 327.859375 371.191406 328.371094 Z M 371.191406 328.371094 " fill-opacity="1" fill-rule="nonzero"/></g><path fill="#c2c6d7" d="M 227.480469 306.605469 C 227.480469 306.777344 227.386719 306.945312 227.199219 307.117188 C 227.011719 307.289062 226.730469 307.457031 226.359375 307.625 C 225.984375 307.792969 225.519531 307.960938 224.964844 308.125 C 224.410156 308.289062 223.765625 308.449219 223.03125 308.605469 C 222.296875 308.765625 221.480469 308.917969 220.578125 309.070312 C 219.675781 309.222656 218.691406 309.367188 217.628906 309.511719 C 216.5625 309.652344 215.425781 309.789062 214.210938 309.921875 C 212.996094 310.054688 211.710938 310.183594 210.355469 310.304688 C 209.003906 310.425781 207.585938 310.539062 206.105469 310.648438 C 204.625 310.757812 203.089844 310.859375 201.496094 310.953125 C 199.902344 311.050781 198.265625 311.136719 196.574219 311.21875 C 194.886719 311.300781 193.15625 311.371094 191.386719 311.4375 C 189.617188 311.503906 187.816406 311.5625 185.984375 311.609375 C 184.152344 311.660156 182.296875 311.703125 180.417969 311.734375 C 178.542969 311.769531 176.648438 311.792969 174.742188 311.8125 C 172.839844 311.828125 170.925781 311.835938 169.011719 311.835938 C 167.097656 311.835938 165.1875 311.828125 163.28125 311.8125 C 161.375 311.792969 159.484375 311.769531 157.605469 311.734375 C 155.726562 311.703125 153.871094 311.660156 152.039062 311.609375 C 150.207031 311.5625 148.40625 311.503906 146.636719 311.4375 C 144.867188 311.371094 143.140625 311.300781 141.449219 311.21875 C 139.761719 311.136719 138.121094 311.050781 136.527344 310.953125 C 134.9375 310.859375 133.398438 310.757812 131.921875 310.648438 C 130.441406 310.539062 129.023438 310.425781 127.667969 310.304688 C 126.316406 310.183594 125.03125 310.054688 123.816406 309.921875 C 122.601562 309.789062 121.460938 309.652344 120.398438 309.511719 C 119.332031 309.367188 118.351562 309.222656 117.449219 309.070312 C 116.542969 308.917969 115.726562 308.765625 114.992188 308.605469 C 114.261719 308.449219 113.617188 308.289062 113.0625 308.125 C 112.503906 307.960938 112.039062 307.792969 111.667969 307.625 C 111.292969 307.457031 111.011719 307.289062 110.824219 307.117188 C 110.636719 306.945312 110.542969 306.777344 110.542969 306.605469 C 110.542969 306.433594 110.636719 306.261719 110.824219 306.09375 C 111.011719 305.921875 111.292969 305.753906 111.667969 305.585938 C 112.039062 305.414062 112.503906 305.25 113.0625 305.085938 C 113.617188 304.921875 114.261719 304.761719 114.992188 304.601562 C 115.726562 304.445312 116.542969 304.289062 117.449219 304.136719 C 118.351562 303.988281 119.332031 303.839844 120.398438 303.699219 C 121.460938 303.554688 122.601562 303.417969 123.816406 303.285156 C 125.03125 303.152344 126.316406 303.027344 127.667969 302.90625 C 129.023438 302.785156 130.441406 302.667969 131.921875 302.5625 C 133.398438 302.453125 134.9375 302.351562 136.527344 302.253906 C 138.121094 302.160156 139.761719 302.070312 141.449219 301.992188 C 143.140625 301.910156 144.867188 301.835938 146.636719 301.769531 C 148.40625 301.707031 150.207031 301.648438 152.039062 301.597656 C 153.871094 301.546875 155.726562 301.507812 157.605469 301.472656 C 159.484375 301.441406 161.375 301.414062 163.28125 301.398438 C 165.1875 301.382812 167.097656 301.375 169.011719 301.375 C 170.925781 301.375 172.839844 301.382812 174.742188 301.398438 C 176.648438 301.414062 178.542969 301.441406 180.417969 301.472656 C 182.296875 301.507812 184.152344 301.546875 185.984375 301.597656 C 187.816406 301.648438 189.617188 301.707031 191.386719 301.769531 C 193.15625 301.835938 194.886719 301.910156 196.574219 301.992188 C 198.265625 302.070312 199.902344 302.160156 201.496094 302.253906 C 203.089844 302.351562 204.625 302.453125 206.105469 302.5625 C 207.585938 302.667969 209.003906 302.785156 210.355469 302.90625 C 211.710938 303.027344 212.996094 303.152344 214.210938 303.285156 C 215.425781 303.417969 216.5625 303.554688 217.628906 303.699219 C 218.691406 303.839844 219.675781 303.988281 220.578125 304.136719 C 221.480469 304.289062 222.296875 304.445312 223.03125 304.601562 C 223.765625 304.761719 224.410156 304.921875 224.964844 305.085938 C 225.519531 305.25 225.984375 305.414062 226.359375 305.585938 C 226.730469 305.753906 227.011719 305.921875 227.199219 306.09375 C 227.386719 306.261719 227.480469 306.433594 227.480469 306.605469 Z M 227.480469 306.605469 " fill-opacity="1" fill-rule="nonzero"/><path fill="#c2c6d7" d="M 111.578125 314.921875 C 111.578125 315.074219 111.523438 315.226562 111.414062 315.378906 C 111.308594 315.53125 111.144531 315.679688 110.929688 315.832031 C 110.710938 315.980469 110.445312 316.128906 110.121094 316.273438 C 109.800781 316.421875 109.429688 316.5625 109.003906 316.707031 C 108.582031 316.847656 108.105469 316.984375 107.585938 317.121094 C 107.0625 317.253906 106.496094 317.386719 105.878906 317.511719 C 105.261719 317.640625 104.605469 317.761719 103.902344 317.878906 C 103.199219 317.996094 102.457031 318.109375 101.671875 318.21875 C 100.890625 318.328125 100.070312 318.429688 99.214844 318.527344 C 98.359375 318.621094 97.46875 318.714844 96.546875 318.796875 C 95.628906 318.882812 94.679688 318.960938 93.703125 319.035156 C 92.726562 319.105469 91.726562 319.171875 90.703125 319.230469 C 89.679688 319.289062 88.636719 319.339844 87.578125 319.382812 C 86.515625 319.429688 85.441406 319.464844 84.355469 319.496094 C 83.269531 319.523438 82.175781 319.546875 81.074219 319.5625 C 79.972656 319.578125 78.867188 319.585938 77.757812 319.585938 C 76.652344 319.585938 75.546875 319.578125 74.445312 319.5625 C 73.34375 319.546875 72.246094 319.523438 71.160156 319.496094 C 70.074219 319.464844 69 319.429688 67.941406 319.382812 C 66.882812 319.339844 65.839844 319.289062 64.816406 319.230469 C 63.792969 319.171875 62.792969 319.105469 61.816406 319.035156 C 60.839844 318.960938 59.890625 318.882812 58.96875 318.796875 C 58.050781 318.714844 57.160156 318.621094 56.304688 318.527344 C 55.449219 318.429688 54.628906 318.328125 53.84375 318.21875 C 53.0625 318.109375 52.320312 317.996094 51.617188 317.878906 C 50.914062 317.761719 50.253906 317.640625 49.640625 317.511719 C 49.023438 317.386719 48.457031 317.253906 47.933594 317.121094 C 47.410156 316.984375 46.9375 316.847656 46.515625 316.707031 C 46.089844 316.5625 45.71875 316.421875 45.394531 316.273438 C 45.074219 316.128906 44.804688 315.980469 44.589844 315.832031 C 44.375 315.679688 44.210938 315.53125 44.101562 315.378906 C 43.992188 315.226562 43.941406 315.074219 43.941406 314.921875 C 43.941406 314.769531 43.992188 314.617188 44.101562 314.464844 C 44.210938 314.3125 44.375 314.160156 44.589844 314.011719 C 44.804688 313.859375 45.074219 313.714844 45.394531 313.566406 C 45.71875 313.421875 46.089844 313.277344 46.515625 313.136719 C 46.9375 312.996094 47.410156 312.855469 47.933594 312.722656 C 48.457031 312.585938 49.023438 312.457031 49.640625 312.328125 C 50.253906 312.203125 50.914062 312.078125 51.617188 311.960938 C 52.320312 311.84375 53.0625 311.730469 53.84375 311.621094 C 54.628906 311.515625 55.449219 311.414062 56.304688 311.316406 C 57.160156 311.21875 58.050781 311.128906 58.96875 311.042969 C 59.890625 310.957031 60.839844 310.878906 61.816406 310.808594 C 62.792969 310.734375 63.792969 310.671875 64.816406 310.613281 C 65.839844 310.554688 66.882812 310.503906 67.941406 310.457031 C 69 310.414062 70.074219 310.375 71.160156 310.347656 C 72.246094 310.316406 73.34375 310.292969 74.445312 310.277344 C 75.546875 310.265625 76.652344 310.257812 77.757812 310.257812 C 78.867188 310.257812 79.972656 310.265625 81.074219 310.277344 C 82.175781 310.292969 83.269531 310.316406 84.355469 310.347656 C 85.441406 310.375 86.515625 310.414062 87.578125 310.457031 C 88.636719 310.5 89.679688 310.554688 90.703125 310.613281 C 91.726562 310.671875 92.726562 310.734375 93.703125 310.808594 C 94.679688 310.878906 95.628906 310.957031 96.546875 311.042969 C 97.46875 311.128906 98.359375 311.21875 99.214844 311.316406 C 100.070312 311.414062 100.890625 311.515625 101.671875 311.621094 C 102.457031 311.730469 103.199219 311.84375 103.902344 311.960938 C 104.605469 312.078125 105.261719 312.203125 105.878906 312.328125 C 106.496094 312.457031 107.0625 312.585938 107.585938 312.722656 C 108.105469 312.855469 108.582031 312.996094 109.003906 313.136719 C 109.429688 313.277344 109.800781 313.421875 110.121094 313.566406 C 110.445312 313.714844 110.710938 313.859375 110.929688 314.011719 C 111.144531 314.160156 111.308594 314.3125 111.414062 314.464844 C 111.523438 314.617188 111.578125 314.769531 111.578125 314.921875 Z M 111.578125 314.921875 " fill-opacity="1" fill-rule="nonzero"/><path fill="#c2c6d7" d="M 341.066406 337.054688 C 341.066406 343.273438 305.449219 348.332031 261.5 348.332031 C 217.546875 348.332031 181.929688 343.300781 181.929688 337.054688 C 181.929688 330.835938 217.546875 325.777344 261.5 325.777344 C 305.449219 325.804688 341.066406 330.835938 341.066406 337.054688 Z M 341.066406 337.054688 " fill-opacity="1" fill-rule="nonzero"/><g clip-path="url(#587beac534)"><path fill="#c2c6d7" d="M 343.855469 311.785156 C 351.027344 330.023438 334.460938 355.441406 191.765625 355.441406 C 27.03125 355.441406 33.265625 326.59375 49.140625 310.257812 C 28.238281 315.363281 15.914062 321.609375 15.914062 328.371094 C 15.914062 345.542969 95.457031 359.460938 193.5625 359.460938 C 291.671875 359.460938 371.214844 345.542969 371.214844 328.371094 C 371.191406 322.273438 361.15625 316.597656 343.855469 311.785156 Z M 343.855469 311.785156 " fill-opacity="1" fill-rule="nonzero"/></g><path fill="#556ab1" d="M 250.726562 179.371094 L 67.503906 179.371094 C 65.359375 179.371094 63.585938 177.621094 63.585938 175.449219 L 63.585938 56.507812 C 63.585938 54.359375 65.335938 52.582031 67.503906 52.582031 L 250.726562 52.582031 C 252.871094 52.582031 254.644531 54.335938 254.644531 56.507812 L 254.644531 175.449219 C 254.644531 177.621094 252.871094 179.371094 250.726562 179.371094 Z M 250.726562 179.371094 " fill-opacity="1" fill-rule="nonzero"/><path fill="#c8e5f0" d="M 66.371094 65.734375 L 251.859375 65.734375 L 251.859375 155.285156 L 66.371094 155.285156 Z M 66.371094 65.734375 " fill-opacity="1" fill-rule="nonzero"/><path fill="#f37942" d="M 79.632812 59.34375 C 79.632812 61.171875 78.152344 62.652344 76.328125 62.652344 C 74.503906 62.652344 73.027344 61.171875 73.027344 59.34375 C 73.027344 57.519531 74.503906 56.039062 76.328125 56.039062 C 78.152344 56.011719 79.632812 57.492188 79.632812 59.34375 Z M 79.632812 59.34375 " fill-opacity="1" fill-rule="nonzero"/><path fill="#ddd273" d="M 91.019531 59.34375 C 91.019531 61.171875 89.542969 62.652344 87.71875 62.652344 C 85.894531 62.652344 84.414062 61.171875 84.414062 59.34375 C 84.414062 57.519531 85.894531 56.039062 87.71875 56.039062 C 89.515625 56.011719 91.019531 57.492188 91.019531 59.34375 Z M 91.019531 59.34375 " fill-opacity="1" fill-rule="nonzero"/><path fill="#96d2be" d="M 102.382812 59.34375 C 102.382812 61.171875 100.90625 62.652344 99.082031 62.652344 C 97.257812 62.652344 95.777344 61.171875 95.777344 59.34375 C 95.777344 57.519531 97.257812 56.039062 99.082031 56.039062 C 100.90625 56.011719 102.382812 57.492188 102.382812 59.34375 Z M 102.382812 59.34375 " fill-opacity="1" fill-rule="nonzero"/><path fill="#d0d2d3" d="M 242.9375 176.78125 L 75.320312 176.78125 C 70.390625 176.78125 66.371094 172.78125 66.371094 167.824219 L 66.371094 157.878906 L 251.859375 157.878906 L 251.859375 167.824219 C 251.859375 172.757812 247.867188 176.78125 242.9375 176.78125 Z M 242.9375 176.78125 " fill-opacity="1" fill-rule="nonzero"/><path fill="#96d2be" d="M 176.652344 167.304688 C 176.652344 171.523438 173.226562 174.953125 169.011719 174.953125 C 164.796875 174.953125 161.371094 171.523438 161.371094 167.304688 C 161.371094 163.085938 164.796875 159.65625 169.011719 159.65625 C 173.226562 159.65625 176.652344 163.085938 176.652344 167.304688 Z M 176.652344 167.304688 " fill-opacity="1" fill-rule="evenodd"/><path fill="#f1f1f2" d="M 172.414062 169.277344 C 172.4375 169.378906 172.390625 169.476562 172.316406 169.574219 L 171.355469 170.539062 C 171.304688 170.585938 171.253906 170.636719 171.183594 170.660156 C 171.109375 170.683594 171.035156 170.710938 170.984375 170.734375 C 170.984375 170.734375 170.960938 170.734375 170.933594 170.734375 C 170.910156 170.734375 170.886719 170.734375 170.835938 170.734375 C 170.738281 170.734375 170.589844 170.710938 170.394531 170.683594 C 170.195312 170.660156 169.949219 170.585938 169.652344 170.464844 C 169.359375 170.339844 169.011719 170.167969 168.644531 169.921875 C 168.273438 169.671875 167.878906 169.328125 167.460938 168.910156 C 167.113281 168.585938 166.84375 168.265625 166.621094 167.945312 C 166.398438 167.648438 166.226562 167.355469 166.078125 167.105469 C 165.957031 166.859375 165.832031 166.613281 165.785156 166.417969 C 165.710938 166.21875 165.660156 166.019531 165.636719 165.875 C 165.609375 165.726562 165.609375 165.601562 165.609375 165.527344 C 165.609375 165.429688 165.609375 165.40625 165.609375 165.378906 C 165.609375 165.304688 165.636719 165.257812 165.683594 165.183594 C 165.710938 165.109375 165.757812 165.058594 165.808594 165.007812 L 166.769531 164.046875 C 166.84375 163.972656 166.917969 163.949219 166.992188 163.949219 C 167.066406 163.949219 167.113281 163.972656 167.164062 163.996094 C 167.214844 164.023438 167.261719 164.070312 167.289062 164.121094 L 168.050781 165.578125 C 168.101562 165.652344 168.101562 165.75 168.074219 165.824219 C 168.050781 165.921875 168.027344 165.996094 167.953125 166.046875 L 167.609375 166.390625 C 167.609375 166.390625 167.582031 166.417969 167.582031 166.441406 C 167.582031 166.464844 167.582031 166.488281 167.582031 166.488281 C 167.609375 166.589844 167.65625 166.710938 167.707031 166.835938 C 167.753906 166.960938 167.855469 167.082031 167.976562 167.253906 C 168.101562 167.429688 168.273438 167.601562 168.496094 167.824219 C 168.71875 168.042969 168.914062 168.21875 169.0625 168.339844 C 169.234375 168.464844 169.359375 168.5625 169.480469 168.613281 C 169.605469 168.660156 169.679688 168.710938 169.753906 168.710938 L 169.851562 168.734375 C 169.851562 168.734375 169.875 168.734375 169.898438 168.734375 C 169.925781 168.734375 169.949219 168.710938 169.949219 168.710938 L 170.367188 168.292969 C 170.46875 168.21875 170.566406 168.167969 170.664062 168.167969 C 170.738281 168.167969 170.8125 168.191406 170.863281 168.21875 L 172.242188 169.03125 C 172.316406 169.105469 172.390625 169.179688 172.414062 169.277344 Z M 172.414062 169.277344 " fill-opacity="1" fill-rule="nonzero"/><path fill="#f37942" d="M 143.722656 172.609375 C 140.789062 169.574219 140.886719 164.738281 143.917969 161.800781 C 146.949219 158.863281 151.78125 158.964844 154.714844 162 C 157.648438 165.035156 157.550781 169.871094 154.519531 172.808594 C 151.488281 175.742188 146.65625 175.671875 143.722656 172.609375 Z M 143.722656 172.609375 " fill-opacity="1" fill-rule="evenodd"/><path fill="#f1f1f2" d="M 145.421875 168.808594 C 145.324219 168.734375 145.300781 168.636719 145.300781 168.539062 L 145.324219 167.179688 C 145.324219 167.105469 145.324219 167.058594 145.347656 166.984375 C 145.375 166.910156 145.398438 166.859375 145.449219 166.785156 C 145.449219 166.785156 145.472656 166.761719 145.472656 166.761719 C 145.496094 166.738281 145.519531 166.710938 145.546875 166.6875 C 145.621094 166.613281 145.71875 166.539062 145.890625 166.417969 C 146.0625 166.292969 146.285156 166.167969 146.582031 166.070312 C 146.878906 165.949219 147.246094 165.847656 147.691406 165.773438 C 148.132812 165.699219 148.652344 165.652344 149.242188 165.675781 C 149.710938 165.675781 150.132812 165.726562 150.5 165.773438 C 150.871094 165.847656 151.191406 165.921875 151.460938 165.996094 C 151.734375 166.09375 151.980469 166.195312 152.152344 166.292969 C 152.347656 166.390625 152.496094 166.488281 152.621094 166.589844 C 152.742188 166.6875 152.84375 166.761719 152.890625 166.835938 C 152.941406 166.910156 152.992188 166.933594 152.992188 166.933594 C 153.039062 166.984375 153.0625 167.058594 153.089844 167.132812 C 153.113281 167.207031 153.113281 167.28125 153.113281 167.328125 L 153.089844 168.6875 C 153.089844 168.785156 153.0625 168.859375 152.992188 168.910156 C 152.941406 168.957031 152.890625 168.984375 152.84375 168.984375 C 152.792969 168.984375 152.71875 168.984375 152.667969 168.984375 L 151.140625 168.441406 C 151.066406 168.414062 150.992188 168.367188 150.945312 168.292969 C 150.894531 168.21875 150.871094 168.117188 150.871094 168.042969 L 150.871094 167.550781 C 150.871094 167.527344 150.871094 167.527344 150.847656 167.5 C 150.847656 167.476562 150.820312 167.476562 150.820312 167.453125 C 150.746094 167.402344 150.625 167.328125 150.476562 167.304688 C 150.351562 167.253906 150.203125 167.230469 149.984375 167.179688 C 149.785156 167.15625 149.515625 167.132812 149.21875 167.132812 C 148.898438 167.132812 148.652344 167.132812 148.453125 167.15625 C 148.257812 167.179688 148.085938 167.207031 147.960938 167.253906 C 147.839844 167.28125 147.765625 167.328125 147.714844 167.355469 L 147.640625 167.402344 C 147.640625 167.402344 147.617188 167.429688 147.617188 167.453125 C 147.617188 167.476562 147.59375 167.476562 147.59375 167.5 L 147.59375 168.09375 C 147.59375 168.21875 147.542969 168.316406 147.445312 168.390625 C 147.394531 168.441406 147.320312 168.488281 147.273438 168.488281 L 145.71875 168.835938 C 145.59375 168.859375 145.496094 168.859375 145.421875 168.808594 Z M 145.421875 168.808594 " fill-opacity="1" fill-rule="nonzero"/><path fill="#610c1d" d="M 157.746094 49.300781 C 157.746094 49.300781 128.539062 45.597656 130.1875 72.078125 C 131.445312 87.007812 118.332031 97.914062 125.925781 102.847656 C 133.515625 107.808594 138.027344 101.613281 143.945312 100.675781 C 149.882812 99.738281 158.855469 98.53125 165.390625 101.394531 C 171.921875 104.230469 181.832031 99.988281 177.195312 94.039062 C 172.5625 88.09375 173.03125 82.960938 172.757812 78.222656 C 172.488281 73.457031 175.570312 52.0625 157.746094 49.300781 Z M 157.746094 49.300781 " fill-opacity="1" fill-rule="nonzero"/><path fill="#f5917f" d="M 145.769531 94.582031 C 145.769531 94.582031 147.296875 101.144531 144.066406 105.808594 C 140.839844 110.472656 151.78125 148.402344 161.148438 147.6875 C 170.515625 146.972656 168.148438 107.070312 165.660156 105.761719 C 163.171875 104.453125 160.335938 103.195312 159.523438 98.679688 C 158.734375 94.164062 150.304688 87.722656 145.769531 94.582031 Z M 145.769531 94.582031 " fill-opacity="1" fill-rule="nonzero"/><path fill="#e05527" d="M 161 102.699219 C 161.074219 102.699219 161.148438 102.675781 161.246094 102.652344 C 160.78125 102.058594 160.386719 101.394531 160.113281 100.675781 C 159.570312 99.195312 159.351562 97.59375 159.003906 96.0625 C 158.710938 94.855469 158.636719 92.707031 157.527344 91.867188 C 156.441406 91.054688 154.394531 91.347656 153.136719 91.300781 C 150.671875 91.25 148.207031 91.347656 145.769531 91.570312 C 145.546875 91.597656 145.347656 91.746094 145.375 91.964844 C 145.472656 93.867188 145.867188 95.691406 146.136719 97.566406 C 146.234375 98.160156 146.234375 98.753906 146.234375 99.34375 C 150.378906 102.28125 156.171875 103.21875 161 102.699219 Z M 161 102.699219 " fill-opacity="1" fill-rule="nonzero"/><path fill="#c8e5f0" d="M 143.5 111.511719 C 156.886719 118 168.46875 110.722656 168.46875 110.722656 C 168.46875 110.722656 175.667969 146.945312 161.175781 147.6875 C 147.34375 148.402344 145.25 120 143.5 111.511719 Z M 143.5 111.511719 " fill-opacity="1" fill-rule="nonzero"/><path fill="#faaf40" d="M 144.066406 105.808594 C 133.714844 111.363281 120.921875 109.683594 121.390625 124.167969 C 121.882812 138.65625 123.535156 155.285156 123.535156 155.285156 L 133.738281 155.285156 L 133.738281 135.816406 C 133.738281 135.816406 140.617188 151.019531 138.621094 155.285156 C 146.457031 155.285156 174.855469 155.285156 174.855469 155.285156 C 174.855469 155.285156 173.5 143.171875 178.429688 136.0625 C 179.539062 144.378906 181.4375 155.285156 181.4375 155.285156 L 190.457031 155.285156 C 190.457031 155.285156 190.164062 109.734375 178.847656 108.007812 C 167.535156 106.277344 164.082031 105.019531 164.082031 105.019531 C 164.082031 105.019531 166.941406 127.96875 161.273438 142.824219 C 157.671875 131.769531 146.335938 108.105469 144.066406 105.808594 Z M 144.066406 105.808594 " fill-opacity="1" fill-rule="nonzero"/><path fill="#e5962a" d="M 172.980469 127.722656 L 173.351562 127.96875 L 161.246094 142.800781 Z M 172.980469 127.722656 " fill-opacity="1" fill-rule="nonzero"/><path fill="#fcbb65" d="M 140.46875 107.4375 L 140.46875 122.171875 L 149.417969 123.847656 L 144.929688 131.84375 L 161.222656 142.777344 C 161.222656 142.777344 150.230469 114.152344 144.066406 105.785156 C 140.46875 107.4375 140.46875 107.4375 140.46875 107.4375 Z M 140.46875 107.4375 " fill-opacity="1" fill-rule="nonzero"/><path fill="#fcbb65" d="M 164.058594 104.996094 C 164.058594 104.996094 165.980469 131.203125 161.246094 142.800781 C 167.089844 134.65625 173.472656 127.128906 173.472656 127.128906 L 167.535156 122.613281 L 174.535156 119.628906 L 168.839844 106.203125 Z M 164.058594 104.996094 " fill-opacity="1" fill-rule="nonzero"/><path fill="#e5962a" d="M 124.816406 114.175781 C 124.816406 114.175781 123.289062 117.285156 123.535156 122.515625 C 123.78125 127.746094 126.148438 155.285156 126.148438 155.285156 L 123.535156 155.285156 C 123.535156 155.285156 121.5625 129.15625 121.464844 126.070312 C 121.390625 122.984375 121.214844 117.359375 124.816406 114.175781 Z M 124.816406 114.175781 " fill-opacity="1" fill-rule="nonzero"/><path fill="#e5962a" d="M 133.738281 135.816406 C 133.738281 135.816406 143.128906 144.132812 144.191406 155.285156 C 140.492188 155.285156 138.621094 155.285156 138.621094 155.285156 C 138.621094 155.285156 139.480469 150.695312 137.683594 146.625 C 136.203125 143.246094 133.738281 135.816406 133.738281 135.816406 Z M 133.738281 135.816406 " fill-opacity="1" fill-rule="nonzero"/><path fill="#e5962a" d="M 178.402344 136.039062 C 178.402344 136.039062 179.292969 134.855469 180.007812 131.992188 C 182.027344 143.984375 184.050781 155.261719 184.050781 155.261719 L 181.4375 155.261719 Z M 178.402344 136.039062 " fill-opacity="1" fill-rule="nonzero"/><path fill="#e5962a" d="M 140.46875 107.4375 L 139.679688 123.898438 L 147.960938 124.292969 L 144.164062 132.410156 L 161.246094 142.800781 L 144.953125 131.867188 L 149.417969 123.875 L 140.46875 122.195312 Z M 140.46875 107.4375 " fill-opacity="1" fill-rule="nonzero"/><path fill="#e5962a" d="M 173.695312 120 L 174.113281 120.789062 L 168.199219 123.132812 L 167.535156 122.640625 Z M 173.695312 120 " fill-opacity="1" fill-rule="nonzero"/><path fill="#e05527" d="M 177.171875 77.605469 C 177.074219 75.851562 176.902344 72.867188 174.878906 72.175781 C 173.722656 71.78125 172.585938 72.421875 172.488281 73.457031 C 171.722656 74.101562 171.207031 75.210938 171.007812 76.125 C 170.761719 77.210938 170.835938 78.371094 170.960938 79.480469 C 171.109375 80.910156 171.253906 83.007812 171.847656 84.339844 C 172.511719 85.820312 174.113281 85.277344 175.175781 84.441406 C 177.222656 82.859375 177.296875 79.972656 177.171875 77.605469 Z M 177.171875 77.605469 " fill-opacity="1" fill-rule="nonzero"/><path fill="#f5917f" d="M 138.398438 77.652344 C 138.695312 81.40625 139.65625 85.132812 141.304688 88.585938 C 142.414062 90.878906 143.84375 92.953125 145.742188 94.558594 C 145.742188 94.582031 145.742188 94.632812 145.769531 94.65625 C 145.792969 94.679688 145.816406 94.679688 145.84375 94.707031 C 146.015625 94.855469 146.164062 95 146.335938 95.148438 C 146.335938 95.148438 146.359375 95.148438 146.359375 95.148438 C 146.457031 95.199219 146.558594 95.273438 146.628906 95.347656 C 146.628906 95.296875 146.628906 95.273438 146.605469 95.222656 C 148.035156 96.261719 149.664062 97.097656 151.585938 97.59375 C 153.730469 98.160156 156.121094 98.628906 158.363281 98.605469 C 158.363281 98.605469 158.363281 98.628906 158.386719 98.628906 C 158.460938 98.628906 158.535156 98.605469 158.636719 98.605469 C 158.808594 98.605469 158.980469 98.628906 159.175781 98.628906 C 159.175781 98.628906 159.175781 98.605469 159.152344 98.605469 C 160.238281 98.554688 161.296875 98.433594 162.285156 98.035156 C 162.972656 97.863281 163.640625 97.640625 164.28125 97.371094 C 170.640625 94.679688 173.078125 88.5625 173.746094 82.640625 C 174.164062 78.988281 174.015625 75.234375 173.671875 71.582031 C 173.472656 69.339844 173.253906 66.402344 172.292969 63.984375 C 171.945312 62.75 171.453125 61.539062 170.835938 60.378906 C 168.816406 56.628906 165.019531 54.0625 160.753906 52.605469 C 155.949219 50.976562 150.179688 51.398438 145.914062 53.839844 C 143.699219 55.125 141.429688 57.371094 140.394531 59.863281 C 139.605469 61.292969 139.113281 62.921875 138.839844 64.601562 C 138.695312 65.117188 138.570312 65.636719 138.445312 66.179688 C 137.832031 69.089844 137.832031 72.152344 138.199219 75.210938 C 138.226562 76.050781 138.273438 76.863281 138.398438 77.652344 Z M 138.398438 77.652344 " fill-opacity="1" fill-rule="nonzero"/><path fill="#e05527" d="M 138.59375 79.554688 C 138.59375 79.554688 151.929688 71.3125 154.492188 64.425781 C 154.8125 67.191406 154.640625 68.769531 154.59375 70.351562 C 158.414062 67.683594 160.976562 63.167969 161.148438 61.984375 C 161.421875 62.675781 164.675781 65.511719 168.296875 71.953125 C 170.417969 69.980469 170.835938 66.105469 170.835938 66.105469 C 170.835938 66.105469 171.847656 67.117188 172.785156 69.632812 C 173.054688 66.722656 170.835938 63.984375 170.835938 63.984375 L 168.445312 69.683594 C 168.445312 69.683594 164.550781 61.292969 160.679688 59.144531 C 159.101562 63.589844 156.492188 67.535156 156.492188 67.535156 C 156.492188 67.535156 156.8125 62.476562 155.503906 59.6875 C 153.285156 62.652344 143.945312 70.867188 138.59375 79.554688 Z M 138.59375 79.554688 " fill-opacity="1" fill-rule="nonzero"/><path fill="#610c1d" d="M 173.472656 70.375 C 175.398438 66.871094 175.691406 58.703125 171.082031 54.554688 C 167.929688 51.71875 163.144531 49.277344 157.722656 49.277344 C 153.507812 49.277344 149.21875 49.992188 145.546875 52.210938 C 141.40625 54.703125 138.59375 59.195312 137.066406 64.058594 C 135.636719 68.621094 136.054688 75.011719 138.59375 79.53125 C 138.59375 79.53125 151.90625 68.574219 155.554688 60.601562 C 156.390625 65.4375 153.238281 72.867188 155.035156 72.003906 C 158.585938 70.324219 161.125 66.351562 161.742188 60.453125 C 164.722656 64.105469 167.828125 72.175781 169.039062 72.71875 C 170.789062 73.53125 171.871094 67.734375 171.453125 64.921875 C 172.585938 67.019531 172.785156 71.632812 173.472656 70.375 Z M 173.472656 70.375 " fill-opacity="1" fill-rule="nonzero"/><path fill="#faaf40" d="M 137.191406 76.199219 C 137.191406 76.199219 131.839844 52.285156 157.671875 49.277344 C 144.214844 48.191406 137.191406 51.644531 135.734375 59.21875 C 134.058594 67.929688 137.191406 76.199219 137.191406 76.199219 Z M 137.191406 76.199219 " fill-opacity="1" fill-rule="nonzero"/><path fill="#c17f6a" d="M 157.671875 49.300781 C 157.671875 49.300781 173.621094 52.210938 173.472656 70.398438 C 173.820312 69.707031 177.023438 61.960938 172.144531 55.714844 C 167.261719 49.449219 157.671875 49.300781 157.671875 49.300781 Z M 157.671875 49.300781 " fill-opacity="1" fill-rule="nonzero"/><path fill="#610c1d" d="M 154.789062 78.691406 C 154.667969 77.925781 154.421875 76.839844 153.484375 76.691406 C 152.472656 76.542969 152.421875 77.605469 152.398438 78.320312 C 152.398438 78.445312 152.398438 78.617188 152.398438 78.789062 C 152.375 79.132812 152.398438 79.480469 152.449219 79.800781 C 152.523438 80.492188 152.695312 81.15625 153.0625 81.453125 C 153.359375 81.875 153.804688 82.144531 154.296875 81.652344 C 155.0625 80.9375 154.9375 79.628906 154.789062 78.691406 Z M 154.789062 78.691406 " fill-opacity="1" fill-rule="nonzero"/><path fill="#610c1d" d="M 169.652344 77.703125 C 169.578125 76.9375 169.433594 75.828125 168.519531 75.605469 C 167.535156 75.382812 167.410156 76.421875 167.3125 77.160156 C 167.289062 77.285156 167.289062 77.457031 167.261719 77.628906 C 167.214844 77.976562 167.214844 78.320312 167.238281 78.640625 C 167.261719 79.332031 167.386719 80.023438 167.730469 80.34375 C 168.003906 80.789062 168.421875 81.085938 168.9375 80.613281 C 169.753906 79.949219 169.753906 78.640625 169.652344 77.703125 Z M 169.652344 77.703125 " fill-opacity="1" fill-rule="nonzero"/><path fill="#610c1d" d="M 154.640625 72.71875 C 153.136719 71.976562 151.167969 72.816406 150.03125 73.855469 C 149.882812 73.976562 150.082031 74.222656 150.253906 74.101562 C 150.917969 73.605469 151.660156 73.285156 152.496094 73.210938 C 153.1875 73.136719 153.828125 73.3125 154.519531 73.359375 C 154.839844 73.386719 154.9375 72.84375 154.640625 72.71875 Z M 154.640625 72.71875 " fill-opacity="1" fill-rule="nonzero"/><path fill="#610c1d" d="M 171.601562 72.152344 C 170.246094 70.671875 168.199219 71.140625 166.71875 72.125 C 166.523438 72.25 166.71875 72.519531 166.894531 72.421875 C 168.273438 71.683594 169.898438 71.507812 171.007812 72.816406 C 171.378906 73.210938 171.996094 72.570312 171.601562 72.152344 Z M 171.601562 72.152344 " fill-opacity="1" fill-rule="nonzero"/><path fill="#610c1d" d="M 165.339844 82.492188 C 165.242188 82.046875 164.96875 81.625 164.574219 81.378906 C 164.328125 81.207031 164.082031 81.207031 163.835938 81.058594 C 163.070312 80.664062 163.023438 79.824219 163.21875 79.085938 C 163.269531 78.863281 162.949219 78.789062 162.875 79.011719 C 162.652344 79.703125 162.605469 80.664062 163.171875 81.230469 C 163.390625 81.453125 163.664062 81.480469 163.933594 81.625 C 165.242188 82.316406 164.648438 83.578125 163.492188 83.871094 C 163.046875 83.996094 163.195312 84.636719 163.640625 84.636719 C 164.722656 84.636719 165.585938 83.578125 165.339844 82.492188 Z M 165.339844 82.492188 " fill-opacity="1" fill-rule="nonzero"/><path fill="#610c1d" d="M 162.726562 87.351562 C 161.59375 87.351562 160.507812 87.007812 159.496094 86.511719 C 158.660156 86.09375 157.894531 85.453125 157.03125 85.082031 C 157.007812 85.058594 156.984375 85.082031 156.957031 85.082031 C 156.859375 85.007812 156.710938 84.984375 156.589844 85.082031 C 155.726562 85.96875 155.652344 87.992188 155.800781 89.152344 C 155.949219 90.363281 156.613281 91.570312 157.796875 91.992188 C 160.632812 93.027344 162.210938 90.015625 163 87.917969 C 163.023438 87.796875 162.898438 87.351562 162.726562 87.351562 Z M 162.726562 87.351562 " fill-opacity="1" fill-rule="nonzero"/><path fill="#d56aa8" d="M 161.617188 90.558594 C 161.371094 89.867188 160.707031 89.300781 160.089844 88.929688 C 158.757812 88.117188 157.082031 88.019531 155.75 88.683594 C 155.75 88.832031 155.777344 88.980469 155.800781 89.128906 C 155.949219 90.335938 156.613281 91.546875 157.796875 91.964844 C 159.472656 92.609375 160.730469 91.769531 161.617188 90.558594 Z M 161.617188 90.558594 " fill-opacity="1" fill-rule="nonzero"/><path fill="#f5917f" d="M 140.738281 79.035156 C 140.320312 78.371094 139.800781 77.777344 139.1875 77.257812 C 138.078125 75.953125 136.300781 75.828125 134.996094 77.035156 C 133.394531 78.519531 133.566406 80.984375 134.109375 82.910156 C 134.699219 84.910156 135.835938 87.550781 137.929688 88.363281 C 139.582031 89.003906 141.160156 88.265625 141.800781 86.6875 C 143.105469 84.488281 142.339844 81.257812 140.738281 79.035156 Z M 140.738281 79.035156 " fill-opacity="1" fill-rule="nonzero"/><path fill="#e05527" d="M 138.25 80.269531 C 137.535156 79.628906 136.128906 79.011719 135.734375 80.292969 C 135.710938 80.394531 135.882812 80.46875 135.933594 80.367188 C 136.746094 78.714844 138.765625 81.601562 139.0625 82.167969 C 139.160156 82.34375 139.234375 82.515625 139.285156 82.6875 C 138.792969 82.640625 138.324219 82.738281 137.90625 83.007812 C 137.460938 83.28125 136.894531 83.824219 136.917969 84.367188 C 136.941406 84.539062 137.140625 84.613281 137.265625 84.488281 C 137.410156 84.339844 137.460938 84.167969 137.585938 83.996094 C 137.730469 83.773438 137.953125 83.578125 138.175781 83.429688 C 138.546875 83.179688 138.988281 83.082031 139.433594 83.082031 C 139.679688 83.773438 139.851562 84.515625 140.074219 85.230469 C 140.148438 85.5 140.542969 85.351562 140.492188 85.105469 C 140.148438 83.355469 139.582031 81.480469 138.25 80.269531 Z M 138.25 80.269531 " fill-opacity="1" fill-rule="nonzero"/><g clip-path="url(#116f857fc8)"><path fill="#faaf40" d="M 262.410156 62.253906 L 203.25 62.253906 C 192.675781 62.253906 184.023438 53.59375 184.023438 43.007812 L 184.023438 35.183594 C 184.023438 24.597656 192.675781 15.9375 203.25 15.9375 L 262.410156 15.9375 C 272.984375 15.9375 281.636719 24.597656 281.636719 35.183594 L 281.636719 43.03125 C 281.636719 53.617188 272.984375 62.253906 262.410156 62.253906 Z M 262.410156 62.253906 " fill-opacity="1" fill-rule="nonzero"/></g><path fill="#faaf40" d="M 201.921875 62.253906 C 201.921875 62.253906 202.4375 69.585938 194.722656 74.125 C 200.8125 74.125 207.933594 70.941406 212.570312 62.253906 C 206.652344 62.253906 201.921875 62.253906 201.921875 62.253906 Z M 201.921875 62.253906 " fill-opacity="1" fill-rule="nonzero"/><path fill="#ffffff" d="M 190.679688 27.042969 L 274.980469 27.042969 L 274.980469 28.695312 L 190.679688 28.695312 Z M 190.679688 27.042969 " fill-opacity="1" fill-rule="nonzero"/><path fill="#ffffff" d="M 190.679688 31.53125 L 274.980469 31.53125 L 274.980469 33.1875 L 190.679688 33.1875 Z M 190.679688 31.53125 " fill-opacity="1" fill-rule="nonzero"/><path fill="#ffffff" d="M 190.679688 36.023438 L 274.980469 36.023438 L 274.980469 37.675781 L 190.679688 37.675781 Z M 190.679688 36.023438 " fill-opacity="1" fill-rule="nonzero"/><path fill="#ffffff" d="M 190.679688 40.515625 L 274.980469 40.515625 L 274.980469 42.167969 L 190.679688 42.167969 Z M 190.679688 40.515625 " fill-opacity="1" fill-rule="nonzero"/><path fill="#ffffff" d="M 190.679688 45.03125 L 274.980469 45.03125 L 274.980469 46.683594 L 190.679688 46.683594 Z M 190.679688 45.03125 " fill-opacity="1" fill-rule="nonzero"/><path fill="#ffffff" d="M 190.679688 49.523438 L 217.769531 49.523438 L 217.769531 51.175781 L 190.679688 51.175781 Z M 190.679688 49.523438 " fill-opacity="1" fill-rule="nonzero"/><g mask="url(#24fd580cfb)"><g transform="matrix(1, 0, 0, 1, 42, 75)"><g clip-path="url(#ebced16939)"><path fill="#e6e7e8" d="M 71.625 95.933594 L 6.300781 95.933594 C 3.320312 95.933594 0.90625 93.488281 0.90625 90.527344 L 0.90625 6.824219 C 0.90625 3.839844 3.34375 1.421875 6.300781 1.421875 L 71.625 1.421875 C 74.605469 1.421875 77.023438 3.863281 77.023438 6.824219 L 77.023438 90.527344 C 77.023438 93.488281 74.605469 95.933594 71.625 95.933594 Z M 71.625 95.933594 " fill-opacity="1" fill-rule="nonzero"/><path fill="#d0d2d3" d="M 52.175781 20.839844 C 52.175781 28.144531 46.261719 34.066406 38.964844 34.066406 C 31.667969 34.066406 25.75 28.144531 25.75 20.839844 C 25.75 13.535156 31.667969 7.613281 38.964844 7.613281 C 46.261719 7.613281 52.175781 13.535156 52.175781 20.839844 Z M 52.175781 20.839844 " fill-opacity="1" fill-rule="evenodd"/><path fill="#3978b6" d="M 38.964844 11.042969 C 37.335938 11.042969 36.003906 12.375 36.003906 14.003906 C 36.003906 15.632812 37.335938 16.964844 38.964844 16.964844 C 40.589844 16.964844 41.921875 15.632812 41.921875 14.003906 C 41.945312 12.375 40.613281 11.042969 38.964844 11.042969 Z M 38.964844 11.042969 " fill-opacity="1" fill-rule="nonzero"/><path fill="#3978b6" d="M 34.328125 30.660156 L 43.621094 30.660156 L 43.621094 22.421875 C 43.621094 19.855469 41.527344 17.78125 38.988281 17.78125 C 36.425781 17.78125 34.355469 19.878906 34.355469 22.421875 L 34.355469 30.660156 Z M 34.328125 30.660156 " fill-opacity="1" fill-rule="nonzero"/><path fill="#d0d2d3" d="M 25.75 35.695312 L 52.175781 35.695312 L 52.175781 37.964844 L 25.75 37.964844 Z M 25.75 35.695312 " fill-opacity="1" fill-rule="nonzero"/><path fill="#d0d2d3" d="M 8.621094 44.800781 L 69.332031 44.800781 L 69.332031 47.070312 L 8.621094 47.070312 Z M 8.621094 44.800781 " fill-opacity="1" fill-rule="nonzero"/><path fill="#d0d2d3" d="M 8.621094 49.195312 L 69.332031 49.195312 L 69.332031 51.464844 L 8.621094 51.464844 Z M 8.621094 49.195312 " fill-opacity="1" fill-rule="nonzero"/><path fill="#d0d2d3" d="M 18.652344 53.585938 L 59.300781 53.585938 L 59.300781 55.855469 L 18.652344 55.855469 Z M 18.652344 53.585938 " fill-opacity="1" fill-rule="nonzero"/><path fill="#d0d2d3" d="M 8.621094 63.925781 L 69.332031 63.925781 L 69.332031 66.195312 L 8.621094 66.195312 Z M 8.621094 63.925781 " fill-opacity="1" fill-rule="nonzero"/><path fill="#d0d2d3" d="M 8.621094 68.320312 L 69.332031 68.320312 L 69.332031 70.589844 L 8.621094 70.589844 Z M 8.621094 68.320312 " fill-opacity="1" fill-rule="nonzero"/><path fill="#d0d2d3" d="M 18.652344 72.710938 L 59.300781 72.710938 L 59.300781 74.980469 L 18.652344 74.980469 Z M 18.652344 72.710938 " fill-opacity="1" fill-rule="nonzero"/></g></g></g><path fill="#4a61a7" d="M 317.304688 93.003906 L 343.828125 93.003906 C 353.097656 93.003906 360.6875 85.402344 360.6875 76.125 L 360.6875 68.722656 C 360.6875 59.441406 353.097656 51.84375 343.828125 51.84375 L 317.304688 51.84375 C 308.039062 51.84375 300.445312 59.441406 300.445312 68.722656 L 300.445312 76.125 C 300.445312 85.402344 308.039062 93.003906 317.304688 93.003906 Z M 317.304688 93.003906 " fill-opacity="1" fill-rule="nonzero"/><path fill="#4a61a7" d="M 314.421875 90.140625 C 314.421875 90.140625 314.9375 97.46875 307.222656 102.011719 C 313.3125 102.011719 320.4375 98.828125 325.070312 90.140625 C 319.128906 90.140625 314.421875 90.140625 314.421875 90.140625 Z M 314.421875 90.140625 " fill-opacity="1" fill-rule="nonzero"/><path fill="#ffffff" d="M 307.964844 60.355469 L 353.148438 60.355469 L 353.148438 62.007812 L 307.964844 62.007812 Z M 307.964844 60.355469 " fill-opacity="1" fill-rule="nonzero"/><path fill="#ffffff" d="M 307.964844 64.847656 L 353.148438 64.847656 L 353.148438 66.5 L 307.964844 66.5 Z M 307.964844 64.847656 " fill-opacity="1" fill-rule="nonzero"/><path fill="#ffffff" d="M 307.964844 69.339844 L 353.148438 69.339844 L 353.148438 70.992188 L 307.964844 70.992188 Z M 307.964844 69.339844 " fill-opacity="1" fill-rule="nonzero"/><path fill="#ffffff" d="M 307.964844 73.828125 L 353.148438 73.828125 L 353.148438 75.484375 L 307.964844 75.484375 Z M 307.964844 73.828125 " fill-opacity="1" fill-rule="nonzero"/><path fill="#ffffff" d="M 307.964844 78.320312 L 353.148438 78.320312 L 353.148438 79.972656 L 307.964844 79.972656 Z M 307.964844 78.320312 " fill-opacity="1" fill-rule="nonzero"/><path fill="#ffffff" d="M 307.964844 82.835938 L 322.480469 82.835938 L 322.480469 84.488281 L 307.964844 84.488281 Z M 307.964844 82.835938 " fill-opacity="1" fill-rule="nonzero"/><path fill="#4f4f4f" d="M 283.265625 297.277344 L 294.011719 297.277344 L 294.011719 305.445312 L 283.265625 305.445312 Z M 283.265625 297.277344 " fill-opacity="1" fill-rule="nonzero"/><path fill="#3f4040" d="M 281.539062 288.910156 L 295.761719 288.910156 L 295.761719 298.410156 L 281.539062 298.410156 Z M 281.539062 288.910156 " fill-opacity="1" fill-rule="nonzero"/><path fill="#3f4040" d="M 281.539062 304.285156 L 295.761719 304.285156 L 295.761719 313.785156 L 281.539062 313.785156 Z M 281.539062 304.285156 " fill-opacity="1" fill-rule="nonzero"/><path fill="#3f4040" d="M 326.597656 321.460938 L 245.597656 321.460938 C 245.597656 315.191406 250.726562 310.058594 256.988281 310.058594 L 315.210938 310.058594 C 321.472656 310.058594 326.597656 315.191406 326.597656 321.460938 Z M 326.597656 321.460938 " fill-opacity="1" fill-rule="nonzero"/><path fill="#3f4040" d="M 326.597656 325.878906 C 326.597656 329.355469 323.789062 332.167969 320.3125 332.167969 C 316.835938 332.167969 314.027344 329.355469 314.027344 325.878906 C 314.027344 322.398438 316.835938 319.585938 320.3125 319.585938 C 323.765625 319.585938 326.597656 322.398438 326.597656 325.878906 Z M 326.597656 325.878906 " fill-opacity="1" fill-rule="nonzero"/><path fill="#3f4040" d="M 258.171875 325.878906 C 258.171875 329.355469 255.359375 332.167969 251.886719 332.167969 C 248.410156 332.167969 245.597656 329.355469 245.597656 325.878906 C 245.597656 322.398438 248.410156 319.585938 251.886719 319.585938 C 255.359375 319.585938 258.171875 322.398438 258.171875 325.878906 Z M 258.171875 325.878906 " fill-opacity="1" fill-rule="nonzero"/><path fill="#3f4040" d="M 285.507812 339.746094 C 282.007812 339.746094 279.171875 336.882812 279.171875 333.402344 L 279.171875 330.070312 C 279.171875 326.566406 282.03125 323.730469 285.507812 323.730469 C 289.007812 323.730469 291.84375 326.59375 291.84375 330.070312 L 291.84375 333.402344 C 291.84375 336.882812 289.007812 339.746094 285.507812 339.746094 Z M 285.507812 339.746094 " fill-opacity="1" fill-rule="nonzero"/><path fill="#4f4f4f" d="M 297.488281 328.691406 L 274.710938 328.691406 C 274.710938 322.421875 279.839844 317.289062 286.097656 317.289062 C 292.359375 317.3125 297.488281 322.421875 297.488281 328.691406 Z M 297.488281 328.691406 " fill-opacity="1" fill-rule="nonzero"/><path fill="#4f4f4f" d="M 327.117188 241.679688 C 322.730469 246.863281 319.871094 253.328125 318.980469 260.0625 C 318.710938 262.039062 318.636719 264.109375 319.375 265.960938 C 320.78125 269.464844 324.675781 271.195312 328.199219 272.574219 C 326.722656 263.789062 329.113281 254.4375 334.585938 247.429688 C 335.25 246.589844 335.964844 245.726562 336.113281 244.667969 C 336.382812 242.742188 334.511719 241.0625 332.589844 240.792969 C 330.640625 240.570312 327.117188 241.679688 327.117188 241.679688 Z M 327.117188 241.679688 " fill-opacity="1" fill-rule="nonzero"/><path fill="#4f4f4f" d="M 345.800781 242.9375 C 349.820312 240.074219 352.234375 235.511719 353.933594 230.871094 C 357.65625 220.703125 358.519531 209.476562 356.351562 198.867188 C 355.414062 194.226562 353.492188 189.242188 349.226562 187.242188 C 344.199219 184.898438 338.160156 187.835938 334.4375 191.957031 C 328.941406 198.003906 326.5 206.367188 326.105469 214.535156 C 325.734375 222.703125 323.910156 232.304688 328.742188 238.890625 C 331.332031 242.421875 341.78125 245.800781 345.800781 242.9375 Z M 345.800781 242.9375 " fill-opacity="1" fill-rule="nonzero"/><path fill="#4a61a7" d="M 319.253906 235.882812 C 315.777344 228.15625 315.1875 219.25 315.726562 210.785156 C 316.269531 202.320312 319.84375 193.632812 326.894531 188.945312 C 333.945312 184.257812 344.765625 184.996094 349.695312 191.882812 C 352.210938 195.386719 352.949219 199.828125 353.046875 204.148438 C 353.195312 210.464844 352.136719 216.730469 351.074219 222.949219 C 350.140625 228.402344 349.152344 234.003906 346.292969 238.742188 C 343.433594 243.480469 338.183594 247.183594 332.6875 246.617188 C 326.179688 245.925781 321.027344 239.804688 319.253906 235.882812 Z M 319.253906 235.882812 " fill-opacity="1" fill-rule="nonzero"/><path fill="#5672b6" d="M 334.5625 196.078125 C 335.917969 195.4375 337.519531 196.054688 338.457031 197.113281 C 339.515625 198.324219 339.859375 200.027344 339.933594 201.605469 C 340.058594 204.984375 338.777344 208.242188 337.199219 211.15625 C 334.3125 216.511719 330 221.667969 330.171875 228.082031 C 330.246094 230.996094 331.308594 233.957031 333.625 235.855469 C 334.019531 236.175781 334.609375 235.609375 334.191406 235.289062 C 331.996094 233.511719 331.035156 230.722656 330.988281 227.960938 C 330.9375 224.800781 332.070312 221.839844 333.523438 219.078125 C 336.605469 213.300781 341.585938 207.453125 340.625 200.445312 C 340.402344 198.765625 339.761719 197.039062 338.40625 195.980469 C 337.199219 195.015625 335.546875 194.71875 334.140625 195.386719 C 333.671875 195.585938 334.09375 196.300781 334.5625 196.078125 Z M 334.5625 196.078125 " fill-opacity="1" fill-rule="nonzero"/><path fill="#4f4f4f" d="M 316.269531 273.265625 C 319.402344 273.265625 322.949219 273.464844 324.898438 275.90625 C 327.042969 278.597656 325.984375 282.816406 323.46875 285.183594 C 320.953125 287.53125 317.453125 288.441406 314.101562 289.132812 C 297.316406 292.636719 279.839844 293.105469 263.027344 289.652344 C 259.796875 288.984375 256.371094 288.046875 254.226562 285.53125 C 252.082031 283.015625 252.105469 278.449219 255.039062 276.941406 C 255.039062 276.941406 295.910156 273.292969 316.269531 273.265625 Z M 316.269531 273.265625 " fill-opacity="1" fill-rule="nonzero"/><path fill="#4a61a7" d="M 250.652344 271.121094 C 254.792969 263.394531 265.835938 262.558594 274.539062 263.542969 C 283.238281 264.53125 291.84375 267.34375 300.542969 266.554688 C 306.335938 266.035156 311.980469 263.914062 317.773438 264.308594 C 323.566406 264.703125 329.828125 268.949219 329.457031 274.746094 C 329.234375 278.175781 326.699219 281.089844 323.664062 282.691406 C 320.632812 284.296875 317.183594 284.816406 313.78125 285.234375 C 295.292969 287.53125 276.289062 287.800781 258.292969 282.988281 C 255.359375 282.199219 252.230469 281.136719 250.503906 278.621094 C 248.804688 276.128906 249.765625 272.773438 250.652344 271.121094 Z M 250.652344 271.121094 " fill-opacity="1" fill-rule="nonzero"/><path fill="#8490c7" d="M 292.777344 173.078125 C 287.058594 171.226562 247.300781 184.480469 247.300781 184.480469 C 247.300781 184.480469 236.847656 179.964844 222.824219 175.71875 C 222.230469 179.050781 220.652344 181.074219 218.730469 183.269531 C 224.769531 187.34375 241.558594 197.632812 246.4375 197.261719 C 251.316406 196.890625 286.59375 189.070312 290.683594 186.726562 C 294.777344 184.355469 304.191406 176.753906 292.777344 173.078125 Z M 292.777344 173.078125 " fill-opacity="1" fill-rule="nonzero"/><path fill="#f9bbaa" d="M 222.824219 175.71875 L 217.546875 172.855469 C 217.546875 172.855469 216.167969 169.054688 214.074219 166.8125 C 211.976562 164.589844 209.070312 164.761719 207.933594 163.058594 C 206.824219 161.382812 205.914062 161.605469 206.257812 163.058594 C 206.605469 164.515625 208.773438 166.8125 208.773438 166.8125 C 208.773438 166.8125 203.128906 166.121094 201.453125 164.097656 C 199.777344 162.074219 199.011719 160.617188 197.753906 160.273438 C 196.496094 159.925781 199.207031 164.9375 200.464844 165.996094 C 198.59375 165.082031 197.53125 161.679688 196.226562 160.691406 C 194.894531 159.703125 195.660156 162.566406 195.660156 162.566406 C 195.660156 162.566406 194.722656 163.332031 195.4375 165.082031 C 196.152344 166.835938 196.496094 167.453125 196.496094 167.453125 C 196.496094 167.453125 196.496094 169.253906 197.0625 170.511719 C 197.632812 171.769531 201.378906 173.226562 201.378906 173.226562 C 201.378906 173.226562 207.785156 178.53125 211.535156 179.296875 C 215.304688 180.0625 218.707031 183.296875 218.707031 183.296875 C 218.707031 183.296875 221.835938 181.273438 222.824219 175.71875 Z M 222.824219 175.71875 " fill-opacity="1" fill-rule="nonzero"/><path fill="#f27d83" d="M 195.632812 162.640625 C 196.398438 163.058594 196.890625 163.851562 197.261719 164.613281 C 197.632812 165.378906 197.925781 166.21875 198.125 167.058594 C 198.148438 167.179688 198.347656 167.132812 198.320312 167.007812 C 198.097656 166.144531 197.804688 165.28125 197.410156 164.464844 C 197.015625 163.703125 196.496094 162.910156 195.734375 162.46875 C 195.609375 162.394531 195.511719 162.566406 195.632812 162.640625 Z M 195.632812 162.640625 " fill-opacity="1" fill-rule="nonzero"/><path fill="#f27d83" d="M 206.554688 167.453125 C 204.53125 168.019531 202.683594 169.03125 201.132812 170.4375 C 201.03125 170.539062 201.179688 170.660156 201.277344 170.585938 C 202.808594 169.203125 204.632812 168.21875 206.605469 167.675781 C 206.75 167.625 206.675781 167.429688 206.554688 167.453125 Z M 206.554688 167.453125 " fill-opacity="1" fill-rule="nonzero"/><path fill="#f27d83" d="M 198.148438 167.105469 C 198.742188 167.625 199.382812 168.117188 199.996094 168.613281 C 200.613281 169.082031 201.230469 169.574219 201.894531 169.96875 C 202.019531 170.042969 202.117188 169.871094 201.992188 169.796875 C 201.328125 169.402344 200.6875 168.910156 200.097656 168.441406 C 199.480469 167.972656 198.886719 167.476562 198.296875 166.960938 C 198.199219 166.859375 198.050781 167.007812 198.148438 167.105469 Z M 198.148438 167.105469 " fill-opacity="1" fill-rule="nonzero"/><path fill="#f27d83" d="M 200.441406 166.046875 C 201.722656 166.859375 203.003906 167.648438 204.386719 168.292969 C 204.507812 168.339844 204.605469 168.167969 204.484375 168.117188 C 203.101562 167.476562 201.820312 166.6875 200.539062 165.875 C 200.417969 165.800781 200.316406 165.972656 200.441406 166.046875 Z M 200.441406 166.046875 " fill-opacity="1" fill-rule="nonzero"/><path stroke-linecap="round" transform="matrix(2.464978, 0, 0, 2.467672, 2.749866, 15.937499)" fill="none" stroke-linejoin="miter" d="M 78.62017 61.340066 C 78.62017 61.340066 78.53935 60.570743 78.810334 60.700546 C 79.070225 60.83035 79.290498 61.21976 79.350717 62.039738 C 79.789678 62.380077 80.170006 62.440229 80.65017 62.750491 C 81.130334 63.060753 83.800553 62.370579 85.420116 63.880732 " stroke="#f27d83" stroke-width="0.25" stroke-opacity="1" stroke-miterlimit="10"/><path fill="#7780be" d="M 288.515625 169.847656 C 281.636719 174.386719 275.597656 179.742188 271.457031 185.738281 C 267.316406 191.734375 264.949219 199.359375 266.824219 206.417969 C 267.90625 210.511719 270.347656 214.164062 271.136719 218.335938 C 271.949219 222.605469 272.34375 230.945312 266.972656 239.335938 C 282.820312 247.058594 300.25 245.628906 313.410156 237.1875 C 308.851562 228.75 304.832031 219.027344 307.445312 209.796875 C 310.035156 200.59375 318.835938 193.585938 319.476562 184.058594 C 319.992188 176.507812 314.617188 169.15625 307.496094 166.6875 C 300.347656 164.195312 288.515625 169.847656 288.515625 169.847656 Z M 288.515625 169.847656 " fill-opacity="1" fill-rule="nonzero"/><path fill="#6672aa" d="M 310.898438 168.292969 C 310.898438 168.292969 301.011719 175.964844 298.226562 179.125 C 292.851562 179.125 290.363281 180.234375 290.363281 180.234375 L 291.003906 185.984375 C 291.003906 185.984375 281.515625 187.441406 274.710938 192.007812 C 281.046875 184.480469 294.332031 171.082031 306.65625 166.960938 C 310.898438 168.292969 310.898438 168.292969 310.898438 168.292969 Z M 310.898438 168.292969 " fill-opacity="1" fill-rule="nonzero"/><path fill="#6672aa" d="M 288.515625 169.847656 L 278.605469 176.535156 L 279.542969 177.792969 L 275.402344 180.777344 C 275.402344 180.777344 274.785156 187.019531 274.710938 191.980469 C 275.945312 185.984375 279.222656 179.050781 288.515625 169.847656 Z M 288.515625 169.847656 " fill-opacity="1" fill-rule="nonzero"/><path fill="#6d78af" d="M 307.445312 209.796875 C 307.445312 209.796875 293.347656 231.4375 291.496094 233.859375 C 289.648438 236.277344 290.78125 238.964844 269.363281 240.25 C 273.601562 241.679688 274.019531 241.828125 274.019531 241.828125 C 274.019531 241.828125 291.421875 240.71875 293.222656 237.558594 C 295.046875 234.402344 306.753906 213.152344 306.753906 213.152344 C 306.753906 213.152344 306.878906 210.933594 307.445312 209.796875 Z M 307.445312 209.796875 " fill-opacity="1" fill-rule="nonzero"/><path fill="#f9bbaa" d="M 288.515625 157.707031 C 288.515625 157.707031 291.597656 163.40625 288.515625 169.847656 C 280.234375 178.308594 275.917969 182.898438 274.734375 192.007812 C 284.621094 179.273438 297.683594 170.539062 303.476562 168.488281 C 309.269531 166.441406 303.328125 153.042969 303.328125 153.042969 Z M 288.515625 157.707031 " fill-opacity="1" fill-rule="nonzero"/><path fill="#f27d83" d="M 304.734375 152.449219 C 301.085938 154.175781 288.515625 157.707031 288.515625 157.707031 C 288.515625 157.707031 289.5 159.332031 289.527344 161.0625 C 294.160156 161.0625 304.117188 154.644531 304.117188 154.644531 C 304.117188 154.644531 305.152344 152.84375 304.734375 152.449219 Z M 304.734375 152.449219 " fill-opacity="1" fill-rule="nonzero"/><path fill="#c8e5f0" d="M 288.589844 177.839844 C 288.589844 177.839844 280.085938 184.75 274.734375 191.980469 C 275.230469 189.21875 275.894531 182.726562 281.859375 176.929688 C 288.589844 177.839844 288.589844 177.839844 288.589844 177.839844 Z M 288.589844 177.839844 " fill-opacity="1" fill-rule="nonzero"/><path fill="#f9bbaa" d="M 220.800781 299.078125 C 221.789062 303.519531 222.824219 308.480469 222.625 313.019531 C 222.429688 317.5625 220.902344 322.25 217.574219 325.359375 C 211.707031 330.8125 205.273438 329.457031 196.203125 335.820312 C 202.636719 339.003906 210.769531 338.386719 216.660156 334.292969 C 220.726562 331.453125 236.527344 326 236.875 324.59375 C 237.464844 322.273438 234.703125 320.671875 233.324219 318.722656 C 231.03125 315.488281 236.207031 301.59375 236.332031 296.242188 C 231.402344 297.546875 220.800781 299.078125 220.800781 299.078125 Z M 220.800781 299.078125 " fill-opacity="1" fill-rule="nonzero"/><path fill="#404041" d="M 211.089844 333.996094 C 213.53125 333.625 215.847656 332.859375 218.066406 331.800781 C 224.546875 328.765625 230.316406 326.023438 236.800781 322.988281 C 240.523438 329.28125 235.617188 335.945312 234.828125 340.980469 C 234.113281 341.003906 233.570312 341.003906 232.140625 341.027344 C 232.015625 339.523438 233.667969 331.773438 232.265625 331.230469 C 231.746094 331.035156 229.035156 332.835938 228.542969 333.058594 C 227.726562 333.429688 226.988281 334.191406 226.371094 334.882812 C 222.675781 338.882812 221.664062 340.683594 216.242188 341.175781 C 210.820312 341.671875 200.859375 341.003906 195.460938 340.164062 C 193.710938 339.894531 191.445312 338.929688 191.789062 337.203125 C 191.984375 336.117188 193.144531 335.550781 194.15625 335.132812 C 197.804688 333.625 200.269531 332.984375 205.320312 331.183594 C 205.320312 331.183594 207.023438 334.613281 211.089844 333.996094 Z M 211.089844 333.996094 " fill-opacity="1" fill-rule="nonzero"/><path fill="#2b3379" d="M 266.996094 239.359375 C 266.996094 239.359375 223.90625 228.847656 218.214844 236.84375 C 212.519531 244.839844 220.875 299.523438 220.875 299.523438 C 220.875 299.523438 231.84375 297.894531 236.355469 296.242188 C 238.007812 288.246094 234.605469 258.363281 234.605469 258.363281 C 234.605469 258.363281 295.539062 281.753906 311.90625 266.0625 C 321.398438 256.386719 318.191406 244.886719 313.3125 236.992188 C 308.433594 239.285156 295.144531 250.710938 266.996094 239.359375 Z M 266.996094 239.359375 " fill-opacity="1" fill-rule="nonzero"/><path fill="#f9bbaa" d="M 239.191406 296.710938 C 240.570312 301.050781 242.074219 305.863281 242.320312 310.429688 C 242.542969 314.96875 241.753906 320.027344 238.449219 323.1875 C 233.101562 328.296875 232.410156 328.914062 223.316406 335.871094 C 230.019531 338.4375 232.90625 336.785156 238.378906 332.144531 C 242.148438 328.9375 256.617188 320.671875 256.839844 319.238281 C 257.210938 316.871094 254.398438 315.289062 252.847656 313.488281 C 250.28125 310.480469 254.769531 297.746094 254.398438 292.414062 C 249.59375 294.167969 239.191406 296.710938 239.191406 296.710938 Z M 239.191406 296.710938 " fill-opacity="1" fill-rule="nonzero"/><path fill="#4f4f4f" d="M 234.136719 333.625 C 236.40625 332.785156 238.476562 331.578125 240.421875 330.097656 C 246.042969 325.828125 251.046875 322.027344 256.667969 317.785156 C 261.5 323.210938 258.121094 330.714844 258.394531 335.796875 C 257.703125 335.96875 257.183594 336.070312 255.828125 336.390625 C 255.410156 334.933594 255.460938 327.011719 253.980469 326.765625 C 253.4375 326.667969 251.195312 328.960938 250.777344 329.28125 C 250.085938 329.800781 249.519531 330.714844 249.050781 331.480469 C 246.289062 336.144531 245.699219 338.09375 240.546875 339.621094 C 235.417969 341.175781 225.707031 342.507812 220.359375 342.730469 C 218.632812 342.804688 216.242188 342.335938 216.21875 340.558594 C 216.191406 339.472656 217.179688 338.660156 218.066406 338.066406 C 221.269531 335.871094 223.511719 334.761719 228.023438 331.996094 C 228.023438 331.996094 230.339844 335.007812 234.136719 333.625 Z M 234.136719 333.625 " fill-opacity="1" fill-rule="nonzero"/><path fill="#394a8e" d="M 266.996094 239.335938 C 266.996094 239.335938 229.921875 234.253906 224.226562 242.246094 C 218.535156 250.242188 239.09375 296.757812 239.09375 296.757812 C 239.09375 296.757812 250.109375 295.15625 254.621094 293.5 C 256.519531 276.722656 247.546875 265.738281 247.546875 265.738281 C 247.546875 265.738281 295.21875 282.839844 311.585938 267.148438 C 321.078125 257.472656 318.292969 245.085938 313.410156 237.164062 C 308.53125 239.507812 295.144531 250.664062 266.996094 239.335938 Z M 266.996094 239.335938 " fill-opacity="1" fill-rule="nonzero"/><path fill="#e6e7e8" d="M 226.667969 196.175781 L 214.320312 189.414062 L 235.589844 228.996094 L 246.90625 233.859375 Z M 226.667969 196.175781 " fill-opacity="1" fill-rule="nonzero"/><path fill="#8490c7" d="M 292.851562 195.363281 C 297.019531 180.875 311.09375 173.003906 317.898438 178.902344 C 324.699219 184.800781 304.117188 215.695312 290.386719 235.484375 C 286.222656 241.777344 254.644531 240.027344 254.644531 240.027344 C 254.644531 240.027344 250.703125 234.796875 254.867188 230.082031 C 260.09375 228.578125 276.140625 223.667969 281.21875 223.34375 C 284.792969 212.191406 290.5625 203.355469 292.851562 195.363281 Z M 292.851562 195.363281 " fill-opacity="1" fill-rule="nonzero"/><path fill="#f9bbaa" d="M 254.84375 230.058594 L 249.148438 231.367188 C 249.148438 231.367188 246.363281 227.8125 243.503906 225.589844 C 240.644531 223.371094 240.449219 221.570312 239.386719 221.46875 C 238.328125 221.371094 238.328125 223.59375 239.386719 225.320312 C 240.449219 227.046875 240.449219 227.046875 240.449219 227.046875 C 240.449219 227.046875 237.761719 225.515625 235.097656 224.925781 C 232.410156 224.355469 231.550781 225.394531 231.550781 226.40625 C 231.550781 227.417969 233.742188 228.082031 233.742188 228.082031 C 233.742188 228.082031 233.078125 229.144531 233.742188 230.476562 C 234.410156 231.808594 234.335938 239.535156 239.980469 239.558594 C 243.207031 239.558594 248.113281 238.449219 248.113281 238.449219 L 254.597656 240.003906 C 254.597656 240.027344 251.144531 234.351562 254.84375 230.058594 Z M 254.84375 230.058594 " fill-opacity="1" fill-rule="nonzero"/><path fill="#f9bbaa" d="M 276.953125 158.742188 C 272.542969 154.347656 272.515625 146.945312 273.109375 141.023438 C 273.230469 139.816406 271.976562 138.730469 272.246094 137.691406 C 276.511719 136.558594 278.582031 133.496094 277.347656 128.265625 C 278.457031 126.09375 285.628906 113.953125 298.597656 115.1875 C 304.070312 115.707031 309.714844 118.246094 313.015625 122.441406 C 314.742188 124.636719 316.097656 127.820312 316.121094 130.734375 C 316.34375 132.484375 316.171875 134.335938 315.777344 136.136719 C 315.726562 136.707031 315.628906 137.296875 315.53125 137.863281 C 314.988281 141.023438 311.144531 147.191406 309.515625 150.105469 C 309.171875 150.917969 287.628906 160.222656 276.953125 158.742188 Z M 276.953125 158.742188 " fill-opacity="1" fill-rule="nonzero"/><path fill="#f27d83" d="M 281.121094 118.050781 C 284.667969 115.113281 289.527344 114.050781 294.40625 114.324219 C 299.878906 114.644531 305.523438 117.382812 308.828125 121.578125 C 310.550781 123.773438 311.90625 126.957031 311.933594 129.871094 C 312.152344 131.621094 311.980469 133.472656 311.585938 135.273438 C 311.539062 135.839844 311.4375 136.433594 311.339844 137 C 310.796875 140.160156 309.542969 143.269531 307.9375 146.179688 C 307.59375 146.996094 307.222656 147.808594 306.753906 148.550781 C 306.410156 149.265625 306.015625 149.933594 305.621094 150.625 C 305.078125 150.402344 304.882812 149.683594 305.128906 149.191406 C 302.933594 147.984375 301.53125 144.378906 300.496094 142.257812 C 299.878906 141 299.359375 139.714844 298.867188 138.40625 C 298.746094 139.125 298.523438 139.839844 297.832031 140.109375 C 297.5625 140.210938 297.191406 140.160156 296.996094 139.890625 C 296.945312 139.839844 296.921875 139.765625 296.894531 139.714844 C 296.773438 139.714844 296.648438 139.691406 296.550781 139.640625 C 291.226562 136.484375 287.480469 129.671875 286.886719 123.207031 C 284.101562 125.082031 280.378906 126.515625 278.582031 127.820312 C 278.160156 128.117188 277.695312 127.894531 277.546875 127.527344 C 277.375 127.425781 277.226562 127.253906 277.125 127.007812 C 276.660156 125.898438 276.410156 124.738281 276.289062 123.578125 C 276.878906 122.6875 277.519531 121.824219 278.210938 121.058594 C 279.074219 119.972656 280.035156 118.9375 281.121094 118.050781 Z M 281.121094 118.050781 " fill-opacity="1" fill-rule="nonzero"/><path fill="#853d60" d="M 281.441406 132.238281 C 281.589844 132.289062 281.710938 132.363281 281.808594 132.460938 C 282.648438 133.324219 281.957031 134.878906 281.390625 135.695312 C 281.144531 136.0625 280.773438 136.433594 280.332031 136.484375 C 279.960938 136.507812 279.617188 136.3125 279.445312 135.964844 C 279.296875 135.644531 279.34375 135.273438 279.445312 134.929688 C 279.640625 134.140625 279.984375 133.398438 280.453125 132.734375 C 280.601562 132.511719 280.800781 132.3125 281.046875 132.238281 C 281.167969 132.191406 281.316406 132.191406 281.441406 132.238281 Z M 281.441406 132.238281 " fill-opacity="1" fill-rule="nonzero"/><path fill="#853d60" d="M 281.195312 129.054688 C 281.734375 128.242188 282.96875 128.265625 283.808594 128.585938 C 285.039062 129.082031 285.703125 130.3125 286.199219 131.449219 C 286.34375 131.769531 285.851562 131.96875 285.703125 131.671875 C 285.261719 130.808594 284.742188 129.84375 283.832031 129.402344 C 283.019531 129.007812 282.402344 129.253906 281.664062 129.625 C 281.292969 129.820312 280.996094 129.351562 281.195312 129.054688 Z M 281.195312 129.054688 " fill-opacity="1" fill-rule="nonzero"/><path fill="#853d60" d="M 271.875 137.148438 C 274.390625 136.828125 276.4375 135.988281 277.078125 133.226562 C 277.445312 131.621094 277.59375 129.871094 277.347656 128.265625 C 277.300781 127.996094 277.71875 127.96875 277.765625 128.214844 C 278.234375 130.460938 278.089844 133.695312 276.730469 135.644531 C 276.265625 136.335938 275.648438 136.804688 274.90625 137.175781 C 274.464844 137.394531 273.847656 137.445312 273.429688 137.691406 L 272.691406 137.839844 C 272.542969 138.804688 272.835938 139.617188 273.578125 140.308594 C 273.945312 140.800781 273.132812 141.34375 272.8125 140.851562 C 272.171875 139.816406 271.753906 138.828125 271.507812 137.617188 C 271.480469 137.371094 271.679688 137.175781 271.875 137.148438 Z M 271.875 137.148438 " fill-opacity="1" fill-rule="nonzero"/><path fill="#853d60" d="M 274.414062 145.417969 C 275.917969 146.105469 277.519531 146.007812 279.050781 145.441406 C 280.160156 145.019531 281.144531 144.257812 282.253906 143.863281 C 282.574219 143.738281 282.796875 144.082031 282.648438 144.355469 C 282.007812 145.464844 279.839844 146.207031 278.679688 146.550781 C 277.078125 147.019531 275.5 146.945312 274.121094 145.960938 C 273.824219 145.761719 274.09375 145.269531 274.414062 145.417969 Z M 274.414062 145.417969 " fill-opacity="1" fill-rule="nonzero"/><path fill="#853d60" d="M 280.183594 111.980469 C 283.78125 108.820312 290.191406 107.933594 294.53125 109.78125 C 294.578125 109.808594 294.578125 109.832031 294.601562 109.855469 C 304.488281 107.5625 314.421875 114.988281 317.871094 124.023438 C 319.917969 129.375 320.238281 134.707031 317.898438 139.9375 C 315.800781 144.578125 312.648438 149.5625 305.152344 152.203125 C 303.625 145.5625 299.707031 141.023438 299.335938 140.726562 C 291.941406 134.953125 288.710938 125.945312 290.3125 117.234375 C 289.230469 118.394531 287.824219 119.308594 286.492188 120.296875 C 283.757812 122.34375 280.183594 124.316406 278.285156 127.203125 C 278.089844 127.5 277.621094 127.476562 277.421875 127.203125 C 276.707031 126.242188 276.363281 125.132812 276.265625 123.996094 C 275.746094 122.8125 276.042969 121.109375 276.238281 119.949219 C 276.410156 118.960938 276.660156 118.050781 277.003906 117.136719 C 277.546875 115.164062 278.605469 113.359375 280.183594 111.980469 Z M 280.183594 111.980469 " fill-opacity="1" fill-rule="nonzero"/><path fill="#853d60" d="M 304.390625 148.476562 C 304.390625 148.476562 305.574219 161.828125 294.949219 162.394531 C 301.480469 170.636719 316.171875 170.808594 323.617188 161.0625 C 331.058594 151.3125 334.609375 100.035156 294.949219 110.003906 C 300.542969 132.460938 304.390625 148.476562 304.390625 148.476562 Z M 304.390625 148.476562 " fill-opacity="1" fill-rule="nonzero"/><path fill="#995277" d="M 277.398438 127.203125 C 277.398438 127.203125 278.753906 108.550781 294.207031 112.152344 C 299.953125 110.867188 310.183594 109.339844 317.183594 112.398438 C 314.546875 110.867188 310.082031 106.648438 294.601562 109.855469 C 292.851562 109.238281 286.714844 106.945312 280.183594 111.980469 C 277.003906 114.769531 274.046875 122.8125 277.398438 127.203125 Z M 277.398438 127.203125 " fill-opacity="1" fill-rule="nonzero"/><path fill="#f9bbaa" d="M 302.171875 139.074219 C 302.859375 138.554688 303.625 138.1875 304.4375 137.914062 C 306.066406 137.050781 307.914062 137.644531 308.726562 139.394531 C 309.738281 141.542969 308.578125 143.960938 307.222656 145.664062 C 305.820312 147.441406 303.601562 149.636719 301.183594 149.585938 C 299.261719 149.5625 297.980469 148.179688 297.957031 146.328125 C 297.585938 143.589844 299.65625 140.679688 302.171875 139.074219 Z M 302.171875 139.074219 " fill-opacity="1" fill-rule="nonzero"/><path fill="#f27d83" d="M 304.167969 141.34375 C 305.152344 141 306.804688 140.949219 306.683594 142.382812 C 306.683594 142.503906 306.460938 142.503906 306.460938 142.382812 C 306.3125 140.382812 303.109375 142.453125 302.589844 142.925781 C 302.441406 143.070312 302.292969 143.195312 302.144531 143.34375 C 302.640625 143.492188 303.082031 143.789062 303.402344 144.230469 C 303.722656 144.675781 304.09375 145.464844 303.847656 146.007812 C 303.773438 146.179688 303.5 146.179688 303.429688 145.984375 C 303.355469 145.785156 303.355469 145.5625 303.328125 145.34375 C 303.28125 145.046875 303.132812 144.773438 302.960938 144.527344 C 302.6875 144.132812 302.292969 143.835938 301.851562 143.664062 C 301.308594 144.257812 300.863281 144.921875 300.347656 145.5625 C 300.148438 145.8125 299.828125 145.515625 299.976562 145.269531 C 301.011719 143.664062 302.34375 142.011719 304.167969 141.34375 Z M 304.167969 141.34375 " fill-opacity="1" fill-rule="nonzero"/><path fill="#38c1d4" d="M 98.464844 273.242188 L 48.722656 273.242188 L 54.195312 312.75 C 67.972656 315.6875 82.640625 315.980469 98.464844 312.75 L 103.9375 273.242188 Z M 98.464844 273.242188 " fill-opacity="1" fill-rule="nonzero"/><path fill="#7fc580" d="M 76.058594 268.332031 C 76.722656 242.496094 65.925781 216.582031 47.144531 198.890625 C 47.339844 223.960938 76.058594 268.332031 76.058594 268.332031 Z M 76.058594 268.332031 " fill-opacity="1" fill-rule="nonzero"/><path stroke-linecap="round" transform="matrix(2.464978, 0, 0, 2.467672, 2.749866, 15.937499)" fill="none" stroke-linejoin="round" d="M 19.880111 77.760208 C 23.450439 86.289247 26.90033 94.870524 30.220276 103.49929 " stroke="#528b74" stroke-width="1" stroke-opacity="1" stroke-miterlimit="10"/><path fill="#80c578" d="M 76.648438 266.480469 C 93.042969 250.5625 107.214844 232.402344 118.679688 212.636719 C 106.328125 212.488281 95.136719 220.828125 88.480469 231.242188 C 81.851562 241.679688 76.648438 266.480469 76.648438 266.480469 Z M 76.648438 266.480469 " fill-opacity="1" fill-rule="nonzero"/><path stroke-linecap="round" transform="matrix(2.464978, 0, 0, 2.467672, 2.749866, 15.937499)" fill="none" stroke-linejoin="round" d="M 44.330441 81.280732 C 40.780713 84.229804 37.880713 87.880131 35.349948 91.729913 C 33.120276 95.130131 31.160002 98.75988 30.150549 102.690393 " stroke="#528b74" stroke-width="1" stroke-opacity="1" stroke-miterlimit="10"/><path fill="#528b74" d="M 75.835938 268.304688 C 91.09375 243.777344 93.953125 211.921875 83.304688 185.070312 C 68.171875 208.957031 75.835938 268.304688 75.835938 268.304688 Z M 75.835938 268.304688 " fill-opacity="1" fill-rule="nonzero"/><path stroke-linecap="round" transform="matrix(2.464978, 0, 0, 2.467672, 2.749866, 15.937499)" fill="none" stroke-linejoin="round" d="M 32.800166 71.170306 C 32.530767 78.670415 31.809729 86.140448 31.099784 93.61048 C 30.830385 96.469323 30.549893 99.350328 29.789237 102.120524 " stroke="#7fc580" stroke-width="1" stroke-opacity="1" stroke-miterlimit="10"/><path fill="#649c83" d="M 74.75 266.40625 C 64.867188 249.007812 50.125 234.402344 32.625 224.726562 C 35.238281 234.179688 41.351562 242.347656 48.597656 248.960938 C 55.84375 255.523438 74.75 266.40625 74.75 266.40625 Z M 74.75 266.40625 " fill-opacity="1" fill-rule="nonzero"/><path stroke-linecap="round" transform="matrix(2.464978, 0, 0, 2.467672, 2.749866, 15.937499)" fill="none" stroke-linejoin="round" d="M 15.070548 88.079585 C 18.650384 91.650764 22.249237 95.22036 26.209401 98.359389 C 28.169674 99.920197 30.250385 101.400273 31.730494 103.420142 " stroke="#7fc580" stroke-width="1" stroke-opacity="1" stroke-miterlimit="10"/><path fill="#528b74" d="M 75.320312 266.726562 C 94.867188 263.273438 112.269531 249.429688 120.007812 231.144531 C 101.742188 233.460938 75.320312 266.726562 75.320312 266.726562 Z M 75.320312 266.726562 " fill-opacity="1" fill-rule="nonzero"/><path stroke-linecap="round" transform="matrix(2.464978, 0, 0, 2.467672, 2.749866, 15.937499)" fill="none" stroke-linejoin="round" d="M 44.739293 89.980732 C 40.400386 94.229422 35.609839 98.020633 30.480166 101.27047 " stroke="#7fc580" stroke-width="1" stroke-opacity="1" stroke-miterlimit="10"/><path fill="#5195c1" d="M 107.488281 273.242188 C 87.496094 276.96875 66.617188 276.523438 45.171875 273.242188 L 45.171875 262.234375 L 107.488281 262.234375 Z M 107.488281 273.242188 " fill-opacity="1" fill-rule="nonzero"/><path fill="#4f4f4f" d="M 143.84375 304.851562 C 142.070312 305.667969 140.320312 305.667969 138.546875 304.851562 L 138.546875 243.160156 L 143.84375 243.160156 Z M 143.84375 304.851562 " fill-opacity="1" fill-rule="nonzero"/><path fill="#4f4f4f" d="M 199.457031 304.851562 C 197.679688 305.667969 195.929688 305.667969 194.15625 304.851562 L 194.15625 243.160156 L 199.457031 243.160156 Z M 199.457031 304.851562 " fill-opacity="1" fill-rule="nonzero"/><path fill="#4f4f4f" d="M 136.992188 308.925781 C 134.75 309.8125 132.507812 309.8125 130.261719 308.925781 L 130.261719 241.65625 L 136.992188 241.65625 Z M 136.992188 308.925781 " fill-opacity="1" fill-rule="nonzero"/><path fill="#4f4f4f" d="M 207.785156 308.925781 C 205.542969 309.8125 203.300781 309.8125 201.058594 308.925781 L 201.058594 241.65625 L 207.785156 241.65625 Z M 207.785156 308.925781 " fill-opacity="1" fill-rule="nonzero"/><path fill="#faaf40" d="M 216.464844 244.195312 C 216.464844 245.800781 195.214844 247.085938 169.011719 247.085938 C 142.808594 247.085938 121.5625 245.777344 121.5625 244.195312 C 121.5625 242.59375 142.808594 241.308594 169.011719 241.308594 C 195.214844 241.285156 216.464844 242.59375 216.464844 244.195312 Z M 216.464844 244.195312 " fill-opacity="1" fill-rule="nonzero"/><path fill="#faaf40" d="M 121.539062 234.402344 L 216.464844 234.402344 L 216.464844 244.171875 L 121.539062 244.171875 Z M 121.539062 234.402344 " fill-opacity="1" fill-rule="nonzero"/><path fill="#fcc454" d="M 216.464844 234.402344 C 216.464844 236.003906 195.214844 237.289062 169.011719 237.289062 C 142.808594 237.289062 121.5625 235.980469 121.5625 234.402344 C 121.5625 232.796875 142.808594 231.511719 169.011719 231.511719 C 195.214844 231.511719 216.464844 232.820312 216.464844 234.402344 Z M 216.464844 234.402344 " fill-opacity="1" fill-rule="nonzero"/><path fill="#e6e7e8" d="M 182.941406 216.289062 C 182.347656 216.214844 172.90625 209.796875 172.4375 216.90625 C 171.96875 224.011719 178.773438 230.007812 183.210938 231.367188 L 183.433594 229.390625 C 180.769531 228.007812 176.0625 225 174.929688 220.582031 C 173.746094 216.015625 175.222656 215.820312 175.839844 215.894531 C 178.773438 216.1875 182.175781 218.484375 182.175781 218.484375 Z M 182.941406 216.289062 " fill-opacity="1" fill-rule="nonzero"/><path fill="#f4f4f4" d="M 178.75 212.289062 C 181.164062 220.730469 183.1875 228.773438 182.273438 233.636719 C 182.273438 234.105469 185.578125 234.472656 189.667969 234.472656 C 193.761719 234.472656 197.0625 234.105469 197.0625 233.636719 C 196.347656 228.378906 198.222656 220.582031 200.589844 212.289062 Z M 178.75 212.289062 " fill-opacity="1" fill-rule="nonzero"/><path fill="#e6e7e8" d="M 200.589844 212.289062 C 200.589844 212.371094 200.519531 212.453125 200.378906 212.535156 C 200.238281 212.617188 200.03125 212.695312 199.757812 212.773438 C 199.484375 212.847656 199.148438 212.921875 198.75 212.988281 C 198.351562 213.058594 197.898438 213.121094 197.390625 213.179688 C 196.882812 213.238281 196.332031 213.289062 195.734375 213.335938 C 195.140625 213.382812 194.511719 213.421875 193.847656 213.453125 C 193.1875 213.484375 192.503906 213.507812 191.800781 213.523438 C 191.097656 213.539062 190.386719 213.546875 189.667969 213.546875 C 188.953125 213.546875 188.242188 213.539062 187.539062 213.523438 C 186.835938 213.507812 186.152344 213.484375 185.492188 213.453125 C 184.828125 213.421875 184.199219 213.382812 183.601562 213.335938 C 183.007812 213.289062 182.453125 213.238281 181.949219 213.179688 C 181.441406 213.121094 180.988281 213.058594 180.589844 212.988281 C 180.191406 212.921875 179.855469 212.847656 179.582031 212.773438 C 179.304688 212.695312 179.097656 212.617188 178.960938 212.535156 C 178.820312 212.453125 178.75 212.371094 178.75 212.289062 C 178.75 212.207031 178.820312 212.125 178.960938 212.042969 C 179.097656 211.964844 179.304688 211.886719 179.582031 211.808594 C 179.855469 211.730469 180.191406 211.660156 180.589844 211.589844 C 180.988281 211.523438 181.441406 211.457031 181.949219 211.398438 C 182.453125 211.34375 183.007812 211.289062 183.601562 211.242188 C 184.199219 211.199219 184.828125 211.160156 185.492188 211.128906 C 186.152344 211.097656 186.835938 211.070312 187.539062 211.054688 C 188.242188 211.039062 188.953125 211.03125 189.667969 211.03125 C 190.386719 211.03125 191.097656 211.039062 191.800781 211.054688 C 192.503906 211.070312 193.1875 211.097656 193.847656 211.128906 C 194.511719 211.160156 195.140625 211.199219 195.734375 211.242188 C 196.332031 211.289062 196.882812 211.34375 197.390625 211.398438 C 197.898438 211.457031 198.351562 211.523438 198.75 211.589844 C 199.148438 211.660156 199.484375 211.730469 199.757812 211.808594 C 200.03125 211.886719 200.238281 211.964844 200.378906 212.042969 C 200.519531 212.125 200.589844 212.207031 200.589844 212.289062 Z M 200.589844 212.289062 " fill-opacity="1" fill-rule="nonzero"/><path fill="#f37942" d="M 179.6875 215.671875 C 179.832031 216.1875 179.957031 216.683594 180.105469 217.199219 C 187.007812 219.003906 195.363281 217.917969 199.234375 217.25 C 199.355469 216.730469 199.503906 216.238281 199.628906 215.71875 C 189.816406 217.769531 182.472656 216.386719 179.6875 215.671875 Z M 179.6875 215.671875 " fill-opacity="1" fill-rule="evenodd"/></svg>