<svg xmlns="http://www.w3.org/2000/svg" xmlns:xlink="http://www.w3.org/1999/xlink" width="500" zoomAndPan="magnify" viewBox="0 0 375 374.999991" height="500" preserveAspectRatio="xMidYMid meet" version="1.0"><defs><g/><clipPath id="7a9cc1ebed"><path d="M 56.488281 151.464844 L 308.488281 151.464844 L 308.488281 223.464844 L 56.488281 223.464844 Z M 56.488281 151.464844 " clip-rule="nonzero"/></clipPath><clipPath id="a9d426b4fe"><path d="M 63.558594 158.238281 L 154.523438 158.238281 L 154.523438 216.761719 L 63.558594 216.761719 Z M 63.558594 158.238281 " clip-rule="nonzero"/></clipPath><clipPath id="202a55511b"><path d="M 250.757812 162.789062 L 301 162.789062 L 301 214.539062 L 250.757812 214.539062 Z M 250.757812 162.789062 " clip-rule="nonzero"/></clipPath></defs><g clip-path="url(#7a9cc1ebed)"><path stroke-linecap="butt" transform="matrix(0.749791, 0, 0, 0.749268, 56.489269, 151.464936)" fill="none" stroke-linejoin="miter" d="M -0.00131709 -0.000122658 L 336.092456 -0.000122658 L 336.092456 96.093637 L -0.00131709 96.093637 L -0.00131709 -0.000122658 " stroke="#000000" stroke-width="6" stroke-opacity="1" stroke-miterlimit="4"/></g><g clip-path="url(#a9d426b4fe)"><path fill="#000000" d="M 63.558594 158.238281 L 154.324219 158.238281 L 154.324219 216.84375 L 63.558594 216.84375 Z M 63.558594 158.238281 " fill-opacity="1" fill-rule="nonzero"/></g><g clip-path="url(#202a55511b)"><path fill="#000000" d="M 250.894531 167.585938 L 250.894531 163.816406 C 250.898438 163.535156 251 163.292969 251.199219 163.09375 C 251.398438 162.894531 251.640625 162.792969 251.925781 162.789062 L 255.589844 162.789062 C 255.871094 162.792969 256.109375 162.894531 256.308594 163.09375 C 256.507812 163.292969 256.613281 163.535156 256.617188 163.816406 C 256.613281 164.101562 256.511719 164.34375 256.3125 164.542969 C 256.113281 164.742188 255.871094 164.84375 255.589844 164.847656 L 252.953125 164.847656 L 252.953125 167.585938 C 252.945312 167.867188 252.84375 168.109375 252.644531 168.308594 C 252.445312 168.507812 252.207031 168.609375 251.925781 168.617188 C 251.640625 168.613281 251.398438 168.511719 251.199219 168.3125 C 251 168.109375 250.898438 167.871094 250.894531 167.585938 Z M 299.90625 162.789062 L 296.242188 162.789062 C 295.960938 162.792969 295.71875 162.894531 295.519531 163.09375 C 295.320312 163.292969 295.21875 163.535156 295.214844 163.816406 C 295.21875 164.101562 295.320312 164.34375 295.519531 164.542969 C 295.71875 164.742188 295.960938 164.84375 296.242188 164.847656 L 298.878906 164.847656 L 298.878906 167.585938 C 298.878906 167.722656 298.90625 167.855469 298.957031 167.980469 C 299.011719 168.105469 299.085938 168.21875 299.179688 168.3125 C 299.277344 168.410156 299.386719 168.484375 299.515625 168.539062 C 299.640625 168.589844 299.769531 168.617188 299.90625 168.617188 C 300.042969 168.617188 300.175781 168.589844 300.300781 168.539062 C 300.425781 168.484375 300.539062 168.410156 300.632812 168.3125 C 300.730469 168.21875 300.804688 168.105469 300.855469 167.980469 C 300.910156 167.855469 300.933594 167.722656 300.933594 167.585938 L 300.933594 163.816406 C 300.929688 163.535156 300.832031 163.292969 300.628906 163.09375 C 300.429688 162.894531 300.191406 162.792969 299.90625 162.789062 Z M 255.589844 212.449219 L 252.953125 212.449219 L 252.953125 209.707031 C 252.945312 209.425781 252.84375 209.183594 252.644531 208.984375 C 252.445312 208.785156 252.207031 208.679688 251.925781 208.675781 C 251.640625 208.679688 251.398438 208.78125 251.199219 208.980469 C 251 209.183594 250.898438 209.421875 250.894531 209.707031 L 250.894531 213.476562 C 250.898438 213.761719 251 214 251.199219 214.203125 C 251.398438 214.402344 251.640625 214.503906 251.925781 214.507812 L 255.589844 214.507812 C 255.726562 214.507812 255.855469 214.480469 255.980469 214.429688 C 256.109375 214.375 256.21875 214.300781 256.316406 214.207031 C 256.410156 214.109375 256.484375 213.996094 256.539062 213.871094 C 256.589844 213.746094 256.617188 213.613281 256.617188 213.476562 C 256.617188 213.339844 256.589844 213.210938 256.539062 213.082031 C 256.484375 212.957031 256.410156 212.84375 256.316406 212.75 C 256.21875 212.652344 256.109375 212.578125 255.980469 212.527344 C 255.855469 212.472656 255.726562 212.449219 255.589844 212.449219 Z M 299.90625 208.675781 C 299.625 208.679688 299.386719 208.785156 299.1875 208.984375 C 298.988281 209.183594 298.882812 209.425781 298.878906 209.707031 L 298.878906 212.449219 L 296.242188 212.449219 C 296.105469 212.449219 295.972656 212.472656 295.847656 212.527344 C 295.722656 212.578125 295.613281 212.652344 295.515625 212.75 C 295.417969 212.84375 295.34375 212.957031 295.292969 213.082031 C 295.238281 213.210938 295.214844 213.339844 295.214844 213.476562 C 295.214844 213.613281 295.238281 213.746094 295.292969 213.871094 C 295.34375 213.996094 295.417969 214.109375 295.515625 214.207031 C 295.613281 214.300781 295.722656 214.375 295.847656 214.429688 C 295.972656 214.480469 296.105469 214.507812 296.242188 214.507812 L 299.90625 214.507812 C 300.191406 214.503906 300.429688 214.402344 300.628906 214.203125 C 300.832031 214 300.929688 213.761719 300.933594 213.476562 L 300.933594 209.707031 C 300.933594 209.421875 300.832031 209.183594 300.628906 208.980469 C 300.429688 208.78125 300.191406 208.679688 299.90625 208.675781 Z M 291.789062 188.6875 L 290.703125 189.769531 C 289.765625 190.746094 288.746094 191.617188 287.636719 192.394531 C 286.53125 193.171875 285.359375 193.832031 284.125 194.378906 C 282.890625 194.925781 281.613281 195.351562 280.296875 195.652344 C 278.980469 195.949219 277.648438 196.121094 276.296875 196.160156 C 268.914062 196.335938 263.5 192.328125 260.921875 189.734375 C 260.546875 189.355469 260.25 189.023438 260.042969 188.785156 L 260.648438 188.074219 C 261.457031 187.15625 267.121094 180.964844 276.296875 181.128906 C 277.648438 181.171875 278.980469 181.339844 280.296875 181.640625 C 281.617188 181.941406 282.890625 182.363281 284.125 182.910156 C 285.359375 183.460938 286.53125 184.121094 287.636719 184.894531 C 288.746094 185.671875 289.765625 186.546875 290.703125 187.519531 Z M 273.644531 193.964844 C 273.125 193.742188 272.648438 193.449219 272.214844 193.085938 C 271.78125 192.722656 271.40625 192.304688 271.09375 191.832031 C 270.785156 191.359375 270.546875 190.851562 270.382812 190.308594 C 270.222656 189.765625 270.140625 189.210938 270.140625 188.644531 C 270.140625 188.078125 270.222656 187.523438 270.386719 186.980469 C 270.550781 186.4375 270.789062 185.929688 271.097656 185.457031 C 271.410156 184.984375 271.785156 184.566406 272.21875 184.203125 C 272.652344 183.839844 273.132812 183.546875 273.652344 183.328125 C 271.59375 183.589844 269.628906 184.175781 267.761719 185.085938 C 265.894531 185.996094 264.222656 187.183594 262.746094 188.644531 C 264.222656 190.105469 265.894531 191.292969 267.757812 192.203125 C 269.625 193.113281 271.585938 193.699219 273.644531 193.964844 Z M 279.632812 188.648438 C 279.636719 188.152344 279.539062 187.675781 279.351562 187.21875 C 279.164062 186.761719 278.894531 186.359375 278.546875 186.011719 C 278.199219 185.660156 277.796875 185.390625 277.339844 185.203125 C 276.886719 185.011719 276.410156 184.917969 275.917969 184.917969 C 275.421875 184.917969 274.949219 185.011719 274.492188 185.199219 C 274.039062 185.390625 273.632812 185.65625 273.285156 186.007812 C 272.9375 186.355469 272.667969 186.761719 272.480469 187.214844 C 272.289062 187.671875 272.195312 188.148438 272.195312 188.644531 C 272.195312 189.136719 272.289062 189.613281 272.476562 190.070312 C 272.667969 190.527344 272.9375 190.929688 273.285156 191.277344 C 273.632812 191.628906 274.035156 191.898438 274.492188 192.085938 C 274.949219 192.273438 275.421875 192.371094 275.914062 192.371094 C 276.410156 192.367188 276.882812 192.273438 277.335938 192.085938 C 277.792969 191.894531 278.195312 191.625 278.542969 191.277344 C 278.890625 190.929688 279.160156 190.527344 279.347656 190.070312 C 279.539062 189.613281 279.632812 189.140625 279.632812 188.648438 Z M 288.925781 188.648438 C 287.472656 187.207031 285.832031 186.035156 284 185.125 C 282.167969 184.21875 280.238281 183.625 278.214844 183.34375 C 278.730469 183.566406 279.203125 183.863281 279.632812 184.222656 C 280.0625 184.585938 280.433594 185.003906 280.742188 185.472656 C 281.050781 185.945312 281.285156 186.449219 281.449219 186.988281 C 281.609375 187.527344 281.691406 188.082031 281.691406 188.644531 C 281.691406 189.207031 281.609375 189.757812 281.449219 190.296875 C 281.289062 190.839844 281.054688 191.34375 280.746094 191.816406 C 280.4375 192.285156 280.070312 192.703125 279.640625 193.066406 C 279.210938 193.429688 278.738281 193.722656 278.222656 193.949219 C 280.246094 193.667969 282.171875 193.070312 284.003906 192.164062 C 285.832031 191.257812 287.472656 190.085938 288.925781 188.644531 Z M 297.523438 188.648438 C 297.523438 189.355469 297.488281 190.0625 297.417969 190.769531 C 297.347656 191.472656 297.246094 192.175781 297.105469 192.871094 C 296.96875 193.566406 296.796875 194.25 296.589844 194.929688 C 296.386719 195.609375 296.148438 196.273438 295.878906 196.929688 C 295.605469 197.585938 295.304688 198.226562 294.96875 198.851562 C 294.636719 199.476562 294.273438 200.082031 293.878906 200.671875 C 293.488281 201.261719 293.066406 201.828125 292.617188 202.378906 C 292.167969 202.925781 291.695312 203.449219 291.195312 203.953125 C 290.691406 204.453125 290.167969 204.929688 289.621094 205.378906 C 289.074219 205.828125 288.507812 206.25 287.917969 206.644531 C 287.332031 207.039062 286.726562 207.402344 286.101562 207.734375 C 285.476562 208.070312 284.835938 208.371094 284.183594 208.644531 C 283.53125 208.914062 282.863281 209.152344 282.1875 209.359375 C 281.511719 209.566406 280.824219 209.738281 280.128906 209.875 C 279.4375 210.011719 278.738281 210.117188 278.035156 210.1875 C 277.328125 210.257812 276.625 210.292969 275.914062 210.292969 C 275.207031 210.292969 274.503906 210.257812 273.796875 210.1875 C 273.09375 210.117188 272.394531 210.011719 271.699219 209.875 C 271.007812 209.738281 270.320312 209.566406 269.644531 209.359375 C 268.964844 209.152344 268.300781 208.914062 267.648438 208.644531 C 266.992188 208.371094 266.355469 208.070312 265.730469 207.734375 C 265.105469 207.402344 264.5 207.039062 263.910156 206.644531 C 263.324219 206.25 262.753906 205.828125 262.207031 205.378906 C 261.660156 204.929688 261.136719 204.453125 260.636719 203.953125 C 260.136719 203.449219 259.664062 202.925781 259.214844 202.378906 C 258.765625 201.828125 258.34375 201.261719 257.949219 200.671875 C 257.558594 200.082031 257.195312 199.476562 256.859375 198.851562 C 256.527344 198.226562 256.226562 197.585938 255.953125 196.929688 C 255.683594 196.273438 255.445312 195.609375 255.238281 194.929688 C 255.035156 194.25 254.863281 193.566406 254.722656 192.871094 C 254.585938 192.175781 254.484375 191.472656 254.414062 190.769531 C 254.34375 190.0625 254.308594 189.355469 254.308594 188.648438 C 254.308594 187.9375 254.34375 187.230469 254.414062 186.523438 C 254.484375 185.820312 254.585938 185.121094 254.722656 184.425781 C 254.863281 183.730469 255.035156 183.042969 255.238281 182.363281 C 255.445312 181.683594 255.683594 181.019531 255.953125 180.363281 C 256.226562 179.707031 256.527344 179.070312 256.859375 178.445312 C 257.195312 177.820312 257.558594 177.210938 257.949219 176.621094 C 258.34375 176.03125 258.765625 175.464844 259.214844 174.914062 C 259.664062 174.367188 260.136719 173.84375 260.636719 173.34375 C 261.136719 172.839844 261.660156 172.363281 262.207031 171.914062 C 262.753906 171.464844 263.324219 171.042969 263.910156 170.648438 C 264.5 170.257812 265.105469 169.890625 265.730469 169.558594 C 266.355469 169.222656 266.992188 168.921875 267.648438 168.648438 C 268.300781 168.378906 268.964844 168.140625 269.644531 167.933594 C 270.320312 167.730469 271.007812 167.554688 271.699219 167.417969 C 272.394531 167.28125 273.09375 167.175781 273.796875 167.105469 C 274.503906 167.035156 275.207031 167.003906 275.914062 167.003906 C 276.621094 167.003906 277.328125 167.039062 278.03125 167.109375 C 278.738281 167.179688 279.433594 167.285156 280.128906 167.421875 C 280.824219 167.5625 281.507812 167.734375 282.183594 167.941406 C 282.863281 168.144531 283.527344 168.386719 284.179688 168.65625 C 284.832031 168.929688 285.472656 169.230469 286.097656 169.566406 C 286.71875 169.898438 287.324219 170.265625 287.914062 170.65625 C 288.5 171.050781 289.070312 171.472656 289.617188 171.921875 C 290.164062 172.371094 290.6875 172.847656 291.1875 173.347656 C 291.6875 173.851562 292.160156 174.375 292.609375 174.921875 C 293.058594 175.46875 293.480469 176.039062 293.871094 176.628906 C 294.265625 177.214844 294.628906 177.824219 294.964844 178.449219 C 295.296875 179.074219 295.597656 179.714844 295.871094 180.367188 C 296.140625 181.023438 296.378906 181.6875 296.585938 182.367188 C 296.792969 183.042969 296.964844 183.730469 297.101562 184.425781 C 297.242188 185.121094 297.34375 185.820312 297.414062 186.527344 C 297.484375 187.230469 297.519531 187.9375 297.523438 188.648438 Z M 295.464844 188.648438 C 295.464844 188.003906 295.433594 187.367188 295.371094 186.726562 C 295.308594 186.089844 295.214844 185.453125 295.089844 184.824219 C 294.964844 184.195312 294.808594 183.574219 294.625 182.960938 C 294.4375 182.347656 294.222656 181.746094 293.976562 181.152344 C 293.734375 180.558594 293.460938 179.980469 293.15625 179.414062 C 292.855469 178.847656 292.527344 178.300781 292.171875 177.765625 C 291.816406 177.230469 291.433594 176.71875 291.027344 176.222656 C 290.621094 175.726562 290.191406 175.25 289.738281 174.796875 C 289.289062 174.34375 288.8125 173.914062 288.320312 173.507812 C 287.824219 173.101562 287.308594 172.71875 286.777344 172.363281 C 286.246094 172.003906 285.695312 171.675781 285.132812 171.375 C 284.566406 171.070312 283.988281 170.796875 283.398438 170.550781 C 282.804688 170.308594 282.203125 170.089844 281.589844 169.90625 C 280.976562 169.71875 280.359375 169.5625 279.730469 169.4375 C 279.101562 169.3125 278.46875 169.21875 277.832031 169.15625 C 277.195312 169.09375 276.554688 169.0625 275.914062 169.0625 C 275.273438 169.0625 274.636719 169.09375 274 169.15625 C 273.363281 169.21875 272.730469 169.3125 272.101562 169.4375 C 271.472656 169.5625 270.851562 169.71875 270.242188 169.90625 C 269.628906 170.089844 269.023438 170.308594 268.433594 170.550781 C 267.84375 170.796875 267.265625 171.070312 266.699219 171.375 C 266.132812 171.675781 265.585938 172.003906 265.054688 172.363281 C 264.519531 172.71875 264.007812 173.101562 263.511719 173.507812 C 263.019531 173.914062 262.542969 174.34375 262.089844 174.796875 C 261.636719 175.25 261.207031 175.726562 260.800781 176.222656 C 260.394531 176.71875 260.015625 177.230469 259.660156 177.765625 C 259.304688 178.300781 258.976562 178.847656 258.671875 179.414062 C 258.371094 179.980469 258.097656 180.558594 257.851562 181.152344 C 257.609375 181.746094 257.390625 182.347656 257.207031 182.960938 C 257.019531 183.574219 256.867188 184.195312 256.742188 184.824219 C 256.617188 185.453125 256.523438 186.089844 256.457031 186.726562 C 256.394531 187.367188 256.363281 188.003906 256.363281 188.648438 C 256.363281 189.289062 256.394531 189.929688 256.457031 190.566406 C 256.523438 191.203125 256.617188 191.839844 256.742188 192.46875 C 256.867188 193.097656 257.019531 193.71875 257.207031 194.332031 C 257.390625 194.945312 257.609375 195.550781 257.851562 196.140625 C 258.097656 196.734375 258.371094 197.3125 258.671875 197.878906 C 258.976562 198.445312 259.304688 198.996094 259.660156 199.527344 C 260.015625 200.0625 260.394531 200.574219 260.800781 201.070312 C 261.207031 201.566406 261.636719 202.042969 262.089844 202.496094 C 262.542969 202.949219 263.019531 203.378906 263.511719 203.785156 C 264.007812 204.195312 264.519531 204.574219 265.054688 204.929688 C 265.585938 205.289062 266.132812 205.617188 266.699219 205.917969 C 267.265625 206.222656 267.84375 206.496094 268.433594 206.742188 C 269.023438 206.988281 269.628906 207.203125 270.242188 207.390625 C 270.851562 207.574219 271.472656 207.730469 272.101562 207.855469 C 272.730469 207.980469 273.363281 208.074219 274 208.136719 C 274.636719 208.199219 275.273438 208.230469 275.914062 208.230469 C 276.554688 208.230469 277.195312 208.199219 277.832031 208.136719 C 278.46875 208.074219 279.101562 207.976562 279.726562 207.851562 C 280.355469 207.726562 280.976562 207.570312 281.589844 207.382812 C 282.199219 207.199219 282.800781 206.980469 283.394531 206.734375 C 283.984375 206.488281 284.5625 206.214844 285.128906 205.914062 C 285.691406 205.609375 286.238281 205.28125 286.773438 204.925781 C 287.304688 204.566406 287.816406 204.1875 288.3125 203.78125 C 288.808594 203.371094 289.28125 202.941406 289.734375 202.488281 C 290.1875 202.035156 290.617188 201.5625 291.023438 201.066406 C 291.429688 200.570312 291.808594 200.054688 292.164062 199.523438 C 292.519531 198.988281 292.847656 198.441406 293.152344 197.875 C 293.453125 197.308594 293.726562 196.730469 293.972656 196.136719 C 294.21875 195.546875 294.433594 194.941406 294.621094 194.328125 C 294.804688 193.714844 294.960938 193.09375 295.085938 192.464844 C 295.210938 191.835938 295.308594 191.203125 295.371094 190.566406 C 295.433594 189.925781 295.464844 189.289062 295.464844 188.648438 Z M 295.464844 188.648438 " fill-opacity="1" fill-rule="nonzero"/></g><g fill="#ffffff" fill-opacity="1"><g transform="translate(64.804688, 183.546082)"><g><path d="M 2.078125 0 L 7.753906 0 L 7.753906 -19.660156 L 2.078125 -19.660156 Z M 2.078125 0 "/></g></g></g><g fill="#ffffff" fill-opacity="1"><g transform="translate(74.632015, 183.546082)"><g><path d="M 2.078125 0 L 7.695312 0 L 7.695312 -10.027344 L 15.167969 0 L 19.773438 0 L 19.773438 -19.660156 L 14.183594 -19.660156 L 14.183594 -9.691406 L 6.714844 -19.660156 L 2.078125 -19.660156 Z M 2.078125 0 "/></g></g></g><g fill="#ffffff" fill-opacity="1"><g transform="translate(96.504843, 183.546082)"><g><path d="M 6.769531 0 L 12.414062 0 L 12.414062 -14.410156 L 18.398438 -14.410156 L 18.398438 -19.660156 L 0.785156 -19.660156 L 0.785156 -14.410156 L 6.769531 -14.410156 Z M 6.769531 0 "/></g></g></g><g fill="#ffffff" fill-opacity="1"><g transform="translate(115.682175, 183.546082)"><g><path d="M 2.078125 0 L 15.871094 0 L 15.871094 -4.632812 L 7.695312 -4.632812 L 7.695312 -7.667969 L 14.800781 -7.667969 L 14.800781 -12.21875 L 7.695312 -12.21875 L 7.695312 -15.082031 L 15.558594 -15.082031 L 15.558594 -19.660156 L 2.078125 -19.660156 Z M 2.078125 0 "/></g></g></g><g fill="#ffffff" fill-opacity="1"><g transform="translate(132.809803, 183.546082)"><g><path d="M 2.078125 0 L 7.753906 0 L 7.753906 -5.589844 L 9.886719 -5.589844 L 12.695312 0 L 19.128906 0 L 15.503906 -6.628906 C 17.582031 -7.78125 18.761719 -9.859375 18.761719 -12.609375 C 18.761719 -16.964844 15.8125 -19.660156 11.039062 -19.660156 L 2.078125 -19.660156 Z M 7.640625 -10.113281 L 7.640625 -15.027344 L 10.28125 -15.027344 C 12.078125 -15.027344 13.0625 -14.15625 13.0625 -12.582031 C 13.0625 -11.011719 12.078125 -10.113281 10.28125 -10.113281 Z M 7.640625 -10.113281 "/></g></g></g><g fill="#ffffff" fill-opacity="1"><g transform="translate(121.324215, 211.29608)"><g><path d="M 2.078125 0 L 7.753906 0 L 7.753906 -19.660156 L 2.078125 -19.660156 Z M 2.078125 0 "/></g></g></g><g fill="#ffffff" fill-opacity="1"><g transform="translate(131.151542, 211.29608)"><g><path d="M 2.078125 0 L 7.695312 0 L 7.695312 -10.027344 L 15.167969 0 L 19.773438 0 L 19.773438 -19.660156 L 14.183594 -19.660156 L 14.183594 -9.691406 L 6.714844 -19.660156 L 2.078125 -19.660156 Z M 2.078125 0 "/></g></g></g><g fill="#000000" fill-opacity="1"><g transform="translate(157.191277, 183.546082)"><g><path d="M 7.527344 0 L 13.144531 0 L 20.53125 -19.660156 L 14.492188 -19.660156 L 12.191406 -13.171875 L 10.363281 -8.0625 L 8.539062 -13.171875 L 6.234375 -19.660156 L 0.140625 -19.660156 Z M 7.527344 0 "/></g></g></g><g fill="#000000" fill-opacity="1"><g transform="translate(177.856742, 183.546082)"><g><path d="M 2.078125 0 L 7.753906 0 L 7.753906 -19.660156 L 2.078125 -19.660156 Z M 2.078125 0 "/></g></g></g><g fill="#000000" fill-opacity="1"><g transform="translate(187.684069, 183.546082)"><g><path d="M 2.078125 0 L 15.871094 0 L 15.871094 -4.632812 L 7.695312 -4.632812 L 7.695312 -7.667969 L 14.800781 -7.667969 L 14.800781 -12.21875 L 7.695312 -12.21875 L 7.695312 -15.082031 L 15.558594 -15.082031 L 15.558594 -19.660156 L 2.078125 -19.660156 Z M 2.078125 0 "/></g></g></g><g fill="#000000" fill-opacity="1"><g transform="translate(204.811697, 183.546082)"><g><path d="M 6.460938 0 L 12.105469 0 L 15.671875 -10.925781 L 19.238281 0 L 24.886719 0 L 31.207031 -19.660156 L 25.25 -19.660156 L 23.875 -15.28125 L 21.851562 -8.988281 L 18.371094 -19.660156 L 12.976562 -19.660156 L 11.515625 -15.28125 L 9.523438 -9.15625 L 7.527344 -15.28125 L 6.152344 -19.660156 L 0.140625 -19.660156 Z M 6.460938 0 "/></g></g></g><g fill="#000000" fill-opacity="1"><g transform="translate(157.191277, 211.29608)"><g><path d="M 9.128906 0.421875 C 14.015625 0.421875 16.910156 -1.882812 16.910156 -5.757812 C 16.910156 -9.015625 14.800781 -10.925781 10.027344 -11.992188 C 7.5 -12.554688 6.574219 -13.171875 6.574219 -14.183594 C 6.574219 -15.140625 7.414062 -15.730469 8.734375 -15.730469 C 10.308594 -15.730469 11.207031 -14.914062 11.207031 -13.425781 L 16.542969 -13.425781 C 16.542969 -17.46875 13.453125 -20.082031 8.621094 -20.082031 C 3.988281 -20.082031 1.125 -17.78125 1.125 -14.070312 C 1.125 -10.757812 3.285156 -8.707031 7.722656 -7.863281 C 10.113281 -7.386719 11.261719 -6.65625 11.261719 -5.535156 C 11.261719 -4.550781 10.421875 -3.988281 9.042969 -3.988281 C 7.414062 -3.988281 6.460938 -4.859375 6.460938 -6.375 L 0.984375 -6.375 C 0.984375 -2.132812 4.015625 0.421875 9.128906 0.421875 Z M 9.128906 0.421875 "/></g></g></g><g fill="#000000" fill-opacity="1"><g transform="translate(175.133174, 211.29608)"><g><path d="M 2.078125 0 L 7.753906 0 L 7.753906 -19.660156 L 2.078125 -19.660156 Z M 2.078125 0 "/></g></g></g><g fill="#000000" fill-opacity="1"><g transform="translate(184.960502, 211.29608)"><g><path d="M 11.460938 0.421875 C 18.230469 0.421875 22.46875 -4.492188 21.851562 -11.402344 L 10.476562 -11.402344 L 10.476562 -7.414062 L 15.898438 -7.414062 C 15.335938 -5.757812 13.761719 -4.632812 11.515625 -4.632812 C 8.371094 -4.632812 6.542969 -6.851562 6.542969 -9.832031 C 6.542969 -12.921875 8.539062 -15.027344 11.460938 -15.027344 C 13.199219 -15.027344 14.691406 -14.269531 15.449219 -13.03125 L 21.488281 -13.03125 C 20.335938 -17.328125 16.347656 -20.082031 11.375 -20.082031 C 5.195312 -20.082031 0.953125 -15.871094 0.953125 -9.832031 C 0.953125 -3.765625 5.222656 0.421875 11.460938 0.421875 Z M 11.460938 0.421875 "/></g></g></g><g fill="#000000" fill-opacity="1"><g transform="translate(207.7599, 211.29608)"><g><path d="M 13.820312 0 L 19.492188 0 L 19.492188 -19.660156 L 13.820312 -19.660156 L 13.820312 -12.609375 L 7.753906 -12.609375 L 7.753906 -19.660156 L 2.078125 -19.660156 L 2.078125 0 L 7.753906 0 L 7.753906 -7.386719 L 13.820312 -7.386719 Z M 13.820312 0 "/></g></g></g><g fill="#000000" fill-opacity="1"><g transform="translate(229.323863, 211.29608)"><g><path d="M 6.769531 0 L 12.414062 0 L 12.414062 -14.410156 L 18.398438 -14.410156 L 18.398438 -19.660156 L 0.785156 -19.660156 L 0.785156 -14.410156 L 6.769531 -14.410156 Z M 6.769531 0 "/></g></g></g></svg>