<svg xmlns="http://www.w3.org/2000/svg" xmlns:xlink="http://www.w3.org/1999/xlink" width="500" zoomAndPan="magnify" viewBox="0 0 375 374.999991" height="500" preserveAspectRatio="xMidYMid meet" version="1.0"><path fill="#caddff" d="M 326.980469 194.070312 C 297.851562 216.972656 339.863281 272.199219 323.207031 305.964844 C 300.785156 351.421875 163.632812 374.992188 81.6875 311.621094 C 13.058594 258.542969 0.0234375 157.550781 37.644531 122.328125 C 48.90625 111.789062 61.40625 110.226562 78.898438 99.949219 C 95.171875 90.386719 97.21875 87.671875 98.542969 85.8125 C 111.628906 67.453125 91.800781 47.253906 98.460938 30.910156 C 108.980469 5.089844 181.101562 0 238.664062 16.722656 C 254.1875 21.230469 332.617188 45.90625 354.433594 108.714844 C 356.121094 113.578125 371.980469 160.460938 348.429688 182.316406 C 340.265625 189.894531 334.742188 187.964844 326.980469 194.070312 " fill-opacity="1" fill-rule="nonzero"/><path fill="#000000" d="M 35.292969 220.832031 C 35.019531 220.832031 34.773438 220.65625 34.695312 220.382812 C 24.714844 185.765625 32.84375 157.996094 32.925781 157.71875 C 33.023438 157.390625 33.371094 157.203125 33.703125 157.300781 C 34.03125 157.402344 34.21875 157.746094 34.117188 158.074219 C 34.035156 158.351562 26.019531 185.789062 35.890625 220.039062 C 35.984375 220.367188 35.792969 220.710938 35.464844 220.808594 C 35.40625 220.824219 35.347656 220.832031 35.292969 220.832031 " fill-opacity="1" fill-rule="nonzero"/><path fill="#000000" d="M 24.976562 198.3125 C 24.6875 198.3125 24.429688 198.113281 24.367188 197.820312 C 24.351562 197.734375 22.585938 189.222656 23.042969 177.25 C 23.464844 166.191406 25.914062 149.820312 35.195312 134.601562 C 35.371094 134.308594 35.753906 134.214844 36.050781 134.394531 C 36.34375 134.570312 36.4375 134.957031 36.257812 135.246094 C 18.765625 163.929688 25.515625 197.230469 25.585938 197.5625 C 25.65625 197.898438 25.441406 198.230469 25.105469 198.300781 C 25.0625 198.308594 25.019531 198.3125 24.976562 198.3125 " fill-opacity="1" fill-rule="nonzero"/><path fill="#000000" d="M 349.226562 111.890625 C 349.113281 111.890625 348.996094 111.863281 348.894531 111.796875 C 348.601562 111.613281 348.519531 111.230469 348.699219 110.9375 L 350.421875 108.21875 C 350.601562 107.929688 350.988281 107.84375 351.28125 108.027344 C 351.566406 108.210938 351.65625 108.59375 351.472656 108.886719 L 349.753906 111.605469 C 349.632812 111.789062 349.433594 111.890625 349.226562 111.890625 " fill-opacity="1" fill-rule="nonzero"/><path fill="#000000" d="M 345.222656 118.222656 C 345.109375 118.222656 344.992188 118.191406 344.890625 118.125 C 344.601562 117.945312 344.515625 117.558594 344.695312 117.269531 L 346.417969 114.550781 C 346.601562 114.261719 346.984375 114.175781 347.273438 114.355469 C 347.566406 114.539062 347.652344 114.925781 347.46875 115.214844 L 345.75 117.933594 C 345.632812 118.121094 345.429688 118.222656 345.222656 118.222656 " fill-opacity="1" fill-rule="nonzero"/><path fill="#000000" d="M 346.273438 112.554688 C 346.160156 112.554688 346.046875 112.523438 345.941406 112.460938 L 343.222656 110.742188 C 342.933594 110.558594 342.84375 110.175781 343.027344 109.882812 C 343.214844 109.597656 343.597656 109.507812 343.886719 109.691406 L 346.605469 111.410156 C 346.898438 111.59375 346.984375 111.976562 346.800781 112.265625 C 346.679688 112.457031 346.480469 112.554688 346.273438 112.554688 " fill-opacity="1" fill-rule="nonzero"/><path fill="#000000" d="M 352.613281 116.554688 C 352.5 116.554688 352.386719 116.527344 352.28125 116.460938 L 349.5625 114.742188 C 349.273438 114.558594 349.183594 114.175781 349.371094 113.886719 C 349.550781 113.59375 349.9375 113.507812 350.226562 113.691406 L 352.945312 115.410156 C 353.238281 115.59375 353.324219 115.976562 353.140625 116.269531 C 353.023438 116.453125 352.820312 116.554688 352.613281 116.554688 " fill-opacity="1" fill-rule="nonzero"/><path fill="#000000" d="M 88.414062 18.683594 C 88.261719 18.683594 88.105469 18.628906 87.984375 18.511719 C 87.738281 18.277344 87.726562 17.878906 87.964844 17.632812 L 89.921875 15.585938 C 90.160156 15.339844 90.554688 15.332031 90.804688 15.566406 C 91.050781 15.804688 91.058594 16.199219 90.824219 16.445312 L 88.863281 18.492188 C 88.742188 18.621094 88.578125 18.683594 88.414062 18.683594 " fill-opacity="1" fill-rule="nonzero"/><path fill="#000000" d="M 81.558594 25.84375 C 81.40625 25.84375 81.25 25.789062 81.128906 25.671875 C 80.882812 25.433594 80.875 25.042969 81.109375 24.792969 L 83.070312 22.746094 C 83.308594 22.5 83.699219 22.488281 83.949219 22.726562 C 84.195312 22.964844 84.207031 23.359375 83.96875 23.609375 L 82.011719 25.652344 C 81.886719 25.78125 81.722656 25.84375 81.558594 25.84375 " fill-opacity="1" fill-rule="nonzero"/><path fill="#000000" d="M 83.484375 18.792969 C 83.324219 18.792969 83.167969 18.734375 83.046875 18.613281 L 81.058594 16.65625 C 80.8125 16.414062 80.808594 16.023438 81.050781 15.777344 C 81.292969 15.53125 81.6875 15.53125 81.929688 15.773438 L 83.917969 17.730469 C 84.164062 17.96875 84.167969 18.363281 83.925781 18.605469 C 83.804688 18.730469 83.644531 18.792969 83.484375 18.792969 " fill-opacity="1" fill-rule="nonzero"/><path fill="#000000" d="M 90.4375 25.648438 C 90.28125 25.648438 90.125 25.585938 90.003906 25.46875 L 88.015625 23.511719 C 87.769531 23.269531 87.765625 22.875 88.007812 22.628906 C 88.25 22.386719 88.644531 22.382812 88.886719 22.625 L 90.875 24.582031 C 91.121094 24.824219 91.125 25.214844 90.882812 25.460938 C 90.761719 25.585938 90.601562 25.648438 90.4375 25.648438 " fill-opacity="1" fill-rule="nonzero"/><path fill="#000000" d="M 338.152344 89.640625 C 337.714844 89.640625 337.285156 89.730469 336.875 89.914062 C 335.257812 90.640625 334.523438 92.574219 335.238281 94.230469 C 335.582031 95.035156 336.21875 95.652344 337.023438 95.964844 C 337.808594 96.269531 338.664062 96.25 339.433594 95.898438 C 341.046875 95.175781 341.78125 93.238281 341.066406 91.585938 C 340.722656 90.78125 340.085938 90.164062 339.28125 89.851562 C 338.914062 89.710938 338.535156 89.640625 338.152344 89.640625 Z M 338.15625 97.421875 C 337.621094 97.421875 337.085938 97.320312 336.570312 97.125 C 335.453125 96.6875 334.574219 95.835938 334.09375 94.722656 C 333.113281 92.449219 334.132812 89.785156 336.363281 88.78125 C 337.4375 88.296875 338.636719 88.265625 339.730469 88.691406 C 340.851562 89.125 341.730469 89.980469 342.210938 91.097656 C 343.191406 93.367188 342.171875 96.03125 339.941406 97.035156 C 339.371094 97.292969 338.761719 97.421875 338.15625 97.421875 " fill-opacity="1" fill-rule="nonzero"/><path fill="#99b9ff" d="M 312.320312 344.675781 L 304.210938 345.273438 L 152.328125 344.675781 C 145.429688 344.675781 139.863281 339.101562 139.890625 332.222656 L 141.039062 20.890625 C 141.066406 14.019531 146.675781 8.445312 153.570312 8.445312 L 305.316406 6.667969 C 322.757812 6.667969 326.027344 14.019531 326 20.890625 L 324.851562 332.222656 C 324.824219 339.101562 319.214844 344.675781 312.320312 344.675781 " fill-opacity="1" fill-rule="nonzero"/><path fill="#ffffff" d="M 302.695312 344.675781 L 142.699219 344.675781 C 135.804688 344.675781 130.234375 339.082031 130.257812 332.183594 L 131.285156 19.859375 C 131.308594 12.964844 136.917969 7.371094 143.8125 7.371094 L 303.808594 7.371094 C 310.699219 7.371094 316.273438 12.964844 316.25 19.859375 L 315.21875 332.183594 C 315.195312 339.082031 309.589844 344.675781 302.695312 344.675781 " fill-opacity="1" fill-rule="nonzero"/><path fill="#99b9ff" d="M 139.425781 332.617188 L 140.410156 34.402344 C 140.414062 32.808594 141.707031 31.519531 143.300781 31.519531 L 304.152344 31.519531 C 305.746094 31.519531 307.03125 32.808594 307.027344 34.402344 L 306.042969 332.617188 C 306.039062 334.207031 304.746094 335.5 303.152344 335.5 L 142.296875 335.5 C 140.707031 335.5 139.421875 334.207031 139.425781 332.617188 " fill-opacity="1" fill-rule="nonzero"/><path fill="#caddff" d="M 223.753906 23.257812 C 221.171875 23.257812 219.085938 21.164062 219.097656 18.578125 C 219.105469 15.996094 221.203125 13.902344 223.789062 13.902344 C 226.371094 13.902344 228.457031 15.996094 228.449219 18.578125 C 228.4375 21.164062 226.339844 23.257812 223.753906 23.257812 " fill-opacity="1" fill-rule="nonzero"/><path fill="#000000" d="M 315.757812 170.03125 C 315.753906 170.03125 315.753906 170.03125 315.753906 170.03125 C 315.410156 170.027344 315.132812 169.746094 315.136719 169.40625 L 315.628906 19.859375 C 315.636719 16.683594 314.414062 13.703125 312.175781 11.464844 C 309.941406 9.226562 306.96875 7.996094 303.808594 7.996094 L 143.8125 7.996094 C 137.269531 7.996094 131.929688 13.320312 131.910156 19.863281 L 131.515625 139.453125 C 131.511719 139.796875 131.234375 140.074219 130.890625 140.074219 C 130.546875 140.070312 130.269531 139.796875 130.269531 139.449219 L 130.664062 19.859375 C 130.6875 12.628906 136.585938 6.75 143.8125 6.75 L 303.808594 6.75 C 307.304688 6.75 310.589844 8.113281 313.054688 10.585938 C 315.53125 13.0625 316.882812 16.359375 316.875 19.863281 L 316.378906 169.410156 C 316.378906 169.75 316.097656 170.03125 315.757812 170.03125 " fill-opacity="1" fill-rule="nonzero"/><path fill="#000000" d="M 302.695312 345.296875 C 302.695312 345.296875 302.695312 345.296875 302.691406 345.296875 L 176.554688 344.703125 C 176.214844 344.703125 175.933594 344.421875 175.9375 344.082031 C 175.9375 343.738281 176.21875 343.460938 176.558594 343.460938 L 302.699219 344.050781 C 303.042969 344.050781 303.316406 344.332031 303.316406 344.675781 C 303.316406 345.019531 303.039062 345.296875 302.695312 345.296875 " fill-opacity="1" fill-rule="nonzero"/><path fill="#ffffff" d="M 164.992188 111.089844 L 165.367188 111.089844 L 165.097656 85.683594 L 164.722656 85.683594 C 157.710938 85.683594 152.085938 91.355469 152.160156 98.347656 L 152.160156 98.425781 C 152.234375 105.417969 157.980469 111.089844 164.992188 111.089844 " fill-opacity="1" fill-rule="nonzero"/><path fill="#000000" d="M 164.484375 86.308594 C 161.34375 86.371094 158.417969 87.621094 156.21875 89.839844 C 153.96875 92.113281 152.75 95.132812 152.78125 98.339844 L 152.78125 98.421875 C 152.851562 104.980469 158.191406 110.332031 164.734375 110.464844 Z M 165.367188 111.710938 L 164.992188 111.710938 C 157.648438 111.710938 151.613281 105.757812 151.539062 98.433594 L 151.539062 98.355469 C 151.5 94.808594 152.847656 91.476562 155.332031 88.96875 C 157.828125 86.449219 161.164062 85.0625 164.726562 85.0625 L 165.097656 85.0625 C 165.441406 85.0625 165.71875 85.339844 165.722656 85.679688 L 165.988281 111.082031 C 165.988281 111.25 165.925781 111.410156 165.808594 111.527344 C 165.691406 111.644531 165.53125 111.710938 165.367188 111.710938 " fill-opacity="1" fill-rule="nonzero"/><path fill="#ffffff" d="M 280.773438 111.089844 L 280.398438 111.089844 L 280.132812 85.6875 L 280.507812 85.6875 C 287.519531 85.6875 293.261719 91.355469 293.335938 98.347656 L 293.335938 98.429688 C 293.410156 105.421875 287.785156 111.089844 280.773438 111.089844 " fill-opacity="1" fill-rule="nonzero"/><path fill="#000000" d="M 280.765625 86.308594 L 281.015625 110.464844 C 284.152344 110.402344 287.078125 109.152344 289.28125 106.933594 C 291.53125 104.660156 292.75 101.644531 292.714844 98.433594 L 292.714844 98.355469 C 292.648438 91.796875 287.308594 86.445312 280.765625 86.308594 Z M 280.773438 111.710938 L 280.398438 111.710938 C 280.058594 111.710938 279.78125 111.4375 279.777344 111.09375 L 279.511719 85.691406 C 279.511719 85.523438 279.574219 85.363281 279.691406 85.246094 C 279.808594 85.128906 279.96875 85.0625 280.132812 85.0625 L 280.507812 85.0625 C 287.851562 85.0625 293.882812 91.019531 293.960938 98.339844 L 293.960938 98.417969 C 294 101.964844 292.648438 105.300781 290.164062 107.808594 C 287.671875 110.324219 284.339844 111.710938 280.773438 111.710938 " fill-opacity="1" fill-rule="nonzero"/><path fill="#ffffff" d="M 284.375 97.339844 C 284.085938 70.039062 256.199219 41.800781 222.15625 41.800781 C 188.117188 41.800781 160.816406 70.039062 161.105469 97.339844 C 161.390625 124.636719 189.152344 140.65625 223.191406 140.65625 C 257.230469 140.65625 284.660156 124.636719 284.375 97.339844 " fill-opacity="1" fill-rule="nonzero"/><path fill="#000000" d="M 222.15625 42.421875 C 205.746094 42.421875 189.570312 49.257812 177.765625 61.171875 C 167.441406 71.597656 161.59375 84.78125 161.726562 97.332031 C 161.859375 110.128906 168.121094 120.980469 179.832031 128.71875 C 190.886719 136.015625 206.285156 140.039062 223.191406 140.039062 C 244.304688 140.039062 262.566406 133.824219 273.292969 122.992188 C 280.335938 115.882812 283.855469 107.253906 283.753906 97.347656 C 283.476562 71.417969 257.082031 42.421875 222.15625 42.421875 Z M 223.191406 141.28125 C 206.042969 141.28125 190.402344 137.1875 179.148438 129.753906 C 167.074219 121.78125 160.621094 110.574219 160.480469 97.347656 C 160.347656 84.460938 166.324219 70.960938 176.882812 60.296875 C 188.914062 48.148438 205.417969 41.179688 222.15625 41.179688 C 238.378906 41.179688 254.070312 47.464844 266.347656 58.878906 C 278.054688 69.761719 284.851562 83.777344 284.996094 97.332031 C 285.101562 107.4375 281.363281 116.613281 274.179688 123.867188 C 263.21875 134.933594 244.632812 141.28125 223.191406 141.28125 " fill-opacity="1" fill-rule="nonzero"/><path fill="#ffffff" d="M 207.835938 148.859375 L 238.714844 148.859375 C 252.246094 148.859375 263.332031 159.800781 263.476562 173.292969 C 263.566406 182.210938 262.789062 191.101562 261.148438 199.851562 L 256.945312 222.269531 C 254.007812 237.9375 240.34375 249.230469 224.328125 249.230469 C 208.3125 249.230469 194.410156 237.9375 191.148438 222.269531 L 186.472656 199.851562 C 184.648438 191.101562 183.683594 182.210938 183.59375 173.292969 C 183.449219 159.800781 194.304688 148.859375 207.835938 148.859375 " fill-opacity="1" fill-rule="nonzero"/><path fill="#000000" d="M 207.839844 149.480469 C 201.453125 149.480469 195.472656 151.964844 191.011719 156.472656 C 186.5625 160.964844 184.144531 166.9375 184.210938 173.289062 C 184.304688 182.140625 185.269531 191.039062 187.082031 199.722656 L 191.757812 222.144531 C 194.953125 237.480469 208.652344 248.609375 224.328125 248.609375 C 240 248.609375 253.457031 237.484375 256.332031 222.15625 L 260.535156 199.734375 C 262.167969 191.050781 262.945312 182.15625 262.851562 173.300781 C 262.714844 160.167969 251.886719 149.480469 238.714844 149.480469 Z M 224.328125 249.851562 C 208.066406 249.851562 193.855469 238.304688 190.539062 222.398438 L 185.863281 199.976562 C 184.035156 191.210938 183.0625 182.238281 182.96875 173.300781 C 182.898438 166.617188 185.441406 160.328125 190.125 155.597656 C 194.828125 150.851562 201.117188 148.238281 207.839844 148.238281 L 238.714844 148.238281 C 252.566406 148.238281 263.953125 159.476562 264.09375 173.289062 C 264.191406 182.222656 263.402344 191.199219 261.761719 199.964844 L 257.554688 222.382812 C 254.570312 238.300781 240.597656 249.851562 224.328125 249.851562 " fill-opacity="1" fill-rule="nonzero"/><path fill="#000000" d="M 240.085938 149.480469 L 206.46875 149.480469 C 206.125 149.480469 205.847656 149.203125 205.847656 148.859375 C 205.847656 148.515625 206.125 148.238281 206.46875 148.238281 L 240.085938 148.238281 C 240.429688 148.238281 240.707031 148.515625 240.707031 148.859375 C 240.707031 149.203125 240.429688 149.480469 240.085938 149.480469 " fill-opacity="1" fill-rule="nonzero"/><path fill="#000000" d="M 181.214844 89.144531 L 240.566406 89.144531 C 246.730469 89.144531 251.789062 94.515625 251.855469 101.140625 L 251.9375 108.96875 C 251.992188 114.023438 249.34375 119.375 244.6875 120.25 C 228.269531 123.332031 194.226562 123.332031 177.742188 120.25 C 173.074219 119.375 170.308594 114.023438 170.257812 108.96875 L 170.175781 101.140625 C 170.105469 94.515625 175.046875 89.144531 181.214844 89.144531 " fill-opacity="1" fill-rule="nonzero"/><path fill="#5479f7" d="M 225 104.898438 C 225.023438 107.117188 226.71875 108.914062 228.785156 108.914062 C 230.847656 108.914062 232.503906 107.117188 232.484375 104.898438 C 232.457031 102.675781 230.765625 100.878906 228.699219 100.878906 C 226.632812 100.878906 224.976562 102.675781 225 104.898438 " fill-opacity="1" fill-rule="nonzero"/><path fill="#5479f7" d="M 185.207031 104.898438 C 185.230469 107.117188 186.925781 108.914062 188.992188 108.914062 C 191.054688 108.914062 192.710938 107.117188 192.6875 104.898438 C 192.664062 102.675781 190.972656 100.878906 188.90625 100.878906 C 186.839844 100.878906 185.183594 102.675781 185.207031 104.898438 " fill-opacity="1" fill-rule="nonzero"/><path fill="#5479f7" d="M 221.773438 209.195312 C 215.734375 209.195312 210.789062 204.292969 210.726562 198.246094 L 210.519531 178.164062 C 210.453125 172.113281 215.296875 167.210938 221.332031 167.210938 C 227.371094 167.210938 232.316406 172.113281 232.378906 178.164062 L 232.589844 198.246094 C 232.652344 204.292969 227.808594 209.195312 221.773438 209.195312 " fill-opacity="1" fill-rule="nonzero"/><path fill="#5479f7" d="M 223.535156 214.59375 L 221.316406 214.59375 C 212.734375 214.59375 205.679688 207.601562 205.589844 199.003906 L 205.386719 179.417969 C 205.382812 179.074219 205.660156 178.792969 206.003906 178.789062 C 206.007812 178.789062 206.007812 178.789062 206.011719 178.789062 C 206.351562 178.789062 206.628906 179.0625 206.632812 179.402344 L 206.835938 198.988281 C 206.917969 206.910156 213.414062 213.351562 221.316406 213.351562 L 223.535156 213.351562 C 227.113281 213.351562 230.460938 211.957031 232.964844 209.429688 C 235.480469 206.886719 236.847656 203.507812 236.808594 199.910156 L 236.59375 179.085938 C 236.589844 178.742188 236.863281 178.460938 237.207031 178.457031 C 237.574219 178.449219 237.832031 178.730469 237.835938 179.074219 L 238.054688 199.894531 C 238.09375 203.828125 236.601562 207.523438 233.851562 210.304688 C 231.109375 213.070312 227.445312 214.59375 223.535156 214.59375 " fill-opacity="1" fill-rule="nonzero"/><path fill="#5479f7" d="M 233.765625 224.105469 L 210.386719 224.105469 C 209.296875 224.105469 208.40625 223.21875 208.394531 222.125 C 208.382812 221.035156 209.257812 220.148438 210.347656 220.148438 L 233.726562 220.148438 C 234.816406 220.148438 235.710938 221.035156 235.722656 222.125 C 235.730469 223.21875 234.859375 224.105469 233.765625 224.105469 " fill-opacity="1" fill-rule="nonzero"/><path fill="#5479f7" d="M 223.445312 223.953125 L 220.40625 223.953125 L 220.242188 207.980469 L 223.277344 207.980469 L 223.445312 223.953125 " fill-opacity="1" fill-rule="nonzero"/><path fill="#5479f7" d="M 282.605469 171.640625 C 281.304688 171.597656 280.25 172.578125 280.25 173.835938 L 280.273438 203.007812 C 280.277344 204.265625 281.332031 205.320312 282.636719 205.363281 C 283.9375 205.40625 284.992188 204.425781 284.992188 203.167969 L 284.964844 173.996094 C 284.964844 172.738281 283.910156 171.6875 282.605469 171.640625 " fill-opacity="1" fill-rule="nonzero"/><path fill="#5479f7" d="M 293.253906 162.257812 C 291.953125 162.214844 290.898438 163.195312 290.898438 164.453125 L 290.941406 213.113281 C 290.941406 214.367188 291.996094 215.421875 293.300781 215.464844 C 294.601562 215.507812 295.65625 214.527344 295.65625 213.273438 L 295.613281 164.613281 C 295.613281 163.355469 294.558594 162.300781 293.253906 162.257812 " fill-opacity="1" fill-rule="nonzero"/><path fill="#5479f7" d="M 303.921875 171.328125 C 302.617188 171.28125 301.5625 172.265625 301.566406 173.519531 L 301.59375 204.761719 C 301.59375 206.019531 302.652344 207.070312 303.953125 207.117188 C 305.253906 207.160156 306.308594 206.175781 306.308594 204.921875 L 306.28125 173.679688 C 306.28125 172.421875 305.222656 171.371094 303.921875 171.328125 " fill-opacity="1" fill-rule="nonzero"/><path fill="#5479f7" d="M 314.578125 174.949219 C 313.28125 174.910156 312.222656 175.890625 312.222656 177.148438 L 312.25 201.855469 C 312.25 203.113281 313.304688 204.164062 314.605469 204.207031 C 315.910156 204.253906 316.964844 203.273438 316.960938 202.015625 L 316.941406 177.304688 C 316.941406 176.050781 315.882812 174.996094 314.578125 174.949219 " fill-opacity="1" fill-rule="nonzero"/><path fill="#5479f7" d="M 272.765625 178.664062 C 271.464844 178.621094 270.414062 179.429688 270.425781 180.472656 L 270.597656 200.945312 C 270.605469 201.984375 271.667969 202.867188 272.96875 202.910156 C 274.273438 202.953125 275.320312 202.144531 275.3125 201.105469 L 275.140625 180.632812 C 275.128906 179.589844 274.066406 178.710938 272.765625 178.664062 " fill-opacity="1" fill-rule="nonzero"/><path fill="#5479f7" d="M 344.390625 177.09375 C 343.085938 177.050781 342.035156 178.03125 342.035156 179.285156 L 342.054688 203.996094 C 342.054688 205.253906 343.113281 206.308594 344.414062 206.351562 C 345.71875 206.394531 346.773438 205.410156 346.769531 204.15625 L 346.75 179.445312 C 346.75 178.191406 345.695312 177.136719 344.390625 177.09375 " fill-opacity="1" fill-rule="nonzero"/><path fill="#5479f7" d="M 353.769531 182.726562 C 352.46875 182.644531 351.414062 183.210938 351.410156 183.996094 L 351.3125 199.433594 C 351.3125 200.21875 352.359375 200.921875 353.660156 201.003906 C 354.960938 201.085938 356.015625 200.515625 356.023438 199.730469 L 356.117188 184.296875 C 356.121094 183.511719 355.070312 182.808594 353.769531 182.726562 " fill-opacity="1" fill-rule="nonzero"/><path fill="#5479f7" d="M 325.242188 179.953125 C 323.941406 179.910156 322.886719 180.890625 322.886719 182.148438 L 322.902344 197.574219 C 322.902344 198.828125 323.957031 199.882812 325.261719 199.925781 C 326.5625 199.972656 327.617188 198.988281 327.617188 197.734375 L 327.601562 182.308594 C 327.601562 181.050781 326.546875 179.996094 325.242188 179.953125 " fill-opacity="1" fill-rule="nonzero"/><path fill="#5479f7" d="M 335.0625 170.820312 C 333.761719 170.777344 332.707031 171.757812 332.707031 173.015625 L 332.734375 207.449219 C 332.738281 208.703125 333.796875 209.757812 335.097656 209.804688 C 336.398438 209.847656 337.453125 208.863281 337.453125 207.605469 L 337.421875 173.171875 C 337.421875 171.917969 336.363281 170.863281 335.0625 170.820312 " fill-opacity="1" fill-rule="nonzero"/><path fill="#5479f7" d="M 163.886719 171.722656 C 162.585938 171.6875 161.542969 172.648438 161.558594 173.867188 L 161.941406 207.238281 C 161.957031 208.453125 163.019531 209.46875 164.324219 209.5 C 165.625 209.53125 166.667969 208.570312 166.652344 207.351562 L 166.269531 173.984375 C 166.253906 172.765625 165.1875 171.753906 163.886719 171.722656 " fill-opacity="1" fill-rule="nonzero"/><path fill="#5479f7" d="M 142.636719 175.90625 C 141.335938 175.871094 140.292969 176.835938 140.308594 178.050781 L 140.582031 201.996094 C 140.597656 203.214844 141.664062 204.226562 142.964844 204.257812 C 144.265625 204.292969 145.3125 203.332031 145.296875 202.113281 L 145.019531 178.167969 C 145.007812 176.953125 143.9375 175.9375 142.636719 175.90625 " fill-opacity="1" fill-rule="nonzero"/><path fill="#5479f7" d="M 132.039062 180.140625 C 130.738281 180.109375 129.691406 181.070312 129.707031 182.285156 L 129.878906 197.234375 C 129.894531 198.453125 130.960938 199.464844 132.261719 199.496094 C 133.5625 199.527344 134.605469 198.570312 134.59375 197.351562 L 134.417969 182.402344 C 134.40625 181.1875 133.339844 180.171875 132.039062 180.140625 " fill-opacity="1" fill-rule="nonzero"/><path fill="#5479f7" d="M 153.195312 179.3125 C 151.890625 179.277344 150.847656 180.242188 150.863281 181.457031 L 151.035156 196.40625 C 151.050781 197.621094 152.117188 198.636719 153.417969 198.667969 C 154.71875 198.699219 155.761719 197.742188 155.746094 196.523438 L 155.578125 181.574219 C 155.5625 180.355469 154.496094 179.34375 153.195312 179.3125 " fill-opacity="1" fill-rule="nonzero"/><path fill="#5479f7" d="M 173.828125 176.007812 C 172.527344 175.976562 171.472656 177.269531 171.476562 178.898438 L 171.519531 198.875 C 171.523438 200.503906 172.582031 201.847656 173.882812 201.878906 C 175.1875 201.910156 176.238281 200.617188 176.234375 198.992188 L 176.191406 179.011719 C 176.1875 177.386719 175.128906 176.039062 173.828125 176.007812 " fill-opacity="1" fill-rule="nonzero"/><path fill="#99b9ff" d="M 121.28125 170.667969 C 119.976562 170.632812 118.933594 171.59375 118.949219 172.8125 L 119.332031 206.179688 C 119.347656 207.398438 120.414062 208.410156 121.714844 208.441406 C 123.015625 208.476562 124.0625 207.515625 124.046875 206.296875 L 123.660156 172.929688 C 123.648438 171.710938 122.582031 170.699219 121.28125 170.667969 " fill-opacity="1" fill-rule="nonzero"/><path fill="#99b9ff" d="M 110.679688 174.8125 C 109.378906 174.78125 108.332031 175.742188 108.347656 176.957031 L 108.632812 201.507812 C 108.644531 202.722656 109.710938 203.738281 111.011719 203.769531 C 112.3125 203.804688 113.359375 202.839844 113.34375 201.625 L 113.0625 177.074219 C 113.046875 175.859375 111.980469 174.84375 110.679688 174.8125 " fill-opacity="1" fill-rule="nonzero"/><path fill="#99b9ff" d="M 108.683594 41.699219 L 31.929688 41.847656 C 28.230469 41.855469 25.234375 44.859375 25.242188 48.554688 L 25.304688 80.300781 C 25.3125 83.996094 28.316406 86.988281 32.015625 86.984375 L 89.488281 86.875 L 106.265625 99.699219 L 106.238281 86.839844 L 108.769531 86.835938 C 112.46875 86.828125 115.464844 83.824219 115.457031 80.125 L 115.394531 48.382812 C 115.386719 44.683594 112.382812 41.695312 108.683594 41.699219 " fill-opacity="1" fill-rule="nonzero"/><path fill="#000000" d="M 106.078125 101.449219 C 105.9375 101.449219 105.796875 101.402344 105.683594 101.3125 L 89.417969 88.179688 L 66.351562 87.613281 C 66.007812 87.601562 65.738281 87.316406 65.746094 86.972656 C 65.753906 86.632812 66.027344 86.367188 66.382812 86.367188 L 89.660156 86.941406 C 89.796875 86.945312 89.929688 86.992188 90.035156 87.078125 L 105.484375 99.550781 L 105.769531 87.960938 C 105.773438 87.796875 105.84375 87.636719 105.964844 87.523438 C 106.085938 87.410156 106.242188 87.347656 106.410156 87.351562 L 108.9375 87.414062 C 108.988281 87.417969 109.039062 87.417969 109.089844 87.417969 C 112.371094 87.417969 115.082031 84.789062 115.164062 81.492188 L 115.945312 49.757812 C 115.984375 48.136719 115.390625 46.59375 114.269531 45.417969 C 113.152344 44.246094 111.640625 43.574219 110.019531 43.535156 L 33.289062 41.652344 C 31.675781 41.601562 30.125 42.203125 28.949219 43.320312 C 27.773438 44.441406 27.101562 45.949219 27.0625 47.574219 L 26.28125 79.304688 C 26.242188 80.929688 26.835938 82.46875 27.957031 83.644531 C 29.074219 84.820312 30.585938 85.488281 32.207031 85.527344 L 41.441406 85.753906 C 41.785156 85.761719 42.058594 86.050781 42.050781 86.390625 C 42.042969 86.734375 41.757812 87.003906 41.410156 87 L 32.175781 86.773438 C 30.222656 86.722656 28.402344 85.917969 27.054688 84.503906 C 25.707031 83.085938 24.988281 81.230469 25.035156 79.277344 L 25.820312 47.539062 C 25.867188 45.585938 26.675781 43.769531 28.089844 42.421875 C 29.507812 41.074219 31.359375 40.367188 33.320312 40.40625 L 110.046875 42.292969 C 112.003906 42.34375 113.824219 43.148438 115.171875 44.5625 C 116.519531 45.976562 117.238281 47.832031 117.1875 49.789062 L 116.40625 81.523438 C 116.308594 85.496094 113.042969 88.660156 109.089844 88.660156 C 109.027344 88.660156 108.96875 88.660156 108.90625 88.65625 L 107 88.613281 L 106.699219 100.84375 C 106.691406 101.078125 106.554688 101.292969 106.339844 101.394531 C 106.253906 101.433594 106.164062 101.449219 106.078125 101.449219 " fill-opacity="1" fill-rule="nonzero"/><path fill="#000000" d="M 59.519531 87.480469 C 59.511719 87.480469 59.503906 87.480469 59.5 87.480469 L 52.1875 87.261719 C 51.847656 87.253906 51.574219 86.964844 51.585938 86.621094 C 51.597656 86.277344 51.890625 85.996094 52.226562 86.019531 L 59.535156 86.238281 C 59.878906 86.25 60.148438 86.535156 60.140625 86.878906 C 60.128906 87.214844 59.851562 87.480469 59.519531 87.480469 " fill-opacity="1" fill-rule="nonzero"/><path fill="#5479f7" d="M 67.292969 57.734375 C 67.285156 57.734375 67.28125 57.734375 67.277344 57.734375 L 37.433594 57.003906 C 37.089844 56.996094 36.820312 56.707031 36.828125 56.363281 C 36.835938 56.023438 37.105469 55.746094 37.464844 55.757812 L 67.304688 56.492188 C 67.648438 56.5 67.921875 56.785156 67.914062 57.128906 C 67.90625 57.46875 67.628906 57.734375 67.292969 57.734375 " fill-opacity="1" fill-rule="nonzero"/><path fill="#5479f7" d="M 104.523438 58.664062 C 104.519531 58.664062 104.515625 58.664062 104.507812 58.664062 L 72.890625 57.882812 C 72.546875 57.875 72.277344 57.589844 72.285156 57.246094 C 72.292969 56.910156 72.570312 56.640625 72.90625 56.640625 C 72.910156 56.640625 72.917969 56.640625 72.921875 56.640625 L 104.539062 57.417969 C 104.882812 57.425781 105.15625 57.710938 105.144531 58.054688 C 105.136719 58.394531 104.859375 58.664062 104.523438 58.664062 " fill-opacity="1" fill-rule="nonzero"/><path fill="#5479f7" d="M 81.171875 72.960938 C 81.167969 72.960938 81.160156 72.960938 81.15625 72.960938 L 37.429688 71.835938 C 37.085938 71.828125 36.816406 71.542969 36.824219 71.199219 C 36.835938 70.863281 37.113281 70.59375 37.449219 70.59375 C 37.453125 70.59375 37.457031 70.59375 37.464844 70.59375 L 81.1875 71.71875 C 81.53125 71.726562 81.800781 72.011719 81.792969 72.355469 C 81.785156 72.691406 81.507812 72.960938 81.171875 72.960938 " fill-opacity="1" fill-rule="nonzero"/><path fill="#5479f7" d="M 104.523438 73.496094 C 104.519531 73.496094 104.511719 73.496094 104.507812 73.496094 L 86.773438 73.109375 C 86.429688 73.101562 86.15625 72.816406 86.164062 72.472656 C 86.171875 72.132812 86.457031 71.871094 86.800781 71.867188 L 104.535156 72.253906 C 104.878906 72.261719 105.152344 72.546875 105.144531 72.890625 C 105.136719 73.226562 104.859375 73.496094 104.523438 73.496094 " fill-opacity="1" fill-rule="nonzero"/><path fill="#5479f7" d="M 55.625 64.789062 C 55.621094 64.789062 55.617188 64.789062 55.609375 64.789062 L 37.4375 64.421875 C 37.09375 64.414062 36.820312 64.128906 36.828125 63.789062 C 36.832031 63.445312 37.117188 63.179688 37.460938 63.179688 L 55.636719 63.546875 C 55.980469 63.550781 56.253906 63.835938 56.246094 64.179688 C 56.238281 64.519531 55.960938 64.789062 55.625 64.789062 " fill-opacity="1" fill-rule="nonzero"/><path fill="#5479f7" d="M 104.523438 66.078125 C 104.519531 66.078125 104.515625 66.078125 104.507812 66.078125 L 61.222656 64.933594 C 60.878906 64.921875 60.609375 64.636719 60.617188 64.292969 C 60.628906 63.949219 60.925781 63.671875 61.257812 63.6875 L 104.539062 64.832031 C 104.882812 64.84375 105.15625 65.128906 105.144531 65.472656 C 105.136719 65.808594 104.859375 66.078125 104.523438 66.078125 " fill-opacity="1" fill-rule="nonzero"/><path fill="#5479f7" d="M 130.425781 317.515625 C 130.425781 317.515625 112.765625 278.84375 122.894531 228.703125 C 122.894531 228.703125 150.261719 251.621094 140.394531 317.515625 L 130.425781 317.515625 " fill-opacity="1" fill-rule="nonzero"/><path fill="#ffffff" d="M 134.742188 314.105469 C 134.730469 314.105469 134.71875 314.105469 134.707031 314.105469 C 134.367188 314.085938 134.101562 313.792969 134.121094 313.449219 C 135.472656 288.738281 124.316406 235.972656 124.203125 235.441406 C 124.132812 235.109375 124.347656 234.777344 124.683594 234.707031 C 125.019531 234.632812 125.351562 234.847656 125.421875 235.183594 C 125.535156 235.71875 136.722656 288.640625 135.363281 313.519531 C 135.347656 313.847656 135.070312 314.105469 134.742188 314.105469 " fill-opacity="1" fill-rule="nonzero"/><path fill="#caddff" d="M 148.1875 254.640625 C 148.1875 254.640625 125.4375 295.710938 139.125 313.484375 L 146.441406 313.484375 C 146.441406 313.484375 161.074219 281.378906 148.1875 254.640625 " fill-opacity="1" fill-rule="nonzero"/><path fill="#ffffff" d="M 142.539062 315.195312 C 142.207031 315.195312 141.933594 314.933594 141.917969 314.597656 C 141.261719 297.632812 147.507812 254.976562 147.574219 254.546875 C 147.625 254.207031 147.9375 253.972656 148.28125 254.023438 C 148.617188 254.074219 148.851562 254.390625 148.804688 254.730469 C 148.742188 255.15625 142.507812 297.699219 143.164062 314.546875 C 143.175781 314.890625 142.910156 315.179688 142.566406 315.191406 C 142.558594 315.195312 142.550781 315.195312 142.539062 315.195312 " fill-opacity="1" fill-rule="nonzero"/><path fill="#99b9ff" d="M 104.753906 269.949219 C 104.753906 269.949219 124.132812 276.558594 131.152344 315.675781 L 123.527344 315.675781 C 123.527344 315.675781 107.621094 294.191406 104.753906 269.949219 " fill-opacity="1" fill-rule="nonzero"/><path fill="#caddff" d="M 126.984375 315.195312 C 126.6875 315.195312 126.421875 314.980469 126.371094 314.675781 C 123.492188 297.277344 111.023438 279.757812 110.898438 279.582031 C 110.695312 279.300781 110.761719 278.914062 111.039062 278.710938 C 111.320312 278.515625 111.707031 278.578125 111.90625 278.855469 C 112.035156 279.035156 124.671875 296.792969 127.597656 314.472656 C 127.65625 314.808594 127.425781 315.128906 127.085938 315.183594 C 127.050781 315.191406 127.019531 315.195312 126.984375 315.195312 " fill-opacity="1" fill-rule="nonzero"/><path fill="#ffffff" d="M 112.230469 312.570312 L 160.042969 312.570312 L 161.117188 335.167969 C 161.378906 340.707031 156.953125 345.34375 151.402344 345.34375 L 124.09375 345.34375 C 117.527344 345.34375 112.203125 340.019531 112.210938 333.457031 L 112.230469 312.570312 " fill-opacity="1" fill-rule="nonzero"/><path fill="#5479f7" d="M 112.851562 313.191406 L 112.832031 333.457031 C 112.832031 336.46875 114 339.296875 116.128906 341.421875 C 118.253906 343.550781 121.085938 344.722656 124.09375 344.722656 L 151.402344 344.722656 C 153.917969 344.722656 156.253906 343.722656 157.988281 341.90625 C 159.722656 340.089844 160.613281 337.707031 160.496094 335.195312 L 159.449219 313.191406 Z M 151.402344 345.96875 L 124.09375 345.96875 C 120.753906 345.96875 117.609375 344.664062 115.246094 342.300781 C 112.882812 339.9375 111.585938 336.796875 111.589844 333.457031 L 111.609375 312.566406 C 111.609375 312.226562 111.886719 311.949219 112.230469 311.949219 L 160.042969 311.949219 C 160.375 311.949219 160.648438 312.207031 160.664062 312.539062 L 161.738281 335.136719 C 161.871094 337.992188 160.863281 340.699219 158.890625 342.765625 C 156.917969 344.828125 154.257812 345.96875 151.402344 345.96875 " fill-opacity="1" fill-rule="nonzero"/><path fill="#caddff" d="M 341.136719 319.035156 L 227.910156 319.035156 C 224.988281 319.035156 222.597656 316.644531 222.597656 313.726562 L 222.597656 269.148438 C 222.597656 266.226562 224.988281 263.835938 227.910156 263.835938 L 254.527344 263.835938 C 254.882812 263.835938 255.171875 263.558594 255.1875 263.203125 L 258.957031 248.792969 L 273.003906 263.683594 C 273.121094 263.785156 273.269531 263.835938 273.425781 263.835938 L 341.136719 263.835938 C 344.058594 263.835938 346.449219 266.226562 346.449219 269.148438 L 346.449219 313.726562 C 346.449219 316.644531 344.058594 319.035156 341.136719 319.035156 " fill-opacity="1" fill-rule="nonzero"/><path fill="#5479f7" d="M 333.765625 282.664062 L 306.636719 282.664062 C 306.292969 282.664062 306.015625 282.386719 306.015625 282.042969 C 306.015625 281.703125 306.292969 281.421875 306.636719 281.421875 L 333.765625 281.421875 C 334.113281 281.421875 334.390625 281.703125 334.390625 282.042969 C 334.390625 282.386719 334.113281 282.664062 333.765625 282.664062 " fill-opacity="1" fill-rule="nonzero"/><path fill="#5479f7" d="M 295.007812 282.664062 L 235.214844 282.664062 C 234.871094 282.664062 234.59375 282.386719 234.59375 282.042969 C 234.59375 281.703125 234.871094 281.421875 235.214844 281.421875 L 295.007812 281.421875 C 295.351562 281.421875 295.628906 281.703125 295.628906 282.042969 C 295.628906 282.386719 295.351562 282.664062 295.007812 282.664062 " fill-opacity="1" fill-rule="nonzero"/><path fill="#5479f7" d="M 333.765625 294.675781 L 271.75 294.675781 C 271.40625 294.675781 271.125 294.394531 271.125 294.050781 C 271.125 293.710938 271.40625 293.429688 271.75 293.429688 L 333.765625 293.429688 C 334.113281 293.429688 334.390625 293.710938 334.390625 294.050781 C 334.390625 294.394531 334.113281 294.675781 333.765625 294.675781 " fill-opacity="1" fill-rule="nonzero"/><path fill="#5479f7" d="M 259.730469 294.675781 L 235.214844 294.675781 C 234.871094 294.675781 234.59375 294.394531 234.59375 294.050781 C 234.59375 293.710938 234.871094 293.429688 235.214844 293.429688 L 259.730469 293.429688 C 260.074219 293.429688 260.355469 293.710938 260.355469 294.050781 C 260.355469 294.394531 260.074219 294.675781 259.730469 294.675781 " fill-opacity="1" fill-rule="nonzero"/><path fill="#5479f7" d="M 333.765625 305.132812 L 295.832031 305.132812 C 295.484375 305.132812 295.207031 304.855469 295.207031 304.511719 C 295.207031 304.167969 295.484375 303.890625 295.832031 303.890625 L 333.765625 303.890625 C 334.113281 303.890625 334.390625 304.167969 334.390625 304.511719 C 334.390625 304.855469 334.113281 305.132812 333.765625 305.132812 " fill-opacity="1" fill-rule="nonzero"/><path fill="#5479f7" d="M 283.738281 305.132812 L 235.214844 305.132812 C 234.871094 305.132812 234.589844 304.855469 234.589844 304.511719 C 234.589844 304.167969 234.871094 303.890625 235.214844 303.890625 L 283.738281 303.890625 C 284.082031 303.890625 284.359375 304.167969 284.359375 304.511719 C 284.359375 304.855469 284.082031 305.132812 283.738281 305.132812 " fill-opacity="1" fill-rule="nonzero"/><path fill="#000000" d="M 341.328125 320.53125 C 341.316406 320.53125 341.300781 320.53125 341.285156 320.53125 L 226.742188 319.597656 C 225.339844 319.585938 224.019531 319.023438 223.03125 318.019531 C 222.039062 317.011719 221.5 315.6875 221.511719 314.285156 L 221.886719 268.386719 C 221.910156 265.496094 224.273438 263.160156 227.160156 263.160156 C 227.175781 263.160156 227.191406 263.160156 227.203125 263.160156 L 251.207031 263.355469 L 254.789062 263.574219 L 258.351562 248.652344 C 258.402344 248.429688 258.578125 248.253906 258.796875 248.195312 C 259.019531 248.136719 259.257812 248.207031 259.414062 248.375 L 273.40625 263.539062 L 295.011719 263.710938 C 295.355469 263.714844 295.628906 263.996094 295.625 264.339844 C 295.625 264.683594 295.351562 264.976562 295 264.957031 L 273.125 264.777344 C 272.953125 264.777344 272.792969 264.703125 272.675781 264.578125 L 259.289062 250.078125 L 255.878906 264.371094 C 255.808594 264.664062 255.53125 264.863281 255.238281 264.847656 L 251.164062 264.597656 L 227.195312 264.402344 C 224.976562 264.371094 223.148438 266.175781 223.132812 268.398438 L 222.757812 314.296875 C 222.746094 315.367188 223.160156 316.378906 223.917969 317.148438 C 224.675781 317.917969 225.683594 318.347656 226.753906 318.355469 L 341.296875 319.289062 C 341.304688 319.289062 341.316406 319.289062 341.328125 319.289062 C 343.535156 319.289062 345.339844 317.503906 345.355469 315.292969 L 345.734375 269.398438 C 345.75 267.175781 343.957031 265.355469 341.738281 265.335938 L 300.429688 265 C 300.085938 265 299.808594 264.71875 299.8125 264.375 C 299.816406 264.03125 300.113281 263.761719 300.441406 263.757812 L 341.746094 264.09375 C 344.652344 264.117188 347 266.503906 346.976562 269.40625 L 346.601562 315.304688 C 346.578125 318.195312 344.214844 320.53125 341.328125 320.53125 " fill-opacity="1" fill-rule="nonzero"/><path fill="#ffffff" d="M 60.792969 323.230469 L 61.78125 332.628906 L 68.136719 333.375 L 68.136719 322.230469 L 60.792969 323.230469 " fill-opacity="1" fill-rule="nonzero"/><path fill="#000000" d="M 62.347656 332.070312 L 67.515625 332.675781 L 67.515625 322.945312 L 61.472656 323.765625 Z M 68.136719 333.996094 C 68.113281 333.996094 68.089844 333.996094 68.066406 333.992188 L 61.707031 333.246094 C 61.417969 333.214844 61.191406 332.984375 61.160156 332.695312 L 60.171875 323.296875 C 60.136719 322.964844 60.375 322.660156 60.707031 322.617188 L 68.054688 321.617188 C 68.234375 321.589844 68.410156 321.644531 68.546875 321.761719 C 68.683594 321.878906 68.761719 322.050781 68.761719 322.230469 L 68.761719 333.375 C 68.761719 333.550781 68.683594 333.71875 68.550781 333.839844 C 68.4375 333.941406 68.289062 333.996094 68.136719 333.996094 " fill-opacity="1" fill-rule="nonzero"/><path fill="#5479f7" d="M 69.140625 349.734375 C 66.488281 350.109375 62.144531 350.433594 57.042969 349.730469 C 55.371094 349.496094 54.261719 347.878906 54.664062 346.238281 C 55.789062 341.675781 57.722656 333.023438 61.046875 329.011719 L 61.871094 331.1875 L 63.011719 329.140625 C 63.167969 328.859375 63.445312 328.667969 63.765625 328.628906 L 66.261719 328.3125 C 66.785156 328.246094 67.269531 328.589844 67.378906 329.105469 L 67.773438 330.992188 L 68.644531 328.515625 L 71.550781 346.554688 C 71.75 348.09375 70.679688 349.519531 69.140625 349.734375 " fill-opacity="1" fill-rule="nonzero"/><path fill="#000000" d="M 60.867188 330.292969 C 58.242188 334.183594 56.550781 341.125 55.511719 345.402344 L 55.269531 346.386719 C 55.117188 347.003906 55.230469 347.632812 55.585938 348.15625 C 55.941406 348.679688 56.503906 349.027344 57.128906 349.113281 C 62.113281 349.804688 66.363281 349.496094 69.054688 349.117188 C 70.246094 348.949219 71.089844 347.835938 70.933594 346.636719 L 68.421875 331.03125 L 68.359375 331.199219 C 68.269531 331.460938 68.011719 331.628906 67.734375 331.613281 C 67.457031 331.59375 67.222656 331.394531 67.164062 331.121094 L 66.769531 329.234375 C 66.726562 329.039062 66.539062 328.90625 66.339844 328.929688 L 63.84375 329.246094 C 63.722656 329.261719 63.613281 329.335938 63.554688 329.441406 L 62.414062 331.488281 C 62.296875 331.703125 62.066406 331.824219 61.828125 331.808594 C 61.585938 331.789062 61.375 331.636719 61.289062 331.40625 Z M 63.128906 350.765625 C 61.257812 350.765625 59.179688 350.652344 56.957031 350.34375 C 55.984375 350.210938 55.109375 349.667969 54.558594 348.855469 C 54.007812 348.046875 53.828125 347.039062 54.0625 346.089844 L 54.300781 345.105469 C 55.453125 340.378906 57.378906 332.464844 60.566406 328.617188 C 60.707031 328.445312 60.929688 328.363281 61.148438 328.398438 C 61.367188 328.433594 61.550781 328.585938 61.628906 328.792969 L 61.976562 329.71875 L 62.46875 328.835938 C 62.71875 328.386719 63.175781 328.078125 63.6875 328.011719 L 66.183594 327.695312 C 66.933594 327.601562 67.644531 328.039062 67.910156 328.726562 L 68.058594 328.308594 C 68.152344 328.039062 68.421875 327.871094 68.699219 327.894531 C 68.984375 327.921875 69.214844 328.136719 69.257812 328.417969 L 72.164062 346.457031 C 72.414062 348.347656 71.09375 350.085938 69.226562 350.351562 C 67.660156 350.570312 65.574219 350.765625 63.128906 350.765625 " fill-opacity="1" fill-rule="nonzero"/><path fill="#000000" d="M 61.769531 347.742188 C 60.058594 347.742188 58.203125 347.59375 56.355469 347.171875 C 56.023438 347.09375 55.8125 346.761719 55.890625 346.425781 C 55.964844 346.09375 56.300781 345.882812 56.632812 345.957031 C 62.804688 347.363281 69.261719 345.558594 69.324219 345.539062 C 69.65625 345.445312 70 345.636719 70.09375 345.964844 C 70.1875 346.296875 69.996094 346.640625 69.667969 346.734375 C 69.46875 346.789062 66.0625 347.742188 61.769531 347.742188 " fill-opacity="1" fill-rule="nonzero"/><path fill="#000000" d="M 60.253906 340.753906 C 59.921875 340.753906 59.644531 340.492188 59.632812 340.15625 C 59.621094 339.8125 59.890625 339.523438 60.234375 339.511719 L 66.195312 339.316406 C 66.53125 339.289062 66.828125 339.574219 66.839844 339.914062 C 66.847656 340.257812 66.582031 340.546875 66.238281 340.558594 L 60.277344 340.753906 C 60.269531 340.753906 60.261719 340.753906 60.253906 340.753906 " fill-opacity="1" fill-rule="nonzero"/><path fill="#ffffff" d="M 90.578125 318.226562 L 91.53125 331.941406 L 99.183594 331.941406 L 99.539062 318.226562 L 90.578125 318.226562 " fill-opacity="1" fill-rule="nonzero"/><path fill="#000000" d="M 92.109375 331.320312 L 98.574219 331.320312 L 98.898438 318.851562 L 91.242188 318.851562 Z M 99.183594 332.566406 L 91.53125 332.566406 C 91.203125 332.566406 90.933594 332.3125 90.910156 331.984375 L 89.957031 318.269531 C 89.945312 318.097656 90.003906 317.929688 90.121094 317.804688 C 90.238281 317.679688 90.40625 317.605469 90.578125 317.605469 L 99.539062 317.605469 C 99.707031 317.605469 99.867188 317.675781 99.984375 317.792969 C 100.101562 317.914062 100.164062 318.078125 100.160156 318.242188 L 99.804688 331.957031 C 99.796875 332.296875 99.519531 332.566406 99.183594 332.566406 " fill-opacity="1" fill-rule="nonzero"/><path fill="#5479f7" d="M 89.53125 339.683594 C 89.511719 340.980469 90.398438 342.121094 91.664062 342.414062 C 96.0625 343.4375 105.972656 345.714844 108.800781 346.136719 C 112.46875 346.679688 116.976562 345.558594 118.914062 343.414062 C 120.851562 341.269531 114.574219 336.152344 111.59375 334.289062 C 107.167969 331.519531 102.914062 326.050781 101.132812 325.804688 C 99.347656 325.558594 96.019531 330.730469 96.019531 330.730469 L 90.578125 328.445312 C 90.578125 328.445312 89.628906 333.105469 89.53125 339.683594 " fill-opacity="1" fill-rule="nonzero"/><path fill="#000000" d="M 90.152344 339.695312 C 90.136719 340.695312 90.832031 341.582031 91.804688 341.808594 C 96.003906 342.785156 106.074219 345.101562 108.890625 345.523438 C 112.429688 346.046875 116.71875 344.914062 118.453125 342.996094 C 118.5625 342.878906 118.699219 342.667969 118.644531 342.257812 C 118.359375 340.234375 114.175781 336.636719 111.265625 334.816406 C 109.003906 333.402344 106.855469 331.363281 104.957031 329.566406 C 103.375 328.066406 101.742188 326.515625 101.046875 326.421875 C 100.207031 326.292969 98.046875 328.730469 96.542969 331.066406 C 96.378906 331.320312 96.054688 331.417969 95.777344 331.300781 L 91.050781 329.320312 C 90.789062 330.882812 90.226562 334.761719 90.152344 339.695312 Z M 110.707031 346.894531 C 110.03125 346.894531 109.359375 346.847656 108.707031 346.75 C 105.949219 346.339844 96.757812 344.238281 91.523438 343.019531 C 89.984375 342.664062 88.886719 341.253906 88.910156 339.675781 C 89.007812 333.113281 89.957031 328.367188 89.96875 328.320312 C 90.003906 328.136719 90.121094 327.984375 90.285156 327.894531 C 90.453125 327.808594 90.644531 327.796875 90.816406 327.871094 L 95.78125 329.957031 C 96.859375 328.351562 99.386719 324.941406 101.214844 325.1875 C 102.257812 325.332031 103.574219 326.542969 105.8125 328.664062 C 107.667969 330.421875 109.769531 332.414062 111.925781 333.761719 C 113.855469 334.96875 119.457031 339.085938 119.875 342.085938 C 119.96875 342.761719 119.796875 343.363281 119.375 343.832031 C 117.695312 345.691406 114.144531 346.894531 110.707031 346.894531 " fill-opacity="1" fill-rule="nonzero"/><path fill="#000000" d="M 110.644531 344.371094 C 102.609375 344.371094 91.902344 340.046875 91.292969 339.800781 C 90.976562 339.671875 90.824219 339.308594 90.953125 338.988281 C 91.085938 338.671875 91.449219 338.519531 91.765625 338.648438 C 91.960938 338.730469 111.1875 346.492188 116.765625 341.453125 C 117.023438 341.226562 117.414062 341.246094 117.644531 341.5 C 117.875 341.753906 117.855469 342.148438 117.601562 342.378906 C 115.992188 343.828125 113.484375 344.371094 110.644531 344.371094 " fill-opacity="1" fill-rule="nonzero"/><path fill="#000000" d="M 102.160156 336.070312 C 101.992188 336.070312 101.820312 336.003906 101.699219 335.867188 C 101.46875 335.613281 101.488281 335.21875 101.742188 334.988281 L 105.636719 331.480469 C 105.890625 331.25 106.285156 331.269531 106.515625 331.527344 C 106.746094 331.78125 106.722656 332.171875 106.46875 332.402344 L 102.578125 335.914062 C 102.457031 336.019531 102.308594 336.070312 102.160156 336.070312 " fill-opacity="1" fill-rule="nonzero"/><path fill="#000000" d="M 58.621094 228.824219 C 58.621094 228.824219 56.25 271.695312 55.011719 286.496094 C 53.769531 301.292969 57.910156 325.085938 57.910156 325.085938 L 69.722656 324.464844 C 69.722656 324.464844 70.53125 295.539062 71.410156 287.507812 C 71.410156 287.507812 76.398438 276.617188 77.878906 266.90625 C 79.355469 257.195312 84.394531 241.855469 84.394531 241.855469 C 84.394531 241.855469 88.484375 318.417969 88.878906 324.433594 C 88.878906 324.433594 98.140625 324.847656 101.460938 322.761719 C 101.460938 322.761719 107.34375 294.839844 106.5 279.652344 C 105.65625 264.464844 106.582031 226.722656 106.582031 226.722656 L 58.621094 228.824219 " fill-opacity="1" fill-rule="nonzero"/><path fill="#ffffff" d="M 69.234375 288.125 L 65.625 288.125 C 65.28125 288.125 65.003906 287.847656 65.003906 287.503906 C 65.003906 287.160156 65.28125 286.882812 65.625 286.882812 L 69.234375 286.882812 C 69.578125 286.882812 69.855469 287.160156 69.855469 287.503906 C 69.855469 287.847656 69.578125 288.125 69.234375 288.125 " fill-opacity="1" fill-rule="nonzero"/><path fill="#ffffff" d="M 94.953125 310.394531 C 94.949219 310.394531 94.945312 310.394531 94.941406 310.394531 C 94.597656 310.386719 94.324219 310.101562 94.332031 309.761719 C 94.460938 302.613281 102.269531 289.867188 102.605469 289.328125 C 102.785156 289.035156 103.167969 288.945312 103.460938 289.121094 C 103.753906 289.304688 103.84375 289.6875 103.664062 289.980469 C 103.585938 290.109375 95.699219 302.976562 95.574219 309.785156 C 95.570312 310.125 95.292969 310.394531 94.953125 310.394531 " fill-opacity="1" fill-rule="nonzero"/><path fill="#ffffff" d="M 110.320312 160.257812 C 111.179688 160.191406 115.402344 168.828125 128.609375 168.464844 C 141.816406 168.101562 152.410156 153.335938 152.410156 153.335938 C 152.410156 153.335938 156.972656 145.648438 160.4375 142.871094 C 163.898438 140.09375 164.441406 139.726562 164.441406 139.726562 C 164.441406 139.726562 165.527344 141.171875 164.441406 142.871094 C 163.355469 144.570312 160.359375 147.75 160.359375 147.75 C 160.359375 147.75 163.660156 149.5625 162.171875 153.335938 C 160.457031 157.671875 155.632812 157.324219 155.632812 157.324219 C 155.632812 157.324219 145.839844 200.648438 105.371094 180.0625 L 110.320312 160.257812 " fill-opacity="1" fill-rule="nonzero"/><path fill="#000000" d="M 106.09375 179.730469 C 117.8125 185.585938 128.023438 186.554688 136.441406 182.605469 C 150.640625 175.945312 154.984375 157.375 155.027344 157.1875 C 155.09375 156.886719 155.371094 156.679688 155.679688 156.707031 C 155.855469 156.71875 160.074219 156.957031 161.59375 153.105469 C 162.855469 149.90625 160.171875 148.359375 160.054688 148.296875 C 159.890625 148.203125 159.773438 148.035156 159.746094 147.847656 C 159.714844 147.65625 159.773438 147.464844 159.90625 147.324219 C 159.933594 147.296875 162.875 144.167969 163.914062 142.535156 C 164.386719 141.796875 164.339844 141.125 164.210938 140.675781 C 163.671875 141.089844 162.664062 141.878906 160.824219 143.355469 C 157.492188 146.03125 152.992188 153.578125 152.949219 153.652344 C 152.9375 153.667969 152.929688 153.683594 152.917969 153.695312 C 152.476562 154.308594 141.988281 168.71875 128.625 169.085938 C 117.859375 169.382812 112.964844 163.921875 110.871094 161.589844 C 110.808594 161.523438 110.746094 161.449219 110.679688 161.378906 Z M 125.441406 186.234375 C 119.253906 186.234375 112.445312 184.359375 105.085938 180.613281 C 104.828125 180.484375 104.695312 180.191406 104.765625 179.910156 L 109.714844 160.105469 C 109.78125 159.847656 110.003906 159.65625 110.273438 159.636719 C 110.753906 159.597656 111.082031 159.964844 111.796875 160.761719 C 113.777344 162.964844 118.410156 168.125 128.589844 167.84375 C 141.121094 167.5 151.441406 153.609375 151.890625 152.992188 C 152.230469 152.421875 156.601562 145.152344 160.046875 142.386719 C 163.488281 139.621094 164.070312 139.226562 164.089844 139.210938 C 164.367188 139.023438 164.738281 139.085938 164.9375 139.351562 C 164.992188 139.425781 166.265625 141.164062 164.964844 143.207031 C 164.121094 144.527344 162.214844 146.65625 161.304688 147.644531 C 162.535156 148.644531 163.878906 150.699219 162.75 153.5625 C 161.242188 157.382812 157.507812 157.890625 156.117188 157.945312 C 155.3125 160.980469 150.398438 177.433594 136.972656 183.730469 C 133.414062 185.398438 129.566406 186.234375 125.441406 186.234375 " fill-opacity="1" fill-rule="nonzero"/><path fill="#5479f7" d="M 44.859375 180.0625 C 44.859375 180.0625 48.824219 154.496094 62.828125 148.207031 C 76.828125 141.917969 95.773438 142.792969 100.996094 145.933594 C 106.222656 149.074219 119.835938 163.277344 119.835938 163.277344 L 107.804688 180.0625 C 107.804688 180.0625 110.554688 225.242188 108.382812 237.171875 C 108.382812 237.171875 94.996094 238.730469 89.320312 236.496094 C 83.644531 234.265625 64.976562 231.132812 56.054688 235.230469 L 57.675781 178.027344 L 44.859375 180.0625 " fill-opacity="1" fill-rule="nonzero"/><path fill="#000000" d="M 68.175781 232.613281 C 76.6875 232.613281 85.867188 234.46875 89.546875 235.917969 C 94.429688 237.839844 105.457031 236.847656 107.847656 236.601562 C 109.835938 224.222656 107.210938 180.542969 107.183594 180.097656 C 107.175781 179.957031 107.214844 179.8125 107.300781 179.699219 L 119.03125 163.335938 C 116.847656 161.078125 105.300781 149.25 100.675781 146.464844 C 95.800781 143.535156 77.019531 142.515625 63.082031 148.773438 C 50.96875 154.214844 46.464844 174.859375 45.625 179.308594 L 57.578125 177.410156 C 57.761719 177.382812 57.949219 177.4375 58.085938 177.558594 C 58.226562 177.679688 58.300781 177.859375 58.296875 178.042969 L 56.703125 234.28125 C 59.847656 233.078125 63.929688 232.613281 68.175781 232.613281 Z M 98.949219 238.328125 C 95.359375 238.328125 91.558594 238.046875 89.089844 237.074219 C 83.242188 234.773438 64.792969 231.902344 56.3125 235.792969 C 56.117188 235.886719 55.890625 235.867188 55.710938 235.746094 C 55.53125 235.628906 55.425781 235.425781 55.433594 235.210938 L 57.03125 178.757812 L 44.957031 180.675781 C 44.761719 180.707031 44.5625 180.640625 44.421875 180.5 C 44.28125 180.359375 44.214844 180.160156 44.246094 179.964844 C 44.410156 178.910156 48.421875 153.996094 62.570312 147.640625 C 76.441406 141.410156 95.640625 141.988281 101.320312 145.402344 C 106.554688 148.550781 119.730469 162.265625 120.285156 162.847656 C 120.492188 163.0625 120.515625 163.394531 120.34375 163.636719 L 108.441406 180.242188 C 108.667969 184.0625 111.101562 225.71875 108.992188 237.28125 C 108.945312 237.550781 108.726562 237.757812 108.453125 237.789062 C 108.136719 237.824219 103.734375 238.328125 98.949219 238.328125 " fill-opacity="1" fill-rule="nonzero"/><path fill="#000000" d="M 68.351562 224.0625 C 68.058594 224.0625 67.792969 223.851562 67.742188 223.546875 C 67.679688 223.210938 67.90625 222.886719 68.246094 222.828125 C 89.40625 219.089844 95.542969 204.503906 95.601562 204.355469 C 95.730469 204.039062 96.09375 203.886719 96.414062 204.015625 C 96.730469 204.144531 96.886719 204.503906 96.753906 204.824219 C 96.695312 204.976562 90.296875 220.195312 68.460938 224.054688 C 68.425781 224.058594 68.390625 224.0625 68.351562 224.0625 " fill-opacity="1" fill-rule="nonzero"/><path fill="#000000" d="M 106.792969 197.929688 L 79.542969 197.929688 L 88.078125 167.515625 L 115.328125 167.515625 L 106.792969 197.929688 " fill-opacity="1" fill-rule="nonzero"/><path fill="#ffffff" d="M 47.261719 180.160156 L 61.054688 174 C 61.054688 174 59.109375 197.347656 87.011719 186.566406 C 87.011719 186.566406 85.984375 183.566406 86.128906 180.0625 C 86.273438 176.554688 88.371094 179.949219 88.667969 182.796875 C 88.960938 185.644531 95.511719 184.488281 99.445312 183.367188 C 103.382812 182.242188 108.550781 182.976562 99.445312 187.996094 C 90.34375 193.015625 88.347656 190.773438 88.347656 190.773438 C 88.347656 190.773438 76.722656 207.03125 62.257812 203.578125 C 44.464844 199.332031 47.261719 180.160156 47.261719 180.160156 " fill-opacity="1" fill-rule="nonzero"/><path fill="#000000" d="M 47.839844 180.582031 C 47.71875 181.746094 47.441406 185.792969 48.699219 190.144531 C 50.660156 196.953125 55.273438 201.269531 62.402344 202.972656 C 63.726562 203.289062 65.027344 203.429688 66.300781 203.429688 C 78.367188 203.433594 87.738281 190.554688 87.84375 190.414062 C 87.953125 190.261719 88.125 190.164062 88.316406 190.152344 C 88.507812 190.144531 88.6875 190.21875 88.8125 190.359375 C 88.816406 190.359375 90.855469 192.019531 99.144531 187.453125 C 103.96875 184.792969 103.894531 183.820312 103.894531 183.808594 C 103.707031 183.503906 101.890625 183.316406 99.617188 183.960938 C 97.742188 184.496094 91.445312 186.113281 89.035156 184.488281 C 88.457031 184.09375 88.117188 183.53125 88.046875 182.859375 C 87.894531 181.378906 87.25 179.929688 86.824219 179.382812 C 86.792969 179.535156 86.761719 179.757812 86.75 180.085938 C 86.609375 183.4375 87.589844 186.335938 87.601562 186.367188 C 87.707031 186.679688 87.546875 187.023438 87.234375 187.148438 C 77.609375 190.863281 70.378906 190.992188 65.742188 187.523438 C 60.886719 183.894531 60.394531 177.472656 60.398438 174.972656 Z M 66.289062 204.675781 C 64.929688 204.675781 63.535156 204.519531 62.113281 204.183594 C 43.976562 199.851562 46.617188 180.265625 46.648438 180.070312 C 46.679688 179.859375 46.8125 179.675781 47.007812 179.589844 L 60.800781 173.429688 C 61 173.339844 61.234375 173.363281 61.414062 173.492188 C 61.59375 173.617188 61.691406 173.832031 61.671875 174.050781 C 61.667969 174.132812 61.050781 182.472656 66.492188 186.535156 C 70.679688 189.660156 77.324219 189.546875 86.25 186.191406 C 85.949219 185.132812 85.394531 182.742188 85.507812 180.035156 C 85.527344 179.527344 85.59375 177.980469 86.667969 177.945312 C 86.675781 177.945312 86.6875 177.945312 86.695312 177.945312 C 88.070312 177.945312 89.113281 181.050781 89.285156 182.730469 C 89.316406 183.039062 89.460938 183.269531 89.734375 183.457031 C 91.195312 184.441406 95.578125 183.820312 99.277344 182.769531 C 100.988281 182.277344 104.398438 181.769531 105.046875 183.34375 C 105.574219 184.625 103.941406 186.226562 99.746094 188.539062 C 92.742188 192.402344 89.683594 192.089844 88.507812 191.59375 C 86.660156 193.960938 77.667969 204.675781 66.289062 204.675781 " fill-opacity="1" fill-rule="nonzero"/><path fill="#000000" d="M 84.074219 136.558594 C 82.882812 137.648438 80.550781 138.976562 78.730469 138.0625 C 77.371094 137.378906 76.613281 135.609375 76.664062 133.582031 C 76.035156 133.632812 75.210938 133.589844 74.621094 133.070312 C 73.71875 132.269531 73.886719 130.800781 73.921875 129.835938 C 74.085938 125.375 71.492188 124.6875 72.125 121.664062 C 72.625 119.285156 74.496094 117.867188 74.84375 117.601562 C 76.609375 116.261719 77.804688 116.695312 80.773438 115.917969 C 85.769531 114.609375 85.929688 112.460938 89.21875 112.449219 C 89.410156 112.449219 93.886719 112.496094 95.40625 115.589844 C 96.644531 118.105469 95.199219 121.160156 93.707031 122.765625 C 91.773438 124.84375 90.386719 123.816406 88.445312 125.5625 C 85.039062 128.621094 87.613281 133.320312 84.074219 136.558594 " fill-opacity="1" fill-rule="nonzero"/><path fill="#ffffff" d="M 94.039062 128.597656 L 93.84375 128.429688 C 92.855469 127.578125 91.828125 126.589844 91.5625 125.3125 C 90.449219 119.882812 85.472656 117.914062 85.242188 122.898438 C 85.183594 124.15625 80.585938 124.089844 81.132812 125.410156 C 82.554688 128.855469 82.585938 127.929688 80.578125 129.195312 C 80.351562 129.203125 80.125 129.257812 79.910156 129.355469 C 78.882812 129.835938 78.519531 131.230469 79.097656 132.472656 C 79.449219 133.230469 80.070312 133.746094 80.730469 133.9375 L 80.730469 139.375 C 80.730469 141.414062 79.496094 143.253906 77.609375 144.023438 L 75.769531 144.773438 C 75.769531 144.773438 84.34375 150.363281 93.039062 144.226562 L 91.878906 143.707031 C 89.835938 142.789062 88.492188 140.789062 88.421875 138.550781 L 88.414062 137.484375 C 88.996094 137.539062 89.566406 137.5 90.089844 137.347656 C 92.523438 136.640625 93.328125 133.835938 92.914062 130.355469 L 93.90625 129.824219 C 94.367188 129.574219 94.4375 128.941406 94.039062 128.597656 " fill-opacity="1" fill-rule="nonzero"/><path fill="#000000" d="M 77.210938 144.859375 C 79.601562 146.023438 85.527344 148.132812 91.753906 144.332031 L 91.625 144.273438 C 89.378906 143.265625 87.878906 141.027344 87.800781 138.570312 L 87.792969 137.492188 C 87.789062 137.316406 87.863281 137.148438 87.992188 137.03125 C 88.121094 136.910156 88.296875 136.851562 88.46875 136.867188 C 88.996094 136.914062 89.484375 136.875 89.914062 136.75 C 92.648438 135.953125 92.492188 132.066406 92.296875 130.429688 C 92.269531 130.175781 92.394531 129.929688 92.621094 129.808594 L 93.613281 129.277344 C 93.660156 129.25 93.675781 129.210938 93.675781 129.179688 C 93.679688 129.148438 93.675781 129.105469 93.632812 129.070312 L 93.4375 128.898438 C 92.394531 128.003906 91.257812 126.921875 90.957031 125.4375 C 90.292969 122.21875 88.277344 120.558594 87.136719 120.65625 C 86.078125 120.738281 85.894531 122.269531 85.863281 122.925781 C 85.816406 123.976562 84.519531 124.339844 83.269531 124.691406 C 82.777344 124.828125 81.976562 125.050781 81.734375 125.242188 C 81.929688 125.707031 82.09375 126.089844 82.230469 126.402344 C 82.910156 127.96875 83.140625 128.5 81.753906 129.238281 C 81.527344 129.359375 81.25 129.507812 80.910156 129.722656 C 80.820312 129.78125 80.714844 129.8125 80.605469 129.816406 C 80.449219 129.824219 80.304688 129.855469 80.175781 129.917969 C 79.457031 130.25 79.226562 131.28125 79.660156 132.210938 C 79.921875 132.769531 80.386719 133.191406 80.902344 133.339844 C 81.171875 133.414062 81.355469 133.660156 81.355469 133.9375 L 81.355469 139.375 C 81.355469 141.675781 79.976562 143.730469 77.84375 144.597656 Z M 84.25 147.707031 C 79.214844 147.707031 75.488281 145.332031 75.429688 145.292969 C 75.238281 145.167969 75.128906 144.945312 75.152344 144.714844 C 75.171875 144.484375 75.320312 144.285156 75.535156 144.199219 L 77.375 143.449219 C 79.035156 142.769531 80.109375 141.171875 80.109375 139.375 L 80.109375 134.363281 C 79.4375 134.046875 78.878906 133.472656 78.535156 132.738281 C 77.808594 131.183594 78.308594 129.414062 79.648438 128.792969 C 79.875 128.683594 80.121094 128.617188 80.378906 128.589844 C 80.691406 128.394531 80.953125 128.257812 81.167969 128.140625 C 81.292969 128.074219 81.429688 128.003906 81.511719 127.949219 C 81.460938 127.75 81.28125 127.335938 81.089844 126.898438 C 80.941406 126.5625 80.765625 126.152344 80.558594 125.648438 C 80.429688 125.335938 80.433594 125.019531 80.574219 124.734375 C 80.902344 124.0625 81.84375 123.796875 82.933594 123.492188 C 83.464844 123.34375 84.449219 123.066406 84.621094 122.839844 C 84.773438 119.828125 86.507812 119.457031 87.039062 119.414062 C 88.90625 119.269531 91.402344 121.433594 92.171875 125.1875 C 92.398438 126.289062 93.363281 127.195312 94.25 127.957031 L 94.449219 128.128906 C 94.789062 128.421875 94.964844 128.867188 94.914062 129.3125 C 94.863281 129.761719 94.597656 130.15625 94.199219 130.371094 L 93.578125 130.707031 C 93.9375 134.59375 92.742188 137.222656 90.261719 137.945312 C 89.878906 138.054688 89.472656 138.113281 89.042969 138.128906 L 89.046875 138.542969 C 89.109375 140.515625 90.320312 142.324219 92.132812 143.140625 L 93.296875 143.660156 C 93.5 143.75 93.640625 143.945312 93.660156 144.167969 C 93.683594 144.386719 93.582031 144.605469 93.398438 144.734375 C 90.21875 146.980469 87.035156 147.707031 84.25 147.707031 " fill-opacity="1" fill-rule="nonzero"/><path fill="#000000" d="M 88.414062 138.109375 C 88.382812 138.109375 88.351562 138.105469 88.320312 138.101562 C 84.6875 137.542969 83.050781 134.765625 82.980469 134.644531 C 82.808594 134.347656 82.914062 133.96875 83.210938 133.796875 C 83.507812 133.628906 83.886719 133.730469 84.058594 134.023438 C 84.082031 134.0625 85.492188 136.410156 88.507812 136.871094 C 88.847656 136.925781 89.082031 137.242188 89.027344 137.582031 C 88.980469 137.886719 88.714844 138.109375 88.414062 138.109375 " fill-opacity="1" fill-rule="nonzero"/></svg>