<svg xmlns="http://www.w3.org/2000/svg" xmlns:xlink="http://www.w3.org/1999/xlink" width="500" zoomAndPan="magnify" viewBox="0 0 375 374.999991" height="500" preserveAspectRatio="xMidYMid meet" version="1.0"><defs><clipPath id="2ea31c9afd"><path d="M 7.695312 16.085938 L 366.945312 16.085938 L 366.945312 375 L 7.695312 375 Z M 7.695312 16.085938 " clip-rule="nonzero"/></clipPath></defs><g clip-path="url(#2ea31c9afd)"><path fill="#f2546b" d="M 7.75 196.136719 C 7.75 295.460938 88.171875 375.972656 187.375 375.972656 C 286.582031 375.972656 367 295.460938 367 196.136719 C 367 96.808594 286.582031 16.296875 187.375 16.296875 C 88.167969 16.292969 7.75 96.808594 7.75 196.136719 " fill-opacity="1" fill-rule="nonzero"/></g><path fill="#845232" d="M 251.839844 332.105469 L 126.347656 332.105469 L 126.347656 149.210938 L 251.839844 149.210938 L 251.839844 332.105469 " fill-opacity="1" fill-rule="nonzero"/><path fill="#ffffff" d="M 292.179688 376.464844 C 283.292969 383.105469 273.753906 388.925781 263.675781 393.792969 C 262.144531 394.535156 260.613281 395.246094 259.058594 395.945312 C 237.175781 405.769531 212.917969 411.230469 187.378906 411.230469 C 161.839844 411.230469 137.589844 405.769531 115.710938 395.945312 C 114.144531 395.246094 112.601562 394.535156 111.078125 393.792969 C 101.003906 388.914062 91.464844 383.105469 82.589844 376.464844 C 84.144531 341.699219 102.59375 311.332031 129.917969 293.398438 C 146.421875 282.554688 166.160156 276.257812 187.378906 276.257812 C 190.617188 276.257812 193.816406 276.40625 196.964844 276.691406 C 214.542969 278.285156 230.851562 284.203125 244.839844 293.398438 C 257.421875 301.65625 268.117188 312.546875 276.144531 325.28125 C 285.570312 340.222656 291.320312 357.710938 292.179688 376.464844 " fill-opacity="1" fill-rule="nonzero"/><path fill="#fbd5c0" d="M 244.839844 293.398438 C 243.238281 305.527344 237.898438 316.484375 229.996094 325.050781 C 219.402344 336.535156 204.238281 343.738281 187.378906 343.738281 C 160.375 343.738281 137.683594 325.246094 131.242188 300.214844 C 130.671875 297.992188 130.226562 295.714844 129.917969 293.398438 C 146.421875 282.554688 166.160156 276.257812 187.378906 276.257812 C 190.617188 276.257812 193.816406 276.394531 196.972656 276.691406 C 197.523438 276.738281 198.074219 276.796875 198.609375 276.851562 C 198.953125 276.886719 199.296875 276.921875 199.628906 276.96875 C 200.003906 277.003906 200.382812 277.058594 200.75 277.105469 C 200.976562 277.128906 201.21875 277.164062 201.445312 277.195312 C 201.777344 277.230469 202.121094 277.289062 202.464844 277.335938 C 202.726562 277.367188 202.992188 277.414062 203.265625 277.449219 C 203.492188 277.484375 203.722656 277.519531 203.953125 277.5625 C 204.339844 277.621094 204.71875 277.6875 205.105469 277.746094 C 206.777344 278.03125 208.433594 278.355469 210.070312 278.71875 L 211.167969 278.960938 C 211.375 279.019531 211.589844 279.0625 211.796875 279.121094 C 212.1875 279.210938 212.585938 279.304688 212.964844 279.40625 C 213.03125 279.417969 213.089844 279.429688 213.136719 279.441406 C 213.628906 279.566406 214.121094 279.695312 214.601562 279.832031 C 215.125 279.957031 215.640625 280.105469 216.144531 280.253906 C 216.726562 280.414062 217.300781 280.585938 217.882812 280.757812 C 218.328125 280.894531 218.773438 281.03125 219.21875 281.183594 C 219.507812 281.273438 219.804688 281.363281 220.078125 281.457031 C 220.546875 281.605469 221.015625 281.765625 221.472656 281.925781 C 222.046875 282.121094 222.605469 282.316406 223.167969 282.523438 C 223.210938 282.542969 223.246094 282.554688 223.28125 282.566406 C 223.863281 282.773438 224.4375 282.992188 225.007812 283.207031 C 225.429688 283.378906 225.867188 283.539062 226.300781 283.722656 C 227.433594 284.171875 228.542969 284.640625 229.640625 285.121094 L 231.082031 285.773438 C 231.515625 285.96875 231.949219 286.175781 232.386719 286.378906 C 232.785156 286.574219 233.175781 286.757812 233.5625 286.953125 C 233.929688 287.125 234.285156 287.308594 234.636719 287.492188 C 234.867188 287.605469 235.105469 287.71875 235.335938 287.847656 C 236.285156 288.328125 237.210938 288.832031 238.125 289.335938 C 238.457031 289.519531 238.800781 289.714844 239.121094 289.894531 C 239.339844 290.023438 239.542969 290.136719 239.75 290.25 L 240.527344 290.710938 L 241.316406 291.191406 L 241.832031 291.5 C 242.324219 291.785156 242.804688 292.082031 243.285156 292.390625 C 243.8125 292.722656 244.324219 293.054688 244.839844 293.398438 " fill-opacity="1" fill-rule="nonzero"/><path fill="#fbd5c0" d="M 207.578125 252.726562 L 207.578125 292.507812 C 207.578125 302.574219 199.355469 310.816406 189.3125 310.816406 L 185.445312 310.816406 C 175.402344 310.816406 167.191406 302.574219 167.191406 292.507812 L 167.191406 252.726562 C 167.191406 242.660156 175.402344 234.425781 185.445312 234.425781 L 189.3125 234.425781 C 199.355469 234.425781 207.578125 242.660156 207.578125 252.726562 " fill-opacity="1" fill-rule="nonzero"/><path fill="#f8a29e" d="M 207.578125 252.726562 L 207.578125 273.773438 C 201.574219 277.117188 195.203125 279.0625 188.738281 279.0625 C 181.109375 279.0625 173.835938 276.933594 167.191406 273.234375 L 167.191406 252.726562 C 167.191406 242.660156 175.402344 234.425781 185.445312 234.425781 L 189.3125 234.425781 C 199.355469 234.425781 207.578125 242.660156 207.578125 252.726562 " fill-opacity="1" fill-rule="nonzero"/><path fill="#fbd5c0" d="M 249.65625 228.0625 C 249.65625 228.0625 261.617188 223.984375 269.257812 210.632812 C 277.5625 196.136719 272.347656 187.101562 270.699219 185.140625 C 266.207031 179.792969 259.261719 183.230469 258.117188 185.140625 C 256.976562 187.054688 240.414062 217.171875 249.65625 228.0625 " fill-opacity="1" fill-rule="nonzero"/><path fill="#f8a29e" d="M 261.378906 189.894531 C 261.378906 189.894531 268.972656 190.867188 266.308594 201.550781 C 263.632812 212.246094 256.621094 216.472656 247.082031 221.933594 C 237.554688 227.398438 251.851562 192.070312 261.378906 189.894531 " fill-opacity="1" fill-rule="nonzero"/><path fill="#fbd5c0" d="M 128.210938 228.0625 C 128.210938 228.0625 116.25 223.984375 108.609375 210.632812 C 100.292969 196.136719 105.507812 187.101562 107.15625 185.140625 C 111.652344 179.792969 118.59375 183.230469 119.738281 185.140625 C 120.882812 187.054688 137.453125 217.171875 128.210938 228.0625 " fill-opacity="1" fill-rule="nonzero"/><path fill="#f8a29e" d="M 116.476562 189.894531 C 116.476562 189.894531 108.894531 190.867188 111.558594 201.550781 C 114.226562 212.246094 121.246094 216.472656 130.773438 221.933594 C 140.3125 227.398438 126.015625 192.070312 116.476562 189.894531 " fill-opacity="1" fill-rule="nonzero"/><path fill="#fbd5c0" d="M 261.378906 182.839844 C 261.378906 138.949219 229.023438 103.359375 189.09375 103.359375 C 149.175781 103.359375 116.796875 138.949219 116.796875 182.839844 C 116.796875 226.734375 149.175781 272.617188 189.09375 272.617188 C 226.609375 272.617188 261.378906 226.367188 261.378906 182.839844 " fill-opacity="1" fill-rule="nonzero"/><path fill="#845232" d="M 155.8125 131.140625 C 155.8125 131.140625 179.453125 202.136719 266.867188 242.351562 C 266.867188 242.351562 269.28125 177.320312 266.261719 149.210938 C 262.855469 117.523438 233.105469 80.949219 187.390625 90.488281 C 187.390625 90.488281 145.128906 103.277344 155.8125 131.140625 " fill-opacity="1" fill-rule="nonzero"/><path fill="#845232" d="M 197.890625 103.359375 C 197.890625 103.359375 199.789062 95.070312 192.925781 88.574219 C 186.0625 82.082031 95.203125 95.414062 116.796875 182.839844 C 116.796875 182.839844 137.980469 130.554688 194.070312 125.976562 L 197.890625 103.359375 " fill-opacity="1" fill-rule="nonzero"/></svg>