<svg xmlns="http://www.w3.org/2000/svg" xmlns:xlink="http://www.w3.org/1999/xlink" width="500" zoomAndPan="magnify" viewBox="0 0 375 374.999991" height="500" preserveAspectRatio="xMidYMid meet" version="1.0"><defs><g/><clipPath id="8ca8be3f36"><path d="M 56.488281 151.464844 L 264.988281 151.464844 L 264.988281 223.464844 L 56.488281 223.464844 Z M 56.488281 151.464844 " clip-rule="nonzero"/></clipPath><clipPath id="193f98e692"><path d="M 63.558594 158.238281 L 154.308594 158.238281 L 154.308594 216.738281 L 63.558594 216.738281 Z M 63.558594 158.238281 " clip-rule="nonzero"/></clipPath></defs><g clip-path="url(#8ca8be3f36)"><path stroke-linecap="butt" transform="matrix(0.751097, 0, 0, 0.749268, 56.489269, 151.464789)" fill="none" stroke-linejoin="miter" d="M -0.0013148 0.0000727326 L 277.592475 0.0000727326 L 277.592475 96.093833 L -0.0013148 96.093833 L -0.0013148 0.0000727326 " stroke="#ffffff" stroke-width="14" stroke-opacity="1" stroke-miterlimit="4"/></g><g clip-path="url(#193f98e692)"><path stroke-linecap="butt" transform="matrix(0.748261, 0, 0, 0.7497, 63.558888, 158.237363)" fill="none" stroke-linejoin="miter" d="M -0.000393681 0.00122455 L 121.28087 0.00122455 L 121.28087 78.032485 L -0.000393681 78.032485 L -0.000393681 0.00122455 " stroke="#ffffff" stroke-width="10" stroke-opacity="1" stroke-miterlimit="4"/></g><g fill="#ffffff" fill-opacity="1"><g transform="translate(73.741166, 182.999988)"><g><path d="M 1.929688 0 L 7.199219 0 L 7.199219 -18.257812 L 1.929688 -18.257812 Z M 1.929688 0 "/></g></g></g><g fill="#ffffff" fill-opacity="1"><g transform="translate(81.066989, 182.999988)"><g><path d="M 1.929688 0 L 7.148438 0 L 7.148438 -9.3125 L 14.085938 0 L 18.363281 0 L 18.363281 -18.257812 L 13.171875 -18.257812 L 13.171875 -9 L 6.234375 -18.257812 L 1.929688 -18.257812 Z M 1.929688 0 "/></g></g></g><g fill="#ffffff" fill-opacity="1"><g transform="translate(99.578679, 182.999988)"><g><path d="M 6.285156 0 L 11.53125 0 L 11.53125 -13.382812 L 17.085938 -13.382812 L 17.085938 -18.257812 L 0.730469 -18.257812 L 0.730469 -13.382812 L 6.285156 -13.382812 Z M 6.285156 0 "/></g></g></g><g fill="#ffffff" fill-opacity="1"><g transform="translate(115.587238, 182.999988)"><g><path d="M 1.929688 0 L 14.738281 0 L 14.738281 -4.304688 L 7.148438 -4.304688 L 7.148438 -7.121094 L 13.746094 -7.121094 L 13.746094 -11.347656 L 7.148438 -11.347656 L 7.148438 -14.007812 L 14.449219 -14.007812 L 14.449219 -18.257812 L 1.929688 -18.257812 Z M 1.929688 0 "/></g></g></g><g fill="#ffffff" fill-opacity="1"><g transform="translate(129.69238, 182.999988)"><g><path d="M 1.929688 0 L 7.199219 0 L 7.199219 -5.191406 L 9.183594 -5.191406 L 11.789062 0 L 17.765625 0 L 14.398438 -6.15625 C 16.328125 -7.226562 17.425781 -9.15625 17.425781 -11.710938 C 17.425781 -15.753906 14.6875 -18.257812 10.25 -18.257812 L 1.929688 -18.257812 Z M 7.09375 -9.390625 L 7.09375 -13.957031 L 9.546875 -13.957031 C 11.214844 -13.957031 12.128906 -13.148438 12.128906 -11.6875 C 12.128906 -10.226562 11.214844 -9.390625 9.546875 -9.390625 Z M 7.09375 -9.390625 "/></g></g></g><g fill="#ffffff" fill-opacity="1"><g transform="translate(120.8271, 208.499986)"><g><path d="M 1.929688 0 L 7.199219 0 L 7.199219 -18.257812 L 1.929688 -18.257812 Z M 1.929688 0 "/></g></g></g><g fill="#ffffff" fill-opacity="1"><g transform="translate(128.152924, 208.499986)"><g><path d="M 1.929688 0 L 7.148438 0 L 7.148438 -9.3125 L 14.085938 0 L 18.363281 0 L 18.363281 -18.257812 L 13.171875 -18.257812 L 13.171875 -9 L 6.234375 -18.257812 L 1.929688 -18.257812 Z M 1.929688 0 "/></g></g></g><g fill="#ffffff" fill-opacity="1"><g transform="translate(157.191277, 183.546082)"><g><path d="M 7.527344 0 L 13.144531 0 L 20.53125 -19.660156 L 14.492188 -19.660156 L 12.191406 -13.171875 L 10.363281 -8.0625 L 8.539062 -13.171875 L 6.234375 -19.660156 L 0.140625 -19.660156 Z M 7.527344 0 "/></g></g></g><g fill="#ffffff" fill-opacity="1"><g transform="translate(179.794914, 183.546082)"><g><path d="M 2.078125 0 L 7.753906 0 L 7.753906 -19.660156 L 2.078125 -19.660156 Z M 2.078125 0 "/></g></g></g><g fill="#ffffff" fill-opacity="1"><g transform="translate(191.560412, 183.546082)"><g><path d="M 2.078125 0 L 15.871094 0 L 15.871094 -4.632812 L 7.695312 -4.632812 L 7.695312 -7.667969 L 14.800781 -7.667969 L 14.800781 -12.21875 L 7.695312 -12.21875 L 7.695312 -15.082031 L 15.558594 -15.082031 L 15.558594 -19.660156 L 2.078125 -19.660156 Z M 2.078125 0 "/></g></g></g><g fill="#ffffff" fill-opacity="1"><g transform="translate(210.626211, 183.546082)"><g><path d="M 6.460938 0 L 12.105469 0 L 15.671875 -10.925781 L 19.238281 0 L 24.886719 0 L 31.207031 -19.660156 L 25.25 -19.660156 L 23.875 -15.28125 L 21.851562 -8.988281 L 18.371094 -19.660156 L 12.976562 -19.660156 L 11.515625 -15.28125 L 9.523438 -9.15625 L 7.527344 -15.28125 L 6.152344 -19.660156 L 0.140625 -19.660156 Z M 6.460938 0 "/></g></g></g><g fill="#ffffff" fill-opacity="1"><g transform="translate(157.191277, 211.29608)"><g><path d="M 9.128906 0.421875 C 14.015625 0.421875 16.910156 -1.882812 16.910156 -5.757812 C 16.910156 -9.015625 14.800781 -10.925781 10.027344 -11.992188 C 7.5 -12.554688 6.574219 -13.171875 6.574219 -14.183594 C 6.574219 -15.140625 7.414062 -15.730469 8.734375 -15.730469 C 10.308594 -15.730469 11.207031 -14.914062 11.207031 -13.425781 L 16.542969 -13.425781 C 16.542969 -17.46875 13.453125 -20.082031 8.621094 -20.082031 C 3.988281 -20.082031 1.125 -17.78125 1.125 -14.070312 C 1.125 -10.757812 3.285156 -8.707031 7.722656 -7.863281 C 10.113281 -7.386719 11.261719 -6.65625 11.261719 -5.535156 C 11.261719 -4.550781 10.421875 -3.988281 9.042969 -3.988281 C 7.414062 -3.988281 6.460938 -4.859375 6.460938 -6.375 L 0.984375 -6.375 C 0.984375 -2.132812 4.015625 0.421875 9.128906 0.421875 Z M 9.128906 0.421875 "/></g></g></g><g fill="#ffffff" fill-opacity="1"><g transform="translate(177.071346, 211.29608)"><g><path d="M 2.078125 0 L 7.753906 0 L 7.753906 -19.660156 L 2.078125 -19.660156 Z M 2.078125 0 "/></g></g></g><g fill="#ffffff" fill-opacity="1"><g transform="translate(188.836844, 211.29608)"><g><path d="M 11.460938 0.421875 C 18.230469 0.421875 22.46875 -4.492188 21.851562 -11.402344 L 10.476562 -11.402344 L 10.476562 -7.414062 L 15.898438 -7.414062 C 15.335938 -5.757812 13.761719 -4.632812 11.515625 -4.632812 C 8.371094 -4.632812 6.542969 -6.851562 6.542969 -9.832031 C 6.542969 -12.921875 8.539062 -15.027344 11.460938 -15.027344 C 13.199219 -15.027344 14.691406 -14.269531 15.449219 -13.03125 L 21.488281 -13.03125 C 20.335938 -17.328125 16.347656 -20.082031 11.375 -20.082031 C 5.195312 -20.082031 0.953125 -15.871094 0.953125 -9.832031 C 0.953125 -3.765625 5.222656 0.421875 11.460938 0.421875 Z M 11.460938 0.421875 "/></g></g></g><g fill="#ffffff" fill-opacity="1"><g transform="translate(213.574415, 211.29608)"><g><path d="M 13.820312 0 L 19.492188 0 L 19.492188 -19.660156 L 13.820312 -19.660156 L 13.820312 -12.609375 L 7.753906 -12.609375 L 7.753906 -19.660156 L 2.078125 -19.660156 L 2.078125 0 L 7.753906 0 L 7.753906 -7.386719 L 13.820312 -7.386719 Z M 13.820312 0 "/></g></g></g><g fill="#ffffff" fill-opacity="1"><g transform="translate(237.07655, 211.29608)"><g><path d="M 6.769531 0 L 12.414062 0 L 12.414062 -14.410156 L 18.398438 -14.410156 L 18.398438 -19.660156 L 0.785156 -19.660156 L 0.785156 -14.410156 L 6.769531 -14.410156 Z M 6.769531 0 "/></g></g></g></svg>